<?xml version="1.0" encoding="utf-8" standalone="no"?>
<!DOCTYPE svg PUBLIC "-//W3C//DTD SVG 1.1//EN"
  "http://www.w3.org/Graphics/SVG/1.1/DTD/svg11.dtd">
<!-- Created with matplotlib (http://matplotlib.org/) -->
<svg height="720pt" version="1.1" viewBox="0 0 1440 720" width="1440pt" xmlns="http://www.w3.org/2000/svg" xmlns:xlink="http://www.w3.org/1999/xlink">
 <defs>
  <style type="text/css">
*{stroke-linecap:butt;stroke-linejoin:round;}
  </style>
 </defs>
 <g id="figure_1">
  <g id="patch_1">
   <path d="M 0 720 
L 1440 720 
L 1440 0 
L 0 0 
z
" style="fill:#ffffff;"/>
  </g>
  <g id="axes_1">
   <g id="patch_2">
    <path d="M 180 630 
L 1296 630 
L 1296 86.4 
L 180 86.4 
z
" style="fill:#ffffff;"/>
   </g>
   <g id="patch_3">
    <path clip-path="url(#p945fb6b188)" d="M 230.727273 630 
L 235.825491 630 
L 235.825491 581.998617 
L 230.727273 581.998617 
z
" style="fill:#1f77b4;"/>
   </g>
   <g id="patch_4">
    <path clip-path="url(#p945fb6b188)" d="M 240.923709 630 
L 246.021928 630 
L 246.021928 538.861172 
L 240.923709 538.861172 
z
" style="fill:#1f77b4;"/>
   </g>
   <g id="patch_5">
    <path clip-path="url(#p945fb6b188)" d="M 251.120146 630 
L 256.218365 630 
L 256.218365 556.100942 
L 251.120146 556.100942 
z
" style="fill:#1f77b4;"/>
   </g>
   <g id="patch_6">
    <path clip-path="url(#p945fb6b188)" d="M 261.316583 630 
L 266.414801 630 
L 266.414801 562.038516 
L 261.316583 562.038516 
z
" style="fill:#1f77b4;"/>
   </g>
   <g id="patch_7">
    <path clip-path="url(#p945fb6b188)" d="M 271.51302 630 
L 276.611238 630 
L 276.611238 531.875953 
L 271.51302 531.875953 
z
" style="fill:#1f77b4;"/>
   </g>
   <g id="patch_8">
    <path clip-path="url(#p945fb6b188)" d="M 281.709456 630 
L 286.807675 630 
L 286.807675 536.525141 
L 281.709456 536.525141 
z
" style="fill:#1f77b4;"/>
   </g>
   <g id="patch_9">
    <path clip-path="url(#p945fb6b188)" d="M 291.905893 630 
L 297.004111 630 
L 297.004111 570.614827 
L 291.905893 570.614827 
z
" style="fill:#1f77b4;"/>
   </g>
   <g id="patch_10">
    <path clip-path="url(#p945fb6b188)" d="M 302.10233 630 
L 307.200548 630 
L 307.200548 581.910412 
L 302.10233 581.910412 
z
" style="fill:#1f77b4;"/>
   </g>
   <g id="patch_11">
    <path clip-path="url(#p945fb6b188)" d="M 312.298767 630 
L 317.396985 630 
L 317.396985 531.894318 
L 312.298767 531.894318 
z
" style="fill:#1f77b4;"/>
   </g>
   <g id="patch_12">
    <path clip-path="url(#p945fb6b188)" d="M 322.495203 630 
L 327.593422 630 
L 327.593422 583.137672 
L 322.495203 583.137672 
z
" style="fill:#1f77b4;"/>
   </g>
   <g id="patch_13">
    <path clip-path="url(#p945fb6b188)" d="M 332.69164 630 
L 337.789858 630 
L 337.789858 428.448139 
L 332.69164 428.448139 
z
" style="fill:#1f77b4;"/>
   </g>
   <g id="patch_14">
    <path clip-path="url(#p945fb6b188)" d="M 342.888077 630 
L 347.986295 630 
L 347.986295 533.87604 
L 342.888077 533.87604 
z
" style="fill:#1f77b4;"/>
   </g>
   <g id="patch_15">
    <path clip-path="url(#p945fb6b188)" d="M 353.084513 630 
L 358.182732 630 
L 358.182732 574.46717 
L 353.084513 574.46717 
z
" style="fill:#1f77b4;"/>
   </g>
   <g id="patch_16">
    <path clip-path="url(#p945fb6b188)" d="M 363.28095 630 
L 368.379169 630 
L 368.379169 567.253398 
L 363.28095 567.253398 
z
" style="fill:#1f77b4;"/>
   </g>
   <g id="patch_17">
    <path clip-path="url(#p945fb6b188)" d="M 373.477387 630 
L 378.575605 630 
L 378.575605 416.502429 
L 373.477387 416.502429 
z
" style="fill:#1f77b4;"/>
   </g>
   <g id="patch_18">
    <path clip-path="url(#p945fb6b188)" d="M 383.673824 630 
L 388.772042 630 
L 388.772042 423.442797 
L 383.673824 423.442797 
z
" style="fill:#1f77b4;"/>
   </g>
   <g id="patch_19">
    <path clip-path="url(#p945fb6b188)" d="M 393.87026 630 
L 398.968479 630 
L 398.968479 585.456307 
L 393.87026 585.456307 
z
" style="fill:#1f77b4;"/>
   </g>
   <g id="patch_20">
    <path clip-path="url(#p945fb6b188)" d="M 404.066697 630 
L 409.164915 630 
L 409.164915 541.357739 
L 404.066697 541.357739 
z
" style="fill:#1f77b4;"/>
   </g>
   <g id="patch_21">
    <path clip-path="url(#p945fb6b188)" d="M 414.263134 630 
L 419.361352 630 
L 419.361352 517.951282 
L 414.263134 517.951282 
z
" style="fill:#1f77b4;"/>
   </g>
   <g id="patch_22">
    <path clip-path="url(#p945fb6b188)" d="M 424.459571 630 
L 429.557789 630 
L 429.557789 425.814707 
L 424.459571 425.814707 
z
" style="fill:#1f77b4;"/>
   </g>
   <g id="patch_23">
    <path clip-path="url(#p945fb6b188)" d="M 434.656007 630 
L 439.754226 630 
L 439.754226 557.075459 
L 434.656007 557.075459 
z
" style="fill:#1f77b4;"/>
   </g>
   <g id="patch_24">
    <path clip-path="url(#p945fb6b188)" d="M 444.852444 630 
L 449.950662 630 
L 449.950662 582.85208 
L 444.852444 582.85208 
z
" style="fill:#1f77b4;"/>
   </g>
   <g id="patch_25">
    <path clip-path="url(#p945fb6b188)" d="M 455.048881 630 
L 460.147099 630 
L 460.147099 562.231782 
L 455.048881 562.231782 
z
" style="fill:#1f77b4;"/>
   </g>
   <g id="patch_26">
    <path clip-path="url(#p945fb6b188)" d="M 465.245317 630 
L 470.343536 630 
L 470.343536 560.57468 
L 465.245317 560.57468 
z
" style="fill:#1f77b4;"/>
   </g>
   <g id="patch_27">
    <path clip-path="url(#p945fb6b188)" d="M 475.441754 630 
L 480.539973 630 
L 480.539973 567.467855 
L 475.441754 567.467855 
z
" style="fill:#1f77b4;"/>
   </g>
   <g id="patch_28">
    <path clip-path="url(#p945fb6b188)" d="M 485.638191 630 
L 490.736409 630 
L 490.736409 421.785382 
L 485.638191 421.785382 
z
" style="fill:#1f77b4;"/>
   </g>
   <g id="patch_29">
    <path clip-path="url(#p945fb6b188)" d="M 495.834628 630 
L 500.932846 630 
L 500.932846 539.265154 
L 495.834628 539.265154 
z
" style="fill:#1f77b4;"/>
   </g>
   <g id="patch_30">
    <path clip-path="url(#p945fb6b188)" d="M 506.031064 630 
L 511.129283 630 
L 511.129283 582.313941 
L 506.031064 582.313941 
z
" style="fill:#1f77b4;"/>
   </g>
   <g id="patch_31">
    <path clip-path="url(#p945fb6b188)" d="M 516.227501 630 
L 521.32572 630 
L 521.32572 576.775151 
L 516.227501 576.775151 
z
" style="fill:#1f77b4;"/>
   </g>
   <g id="patch_32">
    <path clip-path="url(#p945fb6b188)" d="M 526.423938 630 
L 531.522156 630 
L 531.522156 540.08085 
L 526.423938 540.08085 
z
" style="fill:#1f77b4;"/>
   </g>
   <g id="patch_33">
    <path clip-path="url(#p945fb6b188)" d="M 536.620375 630 
L 541.718593 630 
L 541.718593 557.493364 
L 536.620375 557.493364 
z
" style="fill:#1f77b4;"/>
   </g>
   <g id="patch_34">
    <path clip-path="url(#p945fb6b188)" d="M 546.816811 630 
L 551.91503 630 
L 551.91503 576.834519 
L 546.816811 576.834519 
z
" style="fill:#1f77b4;"/>
   </g>
   <g id="patch_35">
    <path clip-path="url(#p945fb6b188)" d="M 557.013248 630 
L 562.111466 630 
L 562.111466 540.964833 
L 557.013248 540.964833 
z
" style="fill:#1f77b4;"/>
   </g>
   <g id="patch_36">
    <path clip-path="url(#p945fb6b188)" d="M 567.209685 630 
L 572.307903 630 
L 572.307903 417.707581 
L 567.209685 417.707581 
z
" style="fill:#1f77b4;"/>
   </g>
   <g id="patch_37">
    <path clip-path="url(#p945fb6b188)" d="M 577.406122 630 
L 582.50434 630 
L 582.50434 579.514754 
L 577.406122 579.514754 
z
" style="fill:#1f77b4;"/>
   </g>
   <g id="patch_38">
    <path clip-path="url(#p945fb6b188)" d="M 587.602558 630 
L 592.700777 630 
L 592.700777 572.72581 
L 587.602558 572.72581 
z
" style="fill:#1f77b4;"/>
   </g>
   <g id="patch_39">
    <path clip-path="url(#p945fb6b188)" d="M 597.798995 630 
L 602.897213 630 
L 602.897213 427.91579 
L 597.798995 427.91579 
z
" style="fill:#1f77b4;"/>
   </g>
   <g id="patch_40">
    <path clip-path="url(#p945fb6b188)" d="M 607.995432 630 
L 613.09365 630 
L 613.09365 434.538462 
L 607.995432 434.538462 
z
" style="fill:#1f77b4;"/>
   </g>
   <g id="patch_41">
    <path clip-path="url(#p945fb6b188)" d="M 618.191868 630 
L 623.290087 630 
L 623.290087 536.262208 
L 618.191868 536.262208 
z
" style="fill:#1f77b4;"/>
   </g>
   <g id="patch_42">
    <path clip-path="url(#p945fb6b188)" d="M 628.388305 630 
L 633.486524 630 
L 633.486524 539.433433 
L 628.388305 539.433433 
z
" style="fill:#1f77b4;"/>
   </g>
   <g id="patch_43">
    <path clip-path="url(#p945fb6b188)" d="M 638.584742 630 
L 643.68296 630 
L 643.68296 420.782987 
L 638.584742 420.782987 
z
" style="fill:#1f77b4;"/>
   </g>
   <g id="patch_44">
    <path clip-path="url(#p945fb6b188)" d="M 648.781179 630 
L 653.879397 630 
L 653.879397 429.551076 
L 648.781179 429.551076 
z
" style="fill:#1f77b4;"/>
   </g>
   <g id="patch_45">
    <path clip-path="url(#p945fb6b188)" d="M 658.977615 630 
L 664.075834 630 
L 664.075834 583.95368 
L 658.977615 583.95368 
z
" style="fill:#1f77b4;"/>
   </g>
   <g id="patch_46">
    <path clip-path="url(#p945fb6b188)" d="M 669.174052 630 
L 674.27227 630 
L 674.27227 427.527877 
L 669.174052 427.527877 
z
" style="fill:#1f77b4;"/>
   </g>
   <g id="patch_47">
    <path clip-path="url(#p945fb6b188)" d="M 679.370489 630 
L 684.468707 630 
L 684.468707 442.281563 
L 679.370489 442.281563 
z
" style="fill:#1f77b4;"/>
   </g>
   <g id="patch_48">
    <path clip-path="url(#p945fb6b188)" d="M 689.566926 630 
L 694.665144 630 
L 694.665144 534.432675 
L 689.566926 534.432675 
z
" style="fill:#1f77b4;"/>
   </g>
   <g id="patch_49">
    <path clip-path="url(#p945fb6b188)" d="M 699.763362 630 
L 704.861581 630 
L 704.861581 580.51579 
L 699.763362 580.51579 
z
" style="fill:#1f77b4;"/>
   </g>
   <g id="patch_50">
    <path clip-path="url(#p945fb6b188)" d="M 709.959799 630 
L 715.058017 630 
L 715.058017 439.594792 
L 709.959799 439.594792 
z
" style="fill:#1f77b4;"/>
   </g>
   <g id="patch_51">
    <path clip-path="url(#p945fb6b188)" d="M 720.156236 630 
L 725.254454 630 
L 725.254454 567.318158 
L 720.156236 567.318158 
z
" style="fill:#1f77b4;"/>
   </g>
   <g id="patch_52">
    <path clip-path="url(#p945fb6b188)" d="M 730.352672 630 
L 735.450891 630 
L 735.450891 435.704984 
L 730.352672 435.704984 
z
" style="fill:#1f77b4;"/>
   </g>
   <g id="patch_53">
    <path clip-path="url(#p945fb6b188)" d="M 740.549109 630 
L 745.647328 630 
L 745.647328 546.495405 
L 740.549109 546.495405 
z
" style="fill:#1f77b4;"/>
   </g>
   <g id="patch_54">
    <path clip-path="url(#p945fb6b188)" d="M 750.745546 630 
L 755.843764 630 
L 755.843764 534.010737 
L 750.745546 534.010737 
z
" style="fill:#1f77b4;"/>
   </g>
   <g id="patch_55">
    <path clip-path="url(#p945fb6b188)" d="M 760.941983 630 
L 766.040201 630 
L 766.040201 584.612162 
L 760.941983 584.612162 
z
" style="fill:#1f77b4;"/>
   </g>
   <g id="patch_56">
    <path clip-path="url(#p945fb6b188)" d="M 771.138419 630 
L 776.236638 630 
L 776.236638 559.12027 
L 771.138419 559.12027 
z
" style="fill:#1f77b4;"/>
   </g>
   <g id="patch_57">
    <path clip-path="url(#p945fb6b188)" d="M 781.334856 630 
L 786.433074 630 
L 786.433074 559.445073 
L 781.334856 559.445073 
z
" style="fill:#1f77b4;"/>
   </g>
   <g id="patch_58">
    <path clip-path="url(#p945fb6b188)" d="M 791.531293 630 
L 796.629511 630 
L 796.629511 583.868333 
L 791.531293 583.868333 
z
" style="fill:#1f77b4;"/>
   </g>
   <g id="patch_59">
    <path clip-path="url(#p945fb6b188)" d="M 801.72773 630 
L 806.825948 630 
L 806.825948 459.413381 
L 801.72773 459.413381 
z
" style="fill:#1f77b4;"/>
   </g>
   <g id="patch_60">
    <path clip-path="url(#p945fb6b188)" d="M 811.924166 630 
L 817.022385 630 
L 817.022385 539.322042 
L 811.924166 539.322042 
z
" style="fill:#1f77b4;"/>
   </g>
   <g id="patch_61">
    <path clip-path="url(#p945fb6b188)" d="M 822.120603 630 
L 827.218821 630 
L 827.218821 580.409532 
L 822.120603 580.409532 
z
" style="fill:#1f77b4;"/>
   </g>
   <g id="patch_62">
    <path clip-path="url(#p945fb6b188)" d="M 832.31704 630 
L 837.415258 630 
L 837.415258 568.623636 
L 832.31704 568.623636 
z
" style="fill:#1f77b4;"/>
   </g>
   <g id="patch_63">
    <path clip-path="url(#p945fb6b188)" d="M 842.513476 630 
L 847.611695 630 
L 847.611695 432.272303 
L 842.513476 432.272303 
z
" style="fill:#1f77b4;"/>
   </g>
   <g id="patch_64">
    <path clip-path="url(#p945fb6b188)" d="M 852.709913 630 
L 857.808132 630 
L 857.808132 486.010735 
L 852.709913 486.010735 
z
" style="fill:#1f77b4;"/>
   </g>
   <g id="patch_65">
    <path clip-path="url(#p945fb6b188)" d="M 862.90635 630 
L 868.004568 630 
L 868.004568 580.57065 
L 862.90635 580.57065 
z
" style="fill:#1f77b4;"/>
   </g>
   <g id="patch_66">
    <path clip-path="url(#p945fb6b188)" d="M 873.102787 630 
L 878.201005 630 
L 878.201005 443.803321 
L 873.102787 443.803321 
z
" style="fill:#1f77b4;"/>
   </g>
   <g id="patch_67">
    <path clip-path="url(#p945fb6b188)" d="M 883.299223 630 
L 888.397442 630 
L 888.397442 541.407401 
L 883.299223 541.407401 
z
" style="fill:#1f77b4;"/>
   </g>
   <g id="patch_68">
    <path clip-path="url(#p945fb6b188)" d="M 893.49566 630 
L 898.593878 630 
L 898.593878 431.048225 
L 893.49566 431.048225 
z
" style="fill:#1f77b4;"/>
   </g>
   <g id="patch_69">
    <path clip-path="url(#p945fb6b188)" d="M 903.692097 630 
L 908.790315 630 
L 908.790315 573.15795 
L 903.692097 573.15795 
z
" style="fill:#1f77b4;"/>
   </g>
   <g id="patch_70">
    <path clip-path="url(#p945fb6b188)" d="M 913.888534 630 
L 918.986752 630 
L 918.986752 579.247399 
L 913.888534 579.247399 
z
" style="fill:#1f77b4;"/>
   </g>
   <g id="patch_71">
    <path clip-path="url(#p945fb6b188)" d="M 924.08497 630 
L 929.183189 630 
L 929.183189 564.747621 
L 924.08497 564.747621 
z
" style="fill:#1f77b4;"/>
   </g>
   <g id="patch_72">
    <path clip-path="url(#p945fb6b188)" d="M 934.281407 630 
L 939.379625 630 
L 939.379625 583.780085 
L 934.281407 583.780085 
z
" style="fill:#1f77b4;"/>
   </g>
   <g id="patch_73">
    <path clip-path="url(#p945fb6b188)" d="M 944.477844 630 
L 949.576062 630 
L 949.576062 434.676987 
L 944.477844 434.676987 
z
" style="fill:#1f77b4;"/>
   </g>
   <g id="patch_74">
    <path clip-path="url(#p945fb6b188)" d="M 954.67428 630 
L 959.772499 630 
L 959.772499 426.346419 
L 954.67428 426.346419 
z
" style="fill:#1f77b4;"/>
   </g>
   <g id="patch_75">
    <path clip-path="url(#p945fb6b188)" d="M 964.870717 630 
L 969.968936 630 
L 969.968936 441.275728 
L 964.870717 441.275728 
z
" style="fill:#1f77b4;"/>
   </g>
   <g id="patch_76">
    <path clip-path="url(#p945fb6b188)" d="M 975.067154 630 
L 980.165372 630 
L 980.165372 440.519173 
L 975.067154 440.519173 
z
" style="fill:#1f77b4;"/>
   </g>
   <g id="patch_77">
    <path clip-path="url(#p945fb6b188)" d="M 985.263591 630 
L 990.361809 630 
L 990.361809 536.149824 
L 985.263591 536.149824 
z
" style="fill:#1f77b4;"/>
   </g>
   <g id="patch_78">
    <path clip-path="url(#p945fb6b188)" d="M 995.460027 630 
L 1000.558246 630 
L 1000.558246 571.829846 
L 995.460027 571.829846 
z
" style="fill:#1f77b4;"/>
   </g>
   <g id="patch_79">
    <path clip-path="url(#p945fb6b188)" d="M 1005.656464 630 
L 1010.754683 630 
L 1010.754683 434.027521 
L 1005.656464 434.027521 
z
" style="fill:#1f77b4;"/>
   </g>
   <g id="patch_80">
    <path clip-path="url(#p945fb6b188)" d="M 1015.852901 630 
L 1020.951119 630 
L 1020.951119 582.165279 
L 1015.852901 582.165279 
z
" style="fill:#1f77b4;"/>
   </g>
   <g id="patch_81">
    <path clip-path="url(#p945fb6b188)" d="M 1026.049338 630 
L 1031.147556 630 
L 1031.147556 437.991137 
L 1026.049338 437.991137 
z
" style="fill:#1f77b4;"/>
   </g>
   <g id="patch_82">
    <path clip-path="url(#p945fb6b188)" d="M 1036.245774 630 
L 1041.343993 630 
L 1041.343993 428.496992 
L 1036.245774 428.496992 
z
" style="fill:#1f77b4;"/>
   </g>
   <g id="patch_83">
    <path clip-path="url(#p945fb6b188)" d="M 1046.442211 630 
L 1051.540429 630 
L 1051.540429 570.431967 
L 1046.442211 570.431967 
z
" style="fill:#1f77b4;"/>
   </g>
   <g id="patch_84">
    <path clip-path="url(#p945fb6b188)" d="M 1056.638648 630 
L 1061.736866 630 
L 1061.736866 534.616677 
L 1056.638648 534.616677 
z
" style="fill:#1f77b4;"/>
   </g>
   <g id="patch_85">
    <path clip-path="url(#p945fb6b188)" d="M 1066.835085 630 
L 1071.933303 630 
L 1071.933303 580.285846 
L 1066.835085 580.285846 
z
" style="fill:#1f77b4;"/>
   </g>
   <g id="patch_86">
    <path clip-path="url(#p945fb6b188)" d="M 1077.031521 630 
L 1082.12974 630 
L 1082.12974 558.554684 
L 1077.031521 558.554684 
z
" style="fill:#1f77b4;"/>
   </g>
   <g id="patch_87">
    <path clip-path="url(#p945fb6b188)" d="M 1087.227958 630 
L 1092.326176 630 
L 1092.326176 437.911063 
L 1087.227958 437.911063 
z
" style="fill:#1f77b4;"/>
   </g>
   <g id="patch_88">
    <path clip-path="url(#p945fb6b188)" d="M 1097.424395 630 
L 1102.522613 630 
L 1102.522613 422.102194 
L 1097.424395 422.102194 
z
" style="fill:#1f77b4;"/>
   </g>
   <g id="patch_89">
    <path clip-path="url(#p945fb6b188)" d="M 1107.620831 630 
L 1112.71905 630 
L 1112.71905 579.241231 
L 1107.620831 579.241231 
z
" style="fill:#1f77b4;"/>
   </g>
   <g id="patch_90">
    <path clip-path="url(#p945fb6b188)" d="M 1117.817268 630 
L 1122.915487 630 
L 1122.915487 430.740536 
L 1117.817268 430.740536 
z
" style="fill:#1f77b4;"/>
   </g>
   <g id="patch_91">
    <path clip-path="url(#p945fb6b188)" d="M 1128.013705 630 
L 1133.111923 630 
L 1133.111923 582.144465 
L 1128.013705 582.144465 
z
" style="fill:#1f77b4;"/>
   </g>
   <g id="patch_92">
    <path clip-path="url(#p945fb6b188)" d="M 1138.210142 630 
L 1143.30836 630 
L 1143.30836 544.170482 
L 1138.210142 544.170482 
z
" style="fill:#1f77b4;"/>
   </g>
   <g id="patch_93">
    <path clip-path="url(#p945fb6b188)" d="M 1148.406578 630 
L 1153.504797 630 
L 1153.504797 583.715454 
L 1148.406578 583.715454 
z
" style="fill:#1f77b4;"/>
   </g>
   <g id="patch_94">
    <path clip-path="url(#p945fb6b188)" d="M 1158.603015 630 
L 1163.701233 630 
L 1163.701233 538.848317 
L 1158.603015 538.848317 
z
" style="fill:#1f77b4;"/>
   </g>
   <g id="patch_95">
    <path clip-path="url(#p945fb6b188)" d="M 1168.799452 630 
L 1173.89767 630 
L 1173.89767 431.403655 
L 1168.799452 431.403655 
z
" style="fill:#1f77b4;"/>
   </g>
   <g id="patch_96">
    <path clip-path="url(#p945fb6b188)" d="M 1178.995889 630 
L 1184.094107 630 
L 1184.094107 583.458032 
L 1178.995889 583.458032 
z
" style="fill:#1f77b4;"/>
   </g>
   <g id="patch_97">
    <path clip-path="url(#p945fb6b188)" d="M 1189.192325 630 
L 1194.290544 630 
L 1194.290544 549.090865 
L 1189.192325 549.090865 
z
" style="fill:#1f77b4;"/>
   </g>
   <g id="patch_98">
    <path clip-path="url(#p945fb6b188)" d="M 1199.388762 630 
L 1204.48698 630 
L 1204.48698 556.8838 
L 1199.388762 556.8838 
z
" style="fill:#1f77b4;"/>
   </g>
   <g id="patch_99">
    <path clip-path="url(#p945fb6b188)" d="M 1209.585199 630 
L 1214.683417 630 
L 1214.683417 581.586612 
L 1209.585199 581.586612 
z
" style="fill:#1f77b4;"/>
   </g>
   <g id="patch_100">
    <path clip-path="url(#p945fb6b188)" d="M 1219.781635 630 
L 1224.879854 630 
L 1224.879854 439.134537 
L 1219.781635 439.134537 
z
" style="fill:#1f77b4;"/>
   </g>
   <g id="patch_101">
    <path clip-path="url(#p945fb6b188)" d="M 1229.978072 630 
L 1235.076291 630 
L 1235.076291 536.938085 
L 1229.978072 536.938085 
z
" style="fill:#1f77b4;"/>
   </g>
   <g id="patch_102">
    <path clip-path="url(#p945fb6b188)" d="M 1240.174509 630 
L 1245.272727 630 
L 1245.272727 574.937217 
L 1240.174509 574.937217 
z
" style="fill:#1f77b4;"/>
   </g>
   <g id="patch_103">
    <path clip-path="url(#p945fb6b188)" d="M 230.727273 581.998617 
L 235.825491 581.998617 
L 235.825491 137.524681 
L 230.727273 137.524681 
z
" style="fill:#ff7f0e;"/>
   </g>
   <g id="patch_104">
    <path clip-path="url(#p945fb6b188)" d="M 240.923709 538.861172 
L 246.021928 538.861172 
L 246.021928 304.119267 
L 240.923709 304.119267 
z
" style="fill:#ff7f0e;"/>
   </g>
   <g id="patch_105">
    <path clip-path="url(#p945fb6b188)" d="M 251.120146 556.100942 
L 256.218365 556.100942 
L 256.218365 324.292413 
L 251.120146 324.292413 
z
" style="fill:#ff7f0e;"/>
   </g>
   <g id="patch_106">
    <path clip-path="url(#p945fb6b188)" d="M 261.316583 562.038516 
L 266.414801 562.038516 
L 266.414801 317.390632 
L 261.316583 317.390632 
z
" style="fill:#ff7f0e;"/>
   </g>
   <g id="patch_107">
    <path clip-path="url(#p945fb6b188)" d="M 271.51302 531.875953 
L 276.611238 531.875953 
L 276.611238 305.009073 
L 271.51302 305.009073 
z
" style="fill:#ff7f0e;"/>
   </g>
   <g id="patch_108">
    <path clip-path="url(#p945fb6b188)" d="M 281.709456 536.525141 
L 286.807675 536.525141 
L 286.807675 292.581055 
L 281.709456 292.581055 
z
" style="fill:#ff7f0e;"/>
   </g>
   <g id="patch_109">
    <path clip-path="url(#p945fb6b188)" d="M 291.905893 570.614827 
L 297.004111 570.614827 
L 297.004111 327.961789 
L 291.905893 327.961789 
z
" style="fill:#ff7f0e;"/>
   </g>
   <g id="patch_110">
    <path clip-path="url(#p945fb6b188)" d="M 302.10233 581.910412 
L 307.200548 581.910412 
L 307.200548 355.004978 
L 302.10233 355.004978 
z
" style="fill:#ff7f0e;"/>
   </g>
   <g id="patch_111">
    <path clip-path="url(#p945fb6b188)" d="M 312.298767 531.894318 
L 317.396985 531.894318 
L 317.396985 307.324862 
L 312.298767 307.324862 
z
" style="fill:#ff7f0e;"/>
   </g>
   <g id="patch_112">
    <path clip-path="url(#p945fb6b188)" d="M 322.495203 583.137672 
L 327.593422 583.137672 
L 327.593422 357.3274 
L 322.495203 357.3274 
z
" style="fill:#ff7f0e;"/>
   </g>
   <g id="patch_113">
    <path clip-path="url(#p945fb6b188)" d="M 332.69164 428.448139 
L 337.789858 428.448139 
L 337.789858 140.566052 
L 332.69164 140.566052 
z
" style="fill:#ff7f0e;"/>
   </g>
   <g id="patch_114">
    <path clip-path="url(#p945fb6b188)" d="M 342.888077 533.87604 
L 347.986295 533.87604 
L 347.986295 306.875359 
L 342.888077 306.875359 
z
" style="fill:#ff7f0e;"/>
   </g>
   <g id="patch_115">
    <path clip-path="url(#p945fb6b188)" d="M 353.084513 574.46717 
L 358.182732 574.46717 
L 358.182732 325.596716 
L 353.084513 325.596716 
z
" style="fill:#ff7f0e;"/>
   </g>
   <g id="patch_116">
    <path clip-path="url(#p945fb6b188)" d="M 363.28095 567.253398 
L 368.379169 567.253398 
L 368.379169 342.942593 
L 363.28095 342.942593 
z
" style="fill:#ff7f0e;"/>
   </g>
   <g id="patch_117">
    <path clip-path="url(#p945fb6b188)" d="M 373.477387 416.502429 
L 378.575605 416.502429 
L 378.575605 144.815303 
L 373.477387 144.815303 
z
" style="fill:#ff7f0e;"/>
   </g>
   <g id="patch_118">
    <path clip-path="url(#p945fb6b188)" d="M 383.673824 423.442797 
L 388.772042 423.442797 
L 388.772042 150.119059 
L 383.673824 150.119059 
z
" style="fill:#ff7f0e;"/>
   </g>
   <g id="patch_119">
    <path clip-path="url(#p945fb6b188)" d="M 393.87026 585.456307 
L 398.968479 585.456307 
L 398.968479 360.124807 
L 393.87026 360.124807 
z
" style="fill:#ff7f0e;"/>
   </g>
   <g id="patch_120">
    <path clip-path="url(#p945fb6b188)" d="M 404.066697 541.357739 
L 409.164915 541.357739 
L 409.164915 315.285914 
L 404.066697 315.285914 
z
" style="fill:#ff7f0e;"/>
   </g>
   <g id="patch_121">
    <path clip-path="url(#p945fb6b188)" d="M 414.263134 517.951282 
L 419.361352 517.951282 
L 419.361352 227.670292 
L 414.263134 227.670292 
z
" style="fill:#ff7f0e;"/>
   </g>
   <g id="patch_122">
    <path clip-path="url(#p945fb6b188)" d="M 424.459571 425.814707 
L 429.557789 425.814707 
L 429.557789 179.983489 
L 424.459571 179.983489 
z
" style="fill:#ff7f0e;"/>
   </g>
   <g id="patch_123">
    <path clip-path="url(#p945fb6b188)" d="M 434.656007 557.075459 
L 439.754226 557.075459 
L 439.754226 312.607998 
L 434.656007 312.607998 
z
" style="fill:#ff7f0e;"/>
   </g>
   <g id="patch_124">
    <path clip-path="url(#p945fb6b188)" d="M 444.852444 582.85208 
L 449.950662 582.85208 
L 449.950662 355.204996 
L 444.852444 355.204996 
z
" style="fill:#ff7f0e;"/>
   </g>
   <g id="patch_125">
    <path clip-path="url(#p945fb6b188)" d="M 455.048881 562.231782 
L 460.147099 562.231782 
L 460.147099 309.197101 
L 455.048881 309.197101 
z
" style="fill:#ff7f0e;"/>
   </g>
   <g id="patch_126">
    <path clip-path="url(#p945fb6b188)" d="M 465.245317 560.57468 
L 470.343536 560.57468 
L 470.343536 315.788961 
L 465.245317 315.788961 
z
" style="fill:#ff7f0e;"/>
   </g>
   <g id="patch_127">
    <path clip-path="url(#p945fb6b188)" d="M 475.441754 567.467855 
L 480.539973 567.467855 
L 480.539973 343.380546 
L 475.441754 343.380546 
z
" style="fill:#ff7f0e;"/>
   </g>
   <g id="patch_128">
    <path clip-path="url(#p945fb6b188)" d="M 485.638191 421.785382 
L 490.736409 421.785382 
L 490.736409 146.665186 
L 485.638191 146.665186 
z
" style="fill:#ff7f0e;"/>
   </g>
   <g id="patch_129">
    <path clip-path="url(#p945fb6b188)" d="M 495.834628 539.265154 
L 500.932846 539.265154 
L 500.932846 313.753523 
L 495.834628 313.753523 
z
" style="fill:#ff7f0e;"/>
   </g>
   <g id="patch_130">
    <path clip-path="url(#p945fb6b188)" d="M 506.031064 582.313941 
L 511.129283 582.313941 
L 511.129283 359.908775 
L 506.031064 359.908775 
z
" style="fill:#ff7f0e;"/>
   </g>
   <g id="patch_131">
    <path clip-path="url(#p945fb6b188)" d="M 516.227501 576.775151 
L 521.32572 576.775151 
L 521.32572 344.170791 
L 516.227501 344.170791 
z
" style="fill:#ff7f0e;"/>
   </g>
   <g id="patch_132">
    <path clip-path="url(#p945fb6b188)" d="M 526.423938 540.08085 
L 531.522156 540.08085 
L 531.522156 315.921275 
L 526.423938 315.921275 
z
" style="fill:#ff7f0e;"/>
   </g>
   <g id="patch_133">
    <path clip-path="url(#p945fb6b188)" d="M 536.620375 557.493364 
L 541.718593 557.493364 
L 541.718593 283.641797 
L 536.620375 283.641797 
z
" style="fill:#ff7f0e;"/>
   </g>
   <g id="patch_134">
    <path clip-path="url(#p945fb6b188)" d="M 546.816811 576.834519 
L 551.91503 576.834519 
L 551.91503 346.583164 
L 546.816811 346.583164 
z
" style="fill:#ff7f0e;"/>
   </g>
   <g id="patch_135">
    <path clip-path="url(#p945fb6b188)" d="M 557.013248 540.964833 
L 562.111466 540.964833 
L 562.111466 315.789403 
L 557.013248 315.789403 
z
" style="fill:#ff7f0e;"/>
   </g>
   <g id="patch_136">
    <path clip-path="url(#p945fb6b188)" d="M 567.209685 417.707581 
L 572.307903 417.707581 
L 572.307903 170.49095 
L 567.209685 170.49095 
z
" style="fill:#ff7f0e;"/>
   </g>
   <g id="patch_137">
    <path clip-path="url(#p945fb6b188)" d="M 577.406122 579.514754 
L 582.50434 579.514754 
L 582.50434 342.832399 
L 577.406122 342.832399 
z
" style="fill:#ff7f0e;"/>
   </g>
   <g id="patch_138">
    <path clip-path="url(#p945fb6b188)" d="M 587.602558 572.72581 
L 592.700777 572.72581 
L 592.700777 331.065429 
L 587.602558 331.065429 
z
" style="fill:#ff7f0e;"/>
   </g>
   <g id="patch_139">
    <path clip-path="url(#p945fb6b188)" d="M 597.798995 427.91579 
L 602.897213 427.91579 
L 602.897213 154.963778 
L 597.798995 154.963778 
z
" style="fill:#ff7f0e;"/>
   </g>
   <g id="patch_140">
    <path clip-path="url(#p945fb6b188)" d="M 607.995432 434.538462 
L 613.09365 434.538462 
L 613.09365 187.262194 
L 607.995432 187.262194 
z
" style="fill:#ff7f0e;"/>
   </g>
   <g id="patch_141">
    <path clip-path="url(#p945fb6b188)" d="M 618.191868 536.262208 
L 623.290087 536.262208 
L 623.290087 310.667957 
L 618.191868 310.667957 
z
" style="fill:#ff7f0e;"/>
   </g>
   <g id="patch_142">
    <path clip-path="url(#p945fb6b188)" d="M 628.388305 539.433433 
L 633.486524 539.433433 
L 633.486524 277.349849 
L 628.388305 277.349849 
z
" style="fill:#ff7f0e;"/>
   </g>
   <g id="patch_143">
    <path clip-path="url(#p945fb6b188)" d="M 638.584742 420.782987 
L 643.68296 420.782987 
L 643.68296 142.236344 
L 638.584742 142.236344 
z
" style="fill:#ff7f0e;"/>
   </g>
   <g id="patch_144">
    <path clip-path="url(#p945fb6b188)" d="M 648.781179 429.551076 
L 653.879397 429.551076 
L 653.879397 157.068118 
L 648.781179 157.068118 
z
" style="fill:#ff7f0e;"/>
   </g>
   <g id="patch_145">
    <path clip-path="url(#p945fb6b188)" d="M 658.977615 583.95368 
L 664.075834 583.95368 
L 664.075834 361.723512 
L 658.977615 361.723512 
z
" style="fill:#ff7f0e;"/>
   </g>
   <g id="patch_146">
    <path clip-path="url(#p945fb6b188)" d="M 669.174052 427.527877 
L 674.27227 427.527877 
L 674.27227 179.429496 
L 669.174052 179.429496 
z
" style="fill:#ff7f0e;"/>
   </g>
   <g id="patch_147">
    <path clip-path="url(#p945fb6b188)" d="M 679.370489 442.281563 
L 684.468707 442.281563 
L 684.468707 152.440531 
L 679.370489 152.440531 
z
" style="fill:#ff7f0e;"/>
   </g>
   <g id="patch_148">
    <path clip-path="url(#p945fb6b188)" d="M 689.566926 534.432675 
L 694.665144 534.432675 
L 694.665144 310.092396 
L 689.566926 310.092396 
z
" style="fill:#ff7f0e;"/>
   </g>
   <g id="patch_149">
    <path clip-path="url(#p945fb6b188)" d="M 699.763362 580.51579 
L 704.861581 580.51579 
L 704.861581 339.856996 
L 699.763362 339.856996 
z
" style="fill:#ff7f0e;"/>
   </g>
   <g id="patch_150">
    <path clip-path="url(#p945fb6b188)" d="M 709.959799 439.594792 
L 715.058017 439.594792 
L 715.058017 120.296353 
L 709.959799 120.296353 
z
" style="fill:#ff7f0e;"/>
   </g>
   <g id="patch_151">
    <path clip-path="url(#p945fb6b188)" d="M 720.156236 567.318158 
L 725.254454 567.318158 
L 725.254454 343.368758 
L 720.156236 343.368758 
z
" style="fill:#ff7f0e;"/>
   </g>
   <g id="patch_152">
    <path clip-path="url(#p945fb6b188)" d="M 730.352672 435.704984 
L 735.450891 435.704984 
L 735.450891 137.039245 
L 730.352672 137.039245 
z
" style="fill:#ff7f0e;"/>
   </g>
   <g id="patch_153">
    <path clip-path="url(#p945fb6b188)" d="M 740.549109 546.495405 
L 745.647328 546.495405 
L 745.647328 254.419208 
L 740.549109 254.419208 
z
" style="fill:#ff7f0e;"/>
   </g>
   <g id="patch_154">
    <path clip-path="url(#p945fb6b188)" d="M 750.745546 534.010737 
L 755.843764 534.010737 
L 755.843764 300.20789 
L 750.745546 300.20789 
z
" style="fill:#ff7f0e;"/>
   </g>
   <g id="patch_155">
    <path clip-path="url(#p945fb6b188)" d="M 760.941983 584.612162 
L 766.040201 584.612162 
L 766.040201 356.460025 
L 760.941983 356.460025 
z
" style="fill:#ff7f0e;"/>
   </g>
   <g id="patch_156">
    <path clip-path="url(#p945fb6b188)" d="M 771.138419 559.12027 
L 776.236638 559.12027 
L 776.236638 304.176488 
L 771.138419 304.176488 
z
" style="fill:#ff7f0e;"/>
   </g>
   <g id="patch_157">
    <path clip-path="url(#p945fb6b188)" d="M 781.334856 559.445073 
L 786.433074 559.445073 
L 786.433074 279.380942 
L 781.334856 279.380942 
z
" style="fill:#ff7f0e;"/>
   </g>
   <g id="patch_158">
    <path clip-path="url(#p945fb6b188)" d="M 791.531293 583.868333 
L 796.629511 583.868333 
L 796.629511 358.456284 
L 791.531293 358.456284 
z
" style="fill:#ff7f0e;"/>
   </g>
   <g id="patch_159">
    <path clip-path="url(#p945fb6b188)" d="M 801.72773 459.413381 
L 806.825948 459.413381 
L 806.825948 145.57877 
L 801.72773 145.57877 
z
" style="fill:#ff7f0e;"/>
   </g>
   <g id="patch_160">
    <path clip-path="url(#p945fb6b188)" d="M 811.924166 539.322042 
L 817.022385 539.322042 
L 817.022385 306.010928 
L 811.924166 306.010928 
z
" style="fill:#ff7f0e;"/>
   </g>
   <g id="patch_161">
    <path clip-path="url(#p945fb6b188)" d="M 822.120603 580.409532 
L 827.218821 580.409532 
L 827.218821 355.493294 
L 822.120603 355.493294 
z
" style="fill:#ff7f0e;"/>
   </g>
   <g id="patch_162">
    <path clip-path="url(#p945fb6b188)" d="M 832.31704 568.623636 
L 837.415258 568.623636 
L 837.415258 341.805189 
L 832.31704 341.805189 
z
" style="fill:#ff7f0e;"/>
   </g>
   <g id="patch_163">
    <path clip-path="url(#p945fb6b188)" d="M 842.513476 432.272303 
L 847.611695 432.272303 
L 847.611695 112.285714 
L 842.513476 112.285714 
z
" style="fill:#ff7f0e;"/>
   </g>
   <g id="patch_164">
    <path clip-path="url(#p945fb6b188)" d="M 852.709913 486.010735 
L 857.808132 486.010735 
L 857.808132 168.944161 
L 852.709913 168.944161 
z
" style="fill:#ff7f0e;"/>
   </g>
   <g id="patch_165">
    <path clip-path="url(#p945fb6b188)" d="M 862.90635 580.57065 
L 868.004568 580.57065 
L 868.004568 356.799861 
L 862.90635 356.799861 
z
" style="fill:#ff7f0e;"/>
   </g>
   <g id="patch_166">
    <path clip-path="url(#p945fb6b188)" d="M 873.102787 443.803321 
L 878.201005 443.803321 
L 878.201005 140.74765 
L 873.102787 140.74765 
z
" style="fill:#ff7f0e;"/>
   </g>
   <g id="patch_167">
    <path clip-path="url(#p945fb6b188)" d="M 883.299223 541.407401 
L 888.397442 541.407401 
L 888.397442 317.974206 
L 883.299223 317.974206 
z
" style="fill:#ff7f0e;"/>
   </g>
   <g id="patch_168">
    <path clip-path="url(#p945fb6b188)" d="M 893.49566 431.048225 
L 898.593878 431.048225 
L 898.593878 134.959062 
L 893.49566 134.959062 
z
" style="fill:#ff7f0e;"/>
   </g>
   <g id="patch_169">
    <path clip-path="url(#p945fb6b188)" d="M 903.692097 573.15795 
L 908.790315 573.15795 
L 908.790315 349.486851 
L 903.692097 349.486851 
z
" style="fill:#ff7f0e;"/>
   </g>
   <g id="patch_170">
    <path clip-path="url(#p945fb6b188)" d="M 913.888534 579.247399 
L 918.986752 579.247399 
L 918.986752 350.961946 
L 913.888534 350.961946 
z
" style="fill:#ff7f0e;"/>
   </g>
   <g id="patch_171">
    <path clip-path="url(#p945fb6b188)" d="M 924.08497 564.747621 
L 929.183189 564.747621 
L 929.183189 306.44433 
L 924.08497 306.44433 
z
" style="fill:#ff7f0e;"/>
   </g>
   <g id="patch_172">
    <path clip-path="url(#p945fb6b188)" d="M 934.281407 583.780085 
L 939.379625 583.780085 
L 939.379625 349.888299 
L 934.281407 349.888299 
z
" style="fill:#ff7f0e;"/>
   </g>
   <g id="patch_173">
    <path clip-path="url(#p945fb6b188)" d="M 944.477844 434.676987 
L 949.576062 434.676987 
L 949.576062 142.611747 
L 944.477844 142.611747 
z
" style="fill:#ff7f0e;"/>
   </g>
   <g id="patch_174">
    <path clip-path="url(#p945fb6b188)" d="M 954.67428 426.346419 
L 959.772499 426.346419 
L 959.772499 136.687675 
L 954.67428 136.687675 
z
" style="fill:#ff7f0e;"/>
   </g>
   <g id="patch_175">
    <path clip-path="url(#p945fb6b188)" d="M 964.870717 441.275728 
L 969.968936 441.275728 
L 969.968936 144.223285 
L 964.870717 144.223285 
z
" style="fill:#ff7f0e;"/>
   </g>
   <g id="patch_176">
    <path clip-path="url(#p945fb6b188)" d="M 975.067154 440.519173 
L 980.165372 440.519173 
L 980.165372 142.74186 
L 975.067154 142.74186 
z
" style="fill:#ff7f0e;"/>
   </g>
   <g id="patch_177">
    <path clip-path="url(#p945fb6b188)" d="M 985.263591 536.149824 
L 990.361809 536.149824 
L 990.361809 288.921115 
L 985.263591 288.921115 
z
" style="fill:#ff7f0e;"/>
   </g>
   <g id="patch_178">
    <path clip-path="url(#p945fb6b188)" d="M 995.460027 571.829846 
L 1000.558246 571.829846 
L 1000.558246 324.510613 
L 995.460027 324.510613 
z
" style="fill:#ff7f0e;"/>
   </g>
   <g id="patch_179">
    <path clip-path="url(#p945fb6b188)" d="M 1005.656464 434.027521 
L 1010.754683 434.027521 
L 1010.754683 183.152999 
L 1005.656464 183.152999 
z
" style="fill:#ff7f0e;"/>
   </g>
   <g id="patch_180">
    <path clip-path="url(#p945fb6b188)" d="M 1015.852901 582.165279 
L 1020.951119 582.165279 
L 1020.951119 314.26442 
L 1015.852901 314.26442 
z
" style="fill:#ff7f0e;"/>
   </g>
   <g id="patch_181">
    <path clip-path="url(#p945fb6b188)" d="M 1026.049338 437.991137 
L 1031.147556 437.991137 
L 1031.147556 154.017872 
L 1026.049338 154.017872 
z
" style="fill:#ff7f0e;"/>
   </g>
   <g id="patch_182">
    <path clip-path="url(#p945fb6b188)" d="M 1036.245774 428.496992 
L 1041.343993 428.496992 
L 1041.343993 147.465342 
L 1036.245774 147.465342 
z
" style="fill:#ff7f0e;"/>
   </g>
   <g id="patch_183">
    <path clip-path="url(#p945fb6b188)" d="M 1046.442211 570.431967 
L 1051.540429 570.431967 
L 1051.540429 342.282343 
L 1046.442211 342.282343 
z
" style="fill:#ff7f0e;"/>
   </g>
   <g id="patch_184">
    <path clip-path="url(#p945fb6b188)" d="M 1056.638648 534.616677 
L 1061.736866 534.616677 
L 1061.736866 299.158281 
L 1056.638648 299.158281 
z
" style="fill:#ff7f0e;"/>
   </g>
   <g id="patch_185">
    <path clip-path="url(#p945fb6b188)" d="M 1066.835085 580.285846 
L 1071.933303 580.285846 
L 1071.933303 345.14506 
L 1066.835085 345.14506 
z
" style="fill:#ff7f0e;"/>
   </g>
   <g id="patch_186">
    <path clip-path="url(#p945fb6b188)" d="M 1077.031521 558.554684 
L 1082.12974 558.554684 
L 1082.12974 311.549524 
L 1077.031521 311.549524 
z
" style="fill:#ff7f0e;"/>
   </g>
   <g id="patch_187">
    <path clip-path="url(#p945fb6b188)" d="M 1087.227958 437.911063 
L 1092.326176 437.911063 
L 1092.326176 143.775767 
L 1087.227958 143.775767 
z
" style="fill:#ff7f0e;"/>
   </g>
   <g id="patch_188">
    <path clip-path="url(#p945fb6b188)" d="M 1097.424395 422.102194 
L 1102.522613 422.102194 
L 1102.522613 140.24071 
L 1097.424395 140.24071 
z
" style="fill:#ff7f0e;"/>
   </g>
   <g id="patch_189">
    <path clip-path="url(#p945fb6b188)" d="M 1107.620831 579.241231 
L 1112.71905 579.241231 
L 1112.71905 344.380773 
L 1107.620831 344.380773 
z
" style="fill:#ff7f0e;"/>
   </g>
   <g id="patch_190">
    <path clip-path="url(#p945fb6b188)" d="M 1117.817268 430.740536 
L 1122.915487 430.740536 
L 1122.915487 140.817295 
L 1117.817268 140.817295 
z
" style="fill:#ff7f0e;"/>
   </g>
   <g id="patch_191">
    <path clip-path="url(#p945fb6b188)" d="M 1128.013705 582.144465 
L 1133.111923 582.144465 
L 1133.111923 351.134345 
L 1128.013705 351.134345 
z
" style="fill:#ff7f0e;"/>
   </g>
   <g id="patch_192">
    <path clip-path="url(#p945fb6b188)" d="M 1138.210142 544.170482 
L 1143.30836 544.170482 
L 1143.30836 286.18245 
L 1138.210142 286.18245 
z
" style="fill:#ff7f0e;"/>
   </g>
   <g id="patch_193">
    <path clip-path="url(#p945fb6b188)" d="M 1148.406578 583.715454 
L 1153.504797 583.715454 
L 1153.504797 351.437622 
L 1148.406578 351.437622 
z
" style="fill:#ff7f0e;"/>
   </g>
   <g id="patch_194">
    <path clip-path="url(#p945fb6b188)" d="M 1158.603015 538.848317 
L 1163.701233 538.848317 
L 1163.701233 312.773031 
L 1158.603015 312.773031 
z
" style="fill:#ff7f0e;"/>
   </g>
   <g id="patch_195">
    <path clip-path="url(#p945fb6b188)" d="M 1168.799452 431.403655 
L 1173.89767 431.403655 
L 1173.89767 140.220101 
L 1168.799452 140.220101 
z
" style="fill:#ff7f0e;"/>
   </g>
   <g id="patch_196">
    <path clip-path="url(#p945fb6b188)" d="M 1178.995889 583.458032 
L 1184.094107 583.458032 
L 1184.094107 360.805526 
L 1178.995889 360.805526 
z
" style="fill:#ff7f0e;"/>
   </g>
   <g id="patch_197">
    <path clip-path="url(#p945fb6b188)" d="M 1189.192325 549.090865 
L 1194.290544 549.090865 
L 1194.290544 285.812169 
L 1189.192325 285.812169 
z
" style="fill:#ff7f0e;"/>
   </g>
   <g id="patch_198">
    <path clip-path="url(#p945fb6b188)" d="M 1199.388762 556.8838 
L 1204.48698 556.8838 
L 1204.48698 278.663092 
L 1199.388762 278.663092 
z
" style="fill:#ff7f0e;"/>
   </g>
   <g id="patch_199">
    <path clip-path="url(#p945fb6b188)" d="M 1209.585199 581.586612 
L 1214.683417 581.586612 
L 1214.683417 339.929628 
L 1209.585199 339.929628 
z
" style="fill:#ff7f0e;"/>
   </g>
   <g id="patch_200">
    <path clip-path="url(#p945fb6b188)" d="M 1219.781635 439.134537 
L 1224.879854 439.134537 
L 1224.879854 133.550119 
L 1219.781635 133.550119 
z
" style="fill:#ff7f0e;"/>
   </g>
   <g id="patch_201">
    <path clip-path="url(#p945fb6b188)" d="M 1229.978072 536.938085 
L 1235.076291 536.938085 
L 1235.076291 310.036264 
L 1229.978072 310.036264 
z
" style="fill:#ff7f0e;"/>
   </g>
   <g id="patch_202">
    <path clip-path="url(#p945fb6b188)" d="M 1240.174509 574.937217 
L 1245.272727 574.937217 
L 1245.272727 347.660877 
L 1240.174509 347.660877 
z
" style="fill:#ff7f0e;"/>
   </g>
   <g id="matplotlib.axis_1"/>
   <g id="matplotlib.axis_2">
    <g id="ytick_1">
     <g id="line2d_1">
      <defs>
       <path d="M 0 0 
L -3.5 0 
" id="m2d6d96203a" style="stroke:#000000;stroke-width:0.8;"/>
      </defs>
      <g>
       <use style="stroke:#000000;stroke-width:0.8;" x="180" xlink:href="#m2d6d96203a" y="630"/>
      </g>
     </g>
     <g id="text_1">
      <!-- 0 -->
      <defs>
       <path d="M 31.78125 66.40625 
Q 24.171875 66.40625 20.328125 58.90625 
Q 16.5 51.421875 16.5 36.375 
Q 16.5 21.390625 20.328125 13.890625 
Q 24.171875 6.390625 31.78125 6.390625 
Q 39.453125 6.390625 43.28125 13.890625 
Q 47.125 21.390625 47.125 36.375 
Q 47.125 51.421875 43.28125 58.90625 
Q 39.453125 66.40625 31.78125 66.40625 
z
M 31.78125 74.21875 
Q 44.046875 74.21875 50.515625 64.515625 
Q 56.984375 54.828125 56.984375 36.375 
Q 56.984375 17.96875 50.515625 8.265625 
Q 44.046875 -1.421875 31.78125 -1.421875 
Q 19.53125 -1.421875 13.0625 8.265625 
Q 6.59375 17.96875 6.59375 36.375 
Q 6.59375 54.828125 13.0625 64.515625 
Q 19.53125 74.21875 31.78125 74.21875 
z
" id="DejaVuSans-30"/>
      </defs>
      <g transform="translate(166.6375 633.799219)scale(0.1 -0.1)">
       <use xlink:href="#DejaVuSans-30"/>
      </g>
     </g>
    </g>
    <g id="ytick_2">
     <g id="line2d_2">
      <g>
       <use style="stroke:#000000;stroke-width:0.8;" x="180" xlink:href="#m2d6d96203a" y="522.156468"/>
      </g>
     </g>
     <g id="text_2">
      <!-- 10 -->
      <defs>
       <path d="M 12.40625 8.296875 
L 28.515625 8.296875 
L 28.515625 63.921875 
L 10.984375 60.40625 
L 10.984375 69.390625 
L 28.421875 72.90625 
L 38.28125 72.90625 
L 38.28125 8.296875 
L 54.390625 8.296875 
L 54.390625 0 
L 12.40625 0 
z
" id="DejaVuSans-31"/>
      </defs>
      <g transform="translate(160.275 525.955687)scale(0.1 -0.1)">
       <use xlink:href="#DejaVuSans-31"/>
       <use x="63.623047" xlink:href="#DejaVuSans-30"/>
      </g>
     </g>
    </g>
    <g id="ytick_3">
     <g id="line2d_3">
      <g>
       <use style="stroke:#000000;stroke-width:0.8;" x="180" xlink:href="#m2d6d96203a" y="414.312936"/>
      </g>
     </g>
     <g id="text_3">
      <!-- 20 -->
      <defs>
       <path d="M 19.1875 8.296875 
L 53.609375 8.296875 
L 53.609375 0 
L 7.328125 0 
L 7.328125 8.296875 
Q 12.9375 14.109375 22.625 23.890625 
Q 32.328125 33.6875 34.8125 36.53125 
Q 39.546875 41.84375 41.421875 45.53125 
Q 43.3125 49.21875 43.3125 52.78125 
Q 43.3125 58.59375 39.234375 62.25 
Q 35.15625 65.921875 28.609375 65.921875 
Q 23.96875 65.921875 18.8125 64.3125 
Q 13.671875 62.703125 7.8125 59.421875 
L 7.8125 69.390625 
Q 13.765625 71.78125 18.9375 73 
Q 24.125 74.21875 28.421875 74.21875 
Q 39.75 74.21875 46.484375 68.546875 
Q 53.21875 62.890625 53.21875 53.421875 
Q 53.21875 48.921875 51.53125 44.890625 
Q 49.859375 40.875 45.40625 35.40625 
Q 44.1875 33.984375 37.640625 27.21875 
Q 31.109375 20.453125 19.1875 8.296875 
z
" id="DejaVuSans-32"/>
      </defs>
      <g transform="translate(160.275 418.112155)scale(0.1 -0.1)">
       <use xlink:href="#DejaVuSans-32"/>
       <use x="63.623047" xlink:href="#DejaVuSans-30"/>
      </g>
     </g>
    </g>
    <g id="ytick_4">
     <g id="line2d_4">
      <g>
       <use style="stroke:#000000;stroke-width:0.8;" x="180" xlink:href="#m2d6d96203a" y="306.469404"/>
      </g>
     </g>
     <g id="text_4">
      <!-- 30 -->
      <defs>
       <path d="M 40.578125 39.3125 
Q 47.65625 37.796875 51.625 33 
Q 55.609375 28.21875 55.609375 21.1875 
Q 55.609375 10.40625 48.1875 4.484375 
Q 40.765625 -1.421875 27.09375 -1.421875 
Q 22.515625 -1.421875 17.65625 -0.515625 
Q 12.796875 0.390625 7.625 2.203125 
L 7.625 11.71875 
Q 11.71875 9.328125 16.59375 8.109375 
Q 21.484375 6.890625 26.8125 6.890625 
Q 36.078125 6.890625 40.9375 10.546875 
Q 45.796875 14.203125 45.796875 21.1875 
Q 45.796875 27.640625 41.28125 31.265625 
Q 36.765625 34.90625 28.71875 34.90625 
L 20.21875 34.90625 
L 20.21875 43.015625 
L 29.109375 43.015625 
Q 36.375 43.015625 40.234375 45.921875 
Q 44.09375 48.828125 44.09375 54.296875 
Q 44.09375 59.90625 40.109375 62.90625 
Q 36.140625 65.921875 28.71875 65.921875 
Q 24.65625 65.921875 20.015625 65.03125 
Q 15.375 64.15625 9.8125 62.3125 
L 9.8125 71.09375 
Q 15.4375 72.65625 20.34375 73.4375 
Q 25.25 74.21875 29.59375 74.21875 
Q 40.828125 74.21875 47.359375 69.109375 
Q 53.90625 64.015625 53.90625 55.328125 
Q 53.90625 49.265625 50.4375 45.09375 
Q 46.96875 40.921875 40.578125 39.3125 
z
" id="DejaVuSans-33"/>
      </defs>
      <g transform="translate(160.275 310.268622)scale(0.1 -0.1)">
       <use xlink:href="#DejaVuSans-33"/>
       <use x="63.623047" xlink:href="#DejaVuSans-30"/>
      </g>
     </g>
    </g>
    <g id="ytick_5">
     <g id="line2d_5">
      <g>
       <use style="stroke:#000000;stroke-width:0.8;" x="180" xlink:href="#m2d6d96203a" y="198.625872"/>
      </g>
     </g>
     <g id="text_5">
      <!-- 40 -->
      <defs>
       <path d="M 37.796875 64.3125 
L 12.890625 25.390625 
L 37.796875 25.390625 
z
M 35.203125 72.90625 
L 47.609375 72.90625 
L 47.609375 25.390625 
L 58.015625 25.390625 
L 58.015625 17.1875 
L 47.609375 17.1875 
L 47.609375 0 
L 37.796875 0 
L 37.796875 17.1875 
L 4.890625 17.1875 
L 4.890625 26.703125 
z
" id="DejaVuSans-34"/>
      </defs>
      <g transform="translate(160.275 202.42509)scale(0.1 -0.1)">
       <use xlink:href="#DejaVuSans-34"/>
       <use x="63.623047" xlink:href="#DejaVuSans-30"/>
      </g>
     </g>
    </g>
    <g id="ytick_6">
     <g id="line2d_6">
      <g>
       <use style="stroke:#000000;stroke-width:0.8;" x="180" xlink:href="#m2d6d96203a" y="90.782339"/>
      </g>
     </g>
     <g id="text_6">
      <!-- 50 -->
      <defs>
       <path d="M 10.796875 72.90625 
L 49.515625 72.90625 
L 49.515625 64.59375 
L 19.828125 64.59375 
L 19.828125 46.734375 
Q 21.96875 47.46875 24.109375 47.828125 
Q 26.265625 48.1875 28.421875 48.1875 
Q 40.625 48.1875 47.75 41.5 
Q 54.890625 34.8125 54.890625 23.390625 
Q 54.890625 11.625 47.5625 5.09375 
Q 40.234375 -1.421875 26.90625 -1.421875 
Q 22.3125 -1.421875 17.546875 -0.640625 
Q 12.796875 0.140625 7.71875 1.703125 
L 7.71875 11.625 
Q 12.109375 9.234375 16.796875 8.0625 
Q 21.484375 6.890625 26.703125 6.890625 
Q 35.15625 6.890625 40.078125 11.328125 
Q 45.015625 15.765625 45.015625 23.390625 
Q 45.015625 31 40.078125 35.4375 
Q 35.15625 39.890625 26.703125 39.890625 
Q 22.75 39.890625 18.8125 39.015625 
Q 14.890625 38.140625 10.796875 36.28125 
z
" id="DejaVuSans-35"/>
      </defs>
      <g transform="translate(160.275 94.581558)scale(0.1 -0.1)">
       <use xlink:href="#DejaVuSans-35"/>
       <use x="63.623047" xlink:href="#DejaVuSans-30"/>
      </g>
     </g>
    </g>
    <g id="text_7">
     <!-- Step Times [ms] -->
     <defs>
      <path d="M 53.515625 70.515625 
L 53.515625 60.890625 
Q 47.90625 63.578125 42.921875 64.890625 
Q 37.9375 66.21875 33.296875 66.21875 
Q 25.25 66.21875 20.875 63.09375 
Q 16.5 59.96875 16.5 54.203125 
Q 16.5 49.359375 19.40625 46.890625 
Q 22.3125 44.4375 30.421875 42.921875 
L 36.375 41.703125 
Q 47.40625 39.59375 52.65625 34.296875 
Q 57.90625 29 57.90625 20.125 
Q 57.90625 9.515625 50.796875 4.046875 
Q 43.703125 -1.421875 29.984375 -1.421875 
Q 24.8125 -1.421875 18.96875 -0.25 
Q 13.140625 0.921875 6.890625 3.21875 
L 6.890625 13.375 
Q 12.890625 10.015625 18.65625 8.296875 
Q 24.421875 6.59375 29.984375 6.59375 
Q 38.421875 6.59375 43.015625 9.90625 
Q 47.609375 13.234375 47.609375 19.390625 
Q 47.609375 24.75 44.3125 27.78125 
Q 41.015625 30.8125 33.5 32.328125 
L 27.484375 33.5 
Q 16.453125 35.6875 11.515625 40.375 
Q 6.59375 45.0625 6.59375 53.421875 
Q 6.59375 63.09375 13.40625 68.65625 
Q 20.21875 74.21875 32.171875 74.21875 
Q 37.3125 74.21875 42.625 73.28125 
Q 47.953125 72.359375 53.515625 70.515625 
z
" id="DejaVuSans-53"/>
      <path d="M 18.3125 70.21875 
L 18.3125 54.6875 
L 36.8125 54.6875 
L 36.8125 47.703125 
L 18.3125 47.703125 
L 18.3125 18.015625 
Q 18.3125 11.328125 20.140625 9.421875 
Q 21.96875 7.515625 27.59375 7.515625 
L 36.8125 7.515625 
L 36.8125 0 
L 27.59375 0 
Q 17.1875 0 13.234375 3.875 
Q 9.28125 7.765625 9.28125 18.015625 
L 9.28125 47.703125 
L 2.6875 47.703125 
L 2.6875 54.6875 
L 9.28125 54.6875 
L 9.28125 70.21875 
z
" id="DejaVuSans-74"/>
      <path d="M 56.203125 29.59375 
L 56.203125 25.203125 
L 14.890625 25.203125 
Q 15.484375 15.921875 20.484375 11.0625 
Q 25.484375 6.203125 34.421875 6.203125 
Q 39.59375 6.203125 44.453125 7.46875 
Q 49.3125 8.734375 54.109375 11.28125 
L 54.109375 2.78125 
Q 49.265625 0.734375 44.1875 -0.34375 
Q 39.109375 -1.421875 33.890625 -1.421875 
Q 20.796875 -1.421875 13.15625 6.1875 
Q 5.515625 13.8125 5.515625 26.8125 
Q 5.515625 40.234375 12.765625 48.109375 
Q 20.015625 56 32.328125 56 
Q 43.359375 56 49.78125 48.890625 
Q 56.203125 41.796875 56.203125 29.59375 
z
M 47.21875 32.234375 
Q 47.125 39.59375 43.09375 43.984375 
Q 39.0625 48.390625 32.421875 48.390625 
Q 24.90625 48.390625 20.390625 44.140625 
Q 15.875 39.890625 15.1875 32.171875 
z
" id="DejaVuSans-65"/>
      <path d="M 18.109375 8.203125 
L 18.109375 -20.796875 
L 9.078125 -20.796875 
L 9.078125 54.6875 
L 18.109375 54.6875 
L 18.109375 46.390625 
Q 20.953125 51.265625 25.265625 53.625 
Q 29.59375 56 35.59375 56 
Q 45.5625 56 51.78125 48.09375 
Q 58.015625 40.1875 58.015625 27.296875 
Q 58.015625 14.40625 51.78125 6.484375 
Q 45.5625 -1.421875 35.59375 -1.421875 
Q 29.59375 -1.421875 25.265625 0.953125 
Q 20.953125 3.328125 18.109375 8.203125 
z
M 48.6875 27.296875 
Q 48.6875 37.203125 44.609375 42.84375 
Q 40.53125 48.484375 33.40625 48.484375 
Q 26.265625 48.484375 22.1875 42.84375 
Q 18.109375 37.203125 18.109375 27.296875 
Q 18.109375 17.390625 22.1875 11.75 
Q 26.265625 6.109375 33.40625 6.109375 
Q 40.53125 6.109375 44.609375 11.75 
Q 48.6875 17.390625 48.6875 27.296875 
z
" id="DejaVuSans-70"/>
      <path id="DejaVuSans-20"/>
      <path d="M -0.296875 72.90625 
L 61.375 72.90625 
L 61.375 64.59375 
L 35.5 64.59375 
L 35.5 0 
L 25.59375 0 
L 25.59375 64.59375 
L -0.296875 64.59375 
z
" id="DejaVuSans-54"/>
      <path d="M 9.421875 54.6875 
L 18.40625 54.6875 
L 18.40625 0 
L 9.421875 0 
z
M 9.421875 75.984375 
L 18.40625 75.984375 
L 18.40625 64.59375 
L 9.421875 64.59375 
z
" id="DejaVuSans-69"/>
      <path d="M 52 44.1875 
Q 55.375 50.25 60.0625 53.125 
Q 64.75 56 71.09375 56 
Q 79.640625 56 84.28125 50.015625 
Q 88.921875 44.046875 88.921875 33.015625 
L 88.921875 0 
L 79.890625 0 
L 79.890625 32.71875 
Q 79.890625 40.578125 77.09375 44.375 
Q 74.3125 48.1875 68.609375 48.1875 
Q 61.625 48.1875 57.5625 43.546875 
Q 53.515625 38.921875 53.515625 30.90625 
L 53.515625 0 
L 44.484375 0 
L 44.484375 32.71875 
Q 44.484375 40.625 41.703125 44.40625 
Q 38.921875 48.1875 33.109375 48.1875 
Q 26.21875 48.1875 22.15625 43.53125 
Q 18.109375 38.875 18.109375 30.90625 
L 18.109375 0 
L 9.078125 0 
L 9.078125 54.6875 
L 18.109375 54.6875 
L 18.109375 46.1875 
Q 21.1875 51.21875 25.484375 53.609375 
Q 29.78125 56 35.6875 56 
Q 41.65625 56 45.828125 52.96875 
Q 50 49.953125 52 44.1875 
z
" id="DejaVuSans-6d"/>
      <path d="M 44.28125 53.078125 
L 44.28125 44.578125 
Q 40.484375 46.53125 36.375 47.5 
Q 32.28125 48.484375 27.875 48.484375 
Q 21.1875 48.484375 17.84375 46.4375 
Q 14.5 44.390625 14.5 40.28125 
Q 14.5 37.15625 16.890625 35.375 
Q 19.28125 33.59375 26.515625 31.984375 
L 29.59375 31.296875 
Q 39.15625 29.25 43.1875 25.515625 
Q 47.21875 21.78125 47.21875 15.09375 
Q 47.21875 7.46875 41.1875 3.015625 
Q 35.15625 -1.421875 24.609375 -1.421875 
Q 20.21875 -1.421875 15.453125 -0.5625 
Q 10.6875 0.296875 5.421875 2 
L 5.421875 11.28125 
Q 10.40625 8.6875 15.234375 7.390625 
Q 20.0625 6.109375 24.8125 6.109375 
Q 31.15625 6.109375 34.5625 8.28125 
Q 37.984375 10.453125 37.984375 14.40625 
Q 37.984375 18.0625 35.515625 20.015625 
Q 33.0625 21.96875 24.703125 23.78125 
L 21.578125 24.515625 
Q 13.234375 26.265625 9.515625 29.90625 
Q 5.8125 33.546875 5.8125 39.890625 
Q 5.8125 47.609375 11.28125 51.796875 
Q 16.75 56 26.8125 56 
Q 31.78125 56 36.171875 55.265625 
Q 40.578125 54.546875 44.28125 53.078125 
z
" id="DejaVuSans-73"/>
      <path d="M 8.59375 75.984375 
L 29.296875 75.984375 
L 29.296875 69 
L 17.578125 69 
L 17.578125 -6.203125 
L 29.296875 -6.203125 
L 29.296875 -13.1875 
L 8.59375 -13.1875 
z
" id="DejaVuSans-5b"/>
      <path d="M 30.421875 75.984375 
L 30.421875 -13.1875 
L 9.71875 -13.1875 
L 9.71875 -6.203125 
L 21.390625 -6.203125 
L 21.390625 69 
L 9.71875 69 
L 9.71875 75.984375 
z
" id="DejaVuSans-5d"/>
     </defs>
     <g transform="translate(154.195312 399.132031)rotate(-90)scale(0.1 -0.1)">
      <use xlink:href="#DejaVuSans-53"/>
      <use x="63.476562" xlink:href="#DejaVuSans-74"/>
      <use x="102.685547" xlink:href="#DejaVuSans-65"/>
      <use x="164.208984" xlink:href="#DejaVuSans-70"/>
      <use x="227.685547" xlink:href="#DejaVuSans-20"/>
      <use x="259.472656" xlink:href="#DejaVuSans-54"/>
      <use x="320.509766" xlink:href="#DejaVuSans-69"/>
      <use x="348.292969" xlink:href="#DejaVuSans-6d"/>
      <use x="445.705078" xlink:href="#DejaVuSans-65"/>
      <use x="507.228516" xlink:href="#DejaVuSans-73"/>
      <use x="559.328125" xlink:href="#DejaVuSans-20"/>
      <use x="591.115234" xlink:href="#DejaVuSans-5b"/>
      <use x="630.128906" xlink:href="#DejaVuSans-6d"/>
      <use x="727.541016" xlink:href="#DejaVuSans-73"/>
      <use x="779.640625" xlink:href="#DejaVuSans-5d"/>
     </g>
    </g>
   </g>
   <g id="line2d_7">
    <path clip-path="url(#p945fb6b188)" d="M 233.276382 522.059409 
L 1242.723618 522.059409 
" style="fill:none;stroke:#000000;stroke-linecap:square;stroke-width:1.5;"/>
   </g>
   <g id="line2d_8">
    <path clip-path="url(#p945fb6b188)" d="M 233.276382 267.376123 
L 1242.723618 267.376123 
" style="fill:none;stroke:#000000;stroke-linecap:square;stroke-width:1.5;"/>
   </g>
   <g id="patch_203">
    <path d="M 180 630 
L 180 86.4 
" style="fill:none;stroke:#000000;stroke-linecap:square;stroke-linejoin:miter;stroke-width:0.8;"/>
   </g>
   <g id="patch_204">
    <path d="M 1296 630 
L 1296 86.4 
" style="fill:none;stroke:#000000;stroke-linecap:square;stroke-linejoin:miter;stroke-width:0.8;"/>
   </g>
   <g id="patch_205">
    <path d="M 180 630 
L 1296 630 
" style="fill:none;stroke:#000000;stroke-linecap:square;stroke-linejoin:miter;stroke-width:0.8;"/>
   </g>
   <g id="patch_206">
    <path d="M 180 86.4 
L 1296 86.4 
" style="fill:none;stroke:#000000;stroke-linecap:square;stroke-linejoin:miter;stroke-width:0.8;"/>
   </g>
   <g id="text_8">
    <!-- Lidar Segmentation 34.326 ms -->
    <defs>
     <path d="M 9.8125 72.90625 
L 19.671875 72.90625 
L 19.671875 8.296875 
L 55.171875 8.296875 
L 55.171875 0 
L 9.8125 0 
z
" id="DejaVuSans-4c"/>
     <path d="M 45.40625 46.390625 
L 45.40625 75.984375 
L 54.390625 75.984375 
L 54.390625 0 
L 45.40625 0 
L 45.40625 8.203125 
Q 42.578125 3.328125 38.25 0.953125 
Q 33.9375 -1.421875 27.875 -1.421875 
Q 17.96875 -1.421875 11.734375 6.484375 
Q 5.515625 14.40625 5.515625 27.296875 
Q 5.515625 40.1875 11.734375 48.09375 
Q 17.96875 56 27.875 56 
Q 33.9375 56 38.25 53.625 
Q 42.578125 51.265625 45.40625 46.390625 
z
M 14.796875 27.296875 
Q 14.796875 17.390625 18.875 11.75 
Q 22.953125 6.109375 30.078125 6.109375 
Q 37.203125 6.109375 41.296875 11.75 
Q 45.40625 17.390625 45.40625 27.296875 
Q 45.40625 37.203125 41.296875 42.84375 
Q 37.203125 48.484375 30.078125 48.484375 
Q 22.953125 48.484375 18.875 42.84375 
Q 14.796875 37.203125 14.796875 27.296875 
z
" id="DejaVuSans-64"/>
     <path d="M 34.28125 27.484375 
Q 23.390625 27.484375 19.1875 25 
Q 14.984375 22.515625 14.984375 16.5 
Q 14.984375 11.71875 18.140625 8.90625 
Q 21.296875 6.109375 26.703125 6.109375 
Q 34.1875 6.109375 38.703125 11.40625 
Q 43.21875 16.703125 43.21875 25.484375 
L 43.21875 27.484375 
z
M 52.203125 31.203125 
L 52.203125 0 
L 43.21875 0 
L 43.21875 8.296875 
Q 40.140625 3.328125 35.546875 0.953125 
Q 30.953125 -1.421875 24.3125 -1.421875 
Q 15.921875 -1.421875 10.953125 3.296875 
Q 6 8.015625 6 15.921875 
Q 6 25.140625 12.171875 29.828125 
Q 18.359375 34.515625 30.609375 34.515625 
L 43.21875 34.515625 
L 43.21875 35.40625 
Q 43.21875 41.609375 39.140625 45 
Q 35.0625 48.390625 27.6875 48.390625 
Q 23 48.390625 18.546875 47.265625 
Q 14.109375 46.140625 10.015625 43.890625 
L 10.015625 52.203125 
Q 14.9375 54.109375 19.578125 55.046875 
Q 24.21875 56 28.609375 56 
Q 40.484375 56 46.34375 49.84375 
Q 52.203125 43.703125 52.203125 31.203125 
z
" id="DejaVuSans-61"/>
     <path d="M 41.109375 46.296875 
Q 39.59375 47.171875 37.8125 47.578125 
Q 36.03125 48 33.890625 48 
Q 26.265625 48 22.1875 43.046875 
Q 18.109375 38.09375 18.109375 28.8125 
L 18.109375 0 
L 9.078125 0 
L 9.078125 54.6875 
L 18.109375 54.6875 
L 18.109375 46.1875 
Q 20.953125 51.171875 25.484375 53.578125 
Q 30.03125 56 36.53125 56 
Q 37.453125 56 38.578125 55.875 
Q 39.703125 55.765625 41.0625 55.515625 
z
" id="DejaVuSans-72"/>
     <path d="M 45.40625 27.984375 
Q 45.40625 37.75 41.375 43.109375 
Q 37.359375 48.484375 30.078125 48.484375 
Q 22.859375 48.484375 18.828125 43.109375 
Q 14.796875 37.75 14.796875 27.984375 
Q 14.796875 18.265625 18.828125 12.890625 
Q 22.859375 7.515625 30.078125 7.515625 
Q 37.359375 7.515625 41.375 12.890625 
Q 45.40625 18.265625 45.40625 27.984375 
z
M 54.390625 6.78125 
Q 54.390625 -7.171875 48.1875 -13.984375 
Q 42 -20.796875 29.203125 -20.796875 
Q 24.46875 -20.796875 20.265625 -20.09375 
Q 16.0625 -19.390625 12.109375 -17.921875 
L 12.109375 -9.1875 
Q 16.0625 -11.328125 19.921875 -12.34375 
Q 23.78125 -13.375 27.78125 -13.375 
Q 36.625 -13.375 41.015625 -8.765625 
Q 45.40625 -4.15625 45.40625 5.171875 
L 45.40625 9.625 
Q 42.625 4.78125 38.28125 2.390625 
Q 33.9375 0 27.875 0 
Q 17.828125 0 11.671875 7.65625 
Q 5.515625 15.328125 5.515625 27.984375 
Q 5.515625 40.671875 11.671875 48.328125 
Q 17.828125 56 27.875 56 
Q 33.9375 56 38.28125 53.609375 
Q 42.625 51.21875 45.40625 46.390625 
L 45.40625 54.6875 
L 54.390625 54.6875 
z
" id="DejaVuSans-67"/>
     <path d="M 54.890625 33.015625 
L 54.890625 0 
L 45.90625 0 
L 45.90625 32.71875 
Q 45.90625 40.484375 42.875 44.328125 
Q 39.84375 48.1875 33.796875 48.1875 
Q 26.515625 48.1875 22.3125 43.546875 
Q 18.109375 38.921875 18.109375 30.90625 
L 18.109375 0 
L 9.078125 0 
L 9.078125 54.6875 
L 18.109375 54.6875 
L 18.109375 46.1875 
Q 21.34375 51.125 25.703125 53.5625 
Q 30.078125 56 35.796875 56 
Q 45.21875 56 50.046875 50.171875 
Q 54.890625 44.34375 54.890625 33.015625 
z
" id="DejaVuSans-6e"/>
     <path d="M 30.609375 48.390625 
Q 23.390625 48.390625 19.1875 42.75 
Q 14.984375 37.109375 14.984375 27.296875 
Q 14.984375 17.484375 19.15625 11.84375 
Q 23.34375 6.203125 30.609375 6.203125 
Q 37.796875 6.203125 41.984375 11.859375 
Q 46.1875 17.53125 46.1875 27.296875 
Q 46.1875 37.015625 41.984375 42.703125 
Q 37.796875 48.390625 30.609375 48.390625 
z
M 30.609375 56 
Q 42.328125 56 49.015625 48.375 
Q 55.71875 40.765625 55.71875 27.296875 
Q 55.71875 13.875 49.015625 6.21875 
Q 42.328125 -1.421875 30.609375 -1.421875 
Q 18.84375 -1.421875 12.171875 6.21875 
Q 5.515625 13.875 5.515625 27.296875 
Q 5.515625 40.765625 12.171875 48.375 
Q 18.84375 56 30.609375 56 
z
" id="DejaVuSans-6f"/>
     <path d="M 10.6875 12.40625 
L 21 12.40625 
L 21 0 
L 10.6875 0 
z
" id="DejaVuSans-2e"/>
     <path d="M 33.015625 40.375 
Q 26.375 40.375 22.484375 35.828125 
Q 18.609375 31.296875 18.609375 23.390625 
Q 18.609375 15.53125 22.484375 10.953125 
Q 26.375 6.390625 33.015625 6.390625 
Q 39.65625 6.390625 43.53125 10.953125 
Q 47.40625 15.53125 47.40625 23.390625 
Q 47.40625 31.296875 43.53125 35.828125 
Q 39.65625 40.375 33.015625 40.375 
z
M 52.59375 71.296875 
L 52.59375 62.3125 
Q 48.875 64.0625 45.09375 64.984375 
Q 41.3125 65.921875 37.59375 65.921875 
Q 27.828125 65.921875 22.671875 59.328125 
Q 17.53125 52.734375 16.796875 39.40625 
Q 19.671875 43.65625 24.015625 45.921875 
Q 28.375 48.1875 33.59375 48.1875 
Q 44.578125 48.1875 50.953125 41.515625 
Q 57.328125 34.859375 57.328125 23.390625 
Q 57.328125 12.15625 50.6875 5.359375 
Q 44.046875 -1.421875 33.015625 -1.421875 
Q 20.359375 -1.421875 13.671875 8.265625 
Q 6.984375 17.96875 6.984375 36.375 
Q 6.984375 53.65625 15.1875 63.9375 
Q 23.390625 74.21875 37.203125 74.21875 
Q 40.921875 74.21875 44.703125 73.484375 
Q 48.484375 72.75 52.59375 71.296875 
z
" id="DejaVuSans-36"/>
    </defs>
    <g transform="translate(645.181875 80.4)scale(0.12 -0.12)">
     <use xlink:href="#DejaVuSans-4c"/>
     <use x="55.712891" xlink:href="#DejaVuSans-69"/>
     <use x="83.496094" xlink:href="#DejaVuSans-64"/>
     <use x="146.972656" xlink:href="#DejaVuSans-61"/>
     <use x="208.251953" xlink:href="#DejaVuSans-72"/>
     <use x="249.365234" xlink:href="#DejaVuSans-20"/>
     <use x="281.152344" xlink:href="#DejaVuSans-53"/>
     <use x="344.628906" xlink:href="#DejaVuSans-65"/>
     <use x="406.152344" xlink:href="#DejaVuSans-67"/>
     <use x="469.628906" xlink:href="#DejaVuSans-6d"/>
     <use x="567.041016" xlink:href="#DejaVuSans-65"/>
     <use x="628.564453" xlink:href="#DejaVuSans-6e"/>
     <use x="691.943359" xlink:href="#DejaVuSans-74"/>
     <use x="731.152344" xlink:href="#DejaVuSans-61"/>
     <use x="792.431641" xlink:href="#DejaVuSans-74"/>
     <use x="831.640625" xlink:href="#DejaVuSans-69"/>
     <use x="859.423828" xlink:href="#DejaVuSans-6f"/>
     <use x="920.605469" xlink:href="#DejaVuSans-6e"/>
     <use x="983.984375" xlink:href="#DejaVuSans-20"/>
     <use x="1015.771484" xlink:href="#DejaVuSans-33"/>
     <use x="1079.394531" xlink:href="#DejaVuSans-34"/>
     <use x="1143.017578" xlink:href="#DejaVuSans-2e"/>
     <use x="1174.804688" xlink:href="#DejaVuSans-33"/>
     <use x="1238.427734" xlink:href="#DejaVuSans-32"/>
     <use x="1302.050781" xlink:href="#DejaVuSans-36"/>
     <use x="1365.673828" xlink:href="#DejaVuSans-20"/>
     <use x="1397.460938" xlink:href="#DejaVuSans-6d"/>
     <use x="1494.873047" xlink:href="#DejaVuSans-73"/>
    </g>
   </g>
   <g id="legend_1">
    <g id="patch_207">
     <path d="M 1041.934375 123.75625 
L 1289 123.75625 
Q 1291 123.75625 1291 121.75625 
L 1291 93.4 
Q 1291 91.4 1289 91.4 
L 1041.934375 91.4 
Q 1039.934375 91.4 1039.934375 93.4 
L 1039.934375 121.75625 
Q 1039.934375 123.75625 1041.934375 123.75625 
z
" style="fill:#ffffff;opacity:0.8;stroke:#cccccc;stroke-linejoin:miter;"/>
    </g>
    <g id="patch_208">
     <path d="M 1043.934375 102.998437 
L 1063.934375 102.998437 
L 1063.934375 95.998437 
L 1043.934375 95.998437 
z
" style="fill:#1f77b4;"/>
    </g>
    <g id="text_9">
     <!-- CloudPreprocessor::Preprocess: 10.009 ms -->
     <defs>
      <path d="M 64.40625 67.28125 
L 64.40625 56.890625 
Q 59.421875 61.53125 53.78125 63.8125 
Q 48.140625 66.109375 41.796875 66.109375 
Q 29.296875 66.109375 22.65625 58.46875 
Q 16.015625 50.828125 16.015625 36.375 
Q 16.015625 21.96875 22.65625 14.328125 
Q 29.296875 6.6875 41.796875 6.6875 
Q 48.140625 6.6875 53.78125 8.984375 
Q 59.421875 11.28125 64.40625 15.921875 
L 64.40625 5.609375 
Q 59.234375 2.09375 53.4375 0.328125 
Q 47.65625 -1.421875 41.21875 -1.421875 
Q 24.65625 -1.421875 15.125 8.703125 
Q 5.609375 18.84375 5.609375 36.375 
Q 5.609375 53.953125 15.125 64.078125 
Q 24.65625 74.21875 41.21875 74.21875 
Q 47.75 74.21875 53.53125 72.484375 
Q 59.328125 70.75 64.40625 67.28125 
z
" id="DejaVuSans-43"/>
      <path d="M 9.421875 75.984375 
L 18.40625 75.984375 
L 18.40625 0 
L 9.421875 0 
z
" id="DejaVuSans-6c"/>
      <path d="M 8.5 21.578125 
L 8.5 54.6875 
L 17.484375 54.6875 
L 17.484375 21.921875 
Q 17.484375 14.15625 20.5 10.265625 
Q 23.53125 6.390625 29.59375 6.390625 
Q 36.859375 6.390625 41.078125 11.03125 
Q 45.3125 15.671875 45.3125 23.6875 
L 45.3125 54.6875 
L 54.296875 54.6875 
L 54.296875 0 
L 45.3125 0 
L 45.3125 8.40625 
Q 42.046875 3.421875 37.71875 1 
Q 33.40625 -1.421875 27.6875 -1.421875 
Q 18.265625 -1.421875 13.375 4.4375 
Q 8.5 10.296875 8.5 21.578125 
z
M 31.109375 56 
z
" id="DejaVuSans-75"/>
      <path d="M 19.671875 64.796875 
L 19.671875 37.40625 
L 32.078125 37.40625 
Q 38.96875 37.40625 42.71875 40.96875 
Q 46.484375 44.53125 46.484375 51.125 
Q 46.484375 57.671875 42.71875 61.234375 
Q 38.96875 64.796875 32.078125 64.796875 
z
M 9.8125 72.90625 
L 32.078125 72.90625 
Q 44.34375 72.90625 50.609375 67.359375 
Q 56.890625 61.8125 56.890625 51.125 
Q 56.890625 40.328125 50.609375 34.8125 
Q 44.34375 29.296875 32.078125 29.296875 
L 19.671875 29.296875 
L 19.671875 0 
L 9.8125 0 
z
" id="DejaVuSans-50"/>
      <path d="M 48.78125 52.59375 
L 48.78125 44.1875 
Q 44.96875 46.296875 41.140625 47.34375 
Q 37.3125 48.390625 33.40625 48.390625 
Q 24.65625 48.390625 19.8125 42.84375 
Q 14.984375 37.3125 14.984375 27.296875 
Q 14.984375 17.28125 19.8125 11.734375 
Q 24.65625 6.203125 33.40625 6.203125 
Q 37.3125 6.203125 41.140625 7.25 
Q 44.96875 8.296875 48.78125 10.40625 
L 48.78125 2.09375 
Q 45.015625 0.34375 40.984375 -0.53125 
Q 36.96875 -1.421875 32.421875 -1.421875 
Q 20.0625 -1.421875 12.78125 6.34375 
Q 5.515625 14.109375 5.515625 27.296875 
Q 5.515625 40.671875 12.859375 48.328125 
Q 20.21875 56 33.015625 56 
Q 37.15625 56 41.109375 55.140625 
Q 45.0625 54.296875 48.78125 52.59375 
z
" id="DejaVuSans-63"/>
      <path d="M 11.71875 12.40625 
L 22.015625 12.40625 
L 22.015625 0 
L 11.71875 0 
z
M 11.71875 51.703125 
L 22.015625 51.703125 
L 22.015625 39.3125 
L 11.71875 39.3125 
z
" id="DejaVuSans-3a"/>
      <path d="M 10.984375 1.515625 
L 10.984375 10.5 
Q 14.703125 8.734375 18.5 7.8125 
Q 22.3125 6.890625 25.984375 6.890625 
Q 35.75 6.890625 40.890625 13.453125 
Q 46.046875 20.015625 46.78125 33.40625 
Q 43.953125 29.203125 39.59375 26.953125 
Q 35.25 24.703125 29.984375 24.703125 
Q 19.046875 24.703125 12.671875 31.3125 
Q 6.296875 37.9375 6.296875 49.421875 
Q 6.296875 60.640625 12.9375 67.421875 
Q 19.578125 74.21875 30.609375 74.21875 
Q 43.265625 74.21875 49.921875 64.515625 
Q 56.59375 54.828125 56.59375 36.375 
Q 56.59375 19.140625 48.40625 8.859375 
Q 40.234375 -1.421875 26.421875 -1.421875 
Q 22.703125 -1.421875 18.890625 -0.6875 
Q 15.09375 0.046875 10.984375 1.515625 
z
M 30.609375 32.421875 
Q 37.25 32.421875 41.125 36.953125 
Q 45.015625 41.5 45.015625 49.421875 
Q 45.015625 57.28125 41.125 61.84375 
Q 37.25 66.40625 30.609375 66.40625 
Q 23.96875 66.40625 20.09375 61.84375 
Q 16.21875 57.28125 16.21875 49.421875 
Q 16.21875 41.5 20.09375 36.953125 
Q 23.96875 32.421875 30.609375 32.421875 
z
" id="DejaVuSans-39"/>
     </defs>
     <g transform="translate(1071.934375 102.998437)scale(0.1 -0.1)">
      <use xlink:href="#DejaVuSans-43"/>
      <use x="69.824219" xlink:href="#DejaVuSans-6c"/>
      <use x="97.607422" xlink:href="#DejaVuSans-6f"/>
      <use x="158.789062" xlink:href="#DejaVuSans-75"/>
      <use x="222.167969" xlink:href="#DejaVuSans-64"/>
      <use x="285.644531" xlink:href="#DejaVuSans-50"/>
      <use x="345.931641" xlink:href="#DejaVuSans-72"/>
      <use x="387.013672" xlink:href="#DejaVuSans-65"/>
      <use x="448.537109" xlink:href="#DejaVuSans-70"/>
      <use x="512.013672" xlink:href="#DejaVuSans-72"/>
      <use x="553.095703" xlink:href="#DejaVuSans-6f"/>
      <use x="614.277344" xlink:href="#DejaVuSans-63"/>
      <use x="669.257812" xlink:href="#DejaVuSans-65"/>
      <use x="730.78125" xlink:href="#DejaVuSans-73"/>
      <use x="782.880859" xlink:href="#DejaVuSans-73"/>
      <use x="834.980469" xlink:href="#DejaVuSans-6f"/>
      <use x="896.162109" xlink:href="#DejaVuSans-72"/>
      <use x="937.259766" xlink:href="#DejaVuSans-3a"/>
      <use x="970.951172" xlink:href="#DejaVuSans-3a"/>
      <use x="1004.642578" xlink:href="#DejaVuSans-50"/>
      <use x="1064.929688" xlink:href="#DejaVuSans-72"/>
      <use x="1106.011719" xlink:href="#DejaVuSans-65"/>
      <use x="1167.535156" xlink:href="#DejaVuSans-70"/>
      <use x="1231.011719" xlink:href="#DejaVuSans-72"/>
      <use x="1272.09375" xlink:href="#DejaVuSans-6f"/>
      <use x="1333.275391" xlink:href="#DejaVuSans-63"/>
      <use x="1388.255859" xlink:href="#DejaVuSans-65"/>
      <use x="1449.779297" xlink:href="#DejaVuSans-73"/>
      <use x="1501.878906" xlink:href="#DejaVuSans-73"/>
      <use x="1553.978516" xlink:href="#DejaVuSans-3a"/>
      <use x="1587.669922" xlink:href="#DejaVuSans-20"/>
      <use x="1619.457031" xlink:href="#DejaVuSans-31"/>
      <use x="1683.080078" xlink:href="#DejaVuSans-30"/>
      <use x="1746.703125" xlink:href="#DejaVuSans-2e"/>
      <use x="1778.490234" xlink:href="#DejaVuSans-30"/>
      <use x="1842.113281" xlink:href="#DejaVuSans-30"/>
      <use x="1905.736328" xlink:href="#DejaVuSans-39"/>
      <use x="1969.359375" xlink:href="#DejaVuSans-20"/>
      <use x="2001.146484" xlink:href="#DejaVuSans-6d"/>
      <use x="2098.558594" xlink:href="#DejaVuSans-73"/>
     </g>
    </g>
    <g id="patch_209">
     <path d="M 1043.934375 117.676562 
L 1063.934375 117.676562 
L 1063.934375 110.676562 
L 1043.934375 110.676562 
z
" style="fill:#ff7f0e;"/>
    </g>
    <g id="text_10">
     <!-- Segmentor::Segment: 23.616 ms -->
     <g transform="translate(1071.934375 117.676562)scale(0.1 -0.1)">
      <use xlink:href="#DejaVuSans-53"/>
      <use x="63.476562" xlink:href="#DejaVuSans-65"/>
      <use x="125" xlink:href="#DejaVuSans-67"/>
      <use x="188.476562" xlink:href="#DejaVuSans-6d"/>
      <use x="285.888672" xlink:href="#DejaVuSans-65"/>
      <use x="347.412109" xlink:href="#DejaVuSans-6e"/>
      <use x="410.791016" xlink:href="#DejaVuSans-74"/>
      <use x="450" xlink:href="#DejaVuSans-6f"/>
      <use x="511.181641" xlink:href="#DejaVuSans-72"/>
      <use x="552.279297" xlink:href="#DejaVuSans-3a"/>
      <use x="585.970703" xlink:href="#DejaVuSans-3a"/>
      <use x="619.662109" xlink:href="#DejaVuSans-53"/>
      <use x="683.138672" xlink:href="#DejaVuSans-65"/>
      <use x="744.662109" xlink:href="#DejaVuSans-67"/>
      <use x="808.138672" xlink:href="#DejaVuSans-6d"/>
      <use x="905.550781" xlink:href="#DejaVuSans-65"/>
      <use x="967.074219" xlink:href="#DejaVuSans-6e"/>
      <use x="1030.453125" xlink:href="#DejaVuSans-74"/>
      <use x="1069.662109" xlink:href="#DejaVuSans-3a"/>
      <use x="1103.353516" xlink:href="#DejaVuSans-20"/>
      <use x="1135.140625" xlink:href="#DejaVuSans-32"/>
      <use x="1198.763672" xlink:href="#DejaVuSans-33"/>
      <use x="1262.386719" xlink:href="#DejaVuSans-2e"/>
      <use x="1294.173828" xlink:href="#DejaVuSans-36"/>
      <use x="1357.796875" xlink:href="#DejaVuSans-31"/>
      <use x="1421.419922" xlink:href="#DejaVuSans-36"/>
      <use x="1485.042969" xlink:href="#DejaVuSans-20"/>
      <use x="1516.830078" xlink:href="#DejaVuSans-6d"/>
      <use x="1614.242188" xlink:href="#DejaVuSans-73"/>
     </g>
    </g>
   </g>
  </g>
 </g>
 <defs>
  <clipPath id="p945fb6b188">
   <rect height="543.6" width="1116" x="180" y="86.4"/>
  </clipPath>
 </defs>
</svg>
