<?xml version="1.0" encoding="utf-8" standalone="no"?>
<!DOCTYPE svg PUBLIC "-//W3C//DTD SVG 1.1//EN"
  "http://www.w3.org/Graphics/SVG/1.1/DTD/svg11.dtd">
<!-- Created with matplotlib (http://matplotlib.org/) -->
<svg height="720pt" version="1.1" viewBox="0 0 1440 720" width="1440pt" xmlns="http://www.w3.org/2000/svg" xmlns:xlink="http://www.w3.org/1999/xlink">
 <defs>
  <style type="text/css">
*{stroke-linecap:butt;stroke-linejoin:round;}
  </style>
 </defs>
 <g id="figure_1">
  <g id="patch_1">
   <path d="M 0 720 
L 1440 720 
L 1440 0 
L 0 0 
z
" style="fill:#ffffff;"/>
  </g>
  <g id="axes_1">
   <g id="patch_2">
    <path d="M 180 630 
L 1296 630 
L 1296 86.4 
L 180 86.4 
z
" style="fill:#ffffff;"/>
   </g>
   <g id="patch_3">
    <path clip-path="url(#pf917fe2577)" d="M 230.727273 630 
L 236.332496 630 
L 236.332496 547.994572 
L 230.727273 547.994572 
z
" style="fill:#1f77b4;"/>
   </g>
   <g id="patch_4">
    <path clip-path="url(#pf917fe2577)" d="M 241.93772 630 
L 247.542943 630 
L 247.542943 434.666782 
L 241.93772 434.666782 
z
" style="fill:#1f77b4;"/>
   </g>
   <g id="patch_5">
    <path clip-path="url(#pf917fe2577)" d="M 253.148167 630 
L 258.75339 630 
L 258.75339 611.707137 
L 253.148167 611.707137 
z
" style="fill:#1f77b4;"/>
   </g>
   <g id="patch_6">
    <path clip-path="url(#pf917fe2577)" d="M 264.358614 630 
L 269.963837 630 
L 269.963837 559.125278 
L 264.358614 559.125278 
z
" style="fill:#1f77b4;"/>
   </g>
   <g id="patch_7">
    <path clip-path="url(#pf917fe2577)" d="M 275.569061 630 
L 281.174284 630 
L 281.174284 574.160078 
L 275.569061 574.160078 
z
" style="fill:#1f77b4;"/>
   </g>
   <g id="patch_8">
    <path clip-path="url(#pf917fe2577)" d="M 286.779508 630 
L 292.384731 630 
L 292.384731 366.055003 
L 286.779508 366.055003 
z
" style="fill:#1f77b4;"/>
   </g>
   <g id="patch_9">
    <path clip-path="url(#pf917fe2577)" d="M 297.989955 630 
L 303.595178 630 
L 303.595178 530.803706 
L 297.989955 530.803706 
z
" style="fill:#1f77b4;"/>
   </g>
   <g id="patch_10">
    <path clip-path="url(#pf917fe2577)" d="M 309.200402 630 
L 314.805625 630 
L 314.805625 554.39207 
L 309.200402 554.39207 
z
" style="fill:#1f77b4;"/>
   </g>
   <g id="patch_11">
    <path clip-path="url(#pf917fe2577)" d="M 320.410849 630 
L 326.016072 630 
L 326.016072 560.225899 
L 320.410849 560.225899 
z
" style="fill:#1f77b4;"/>
   </g>
   <g id="patch_12">
    <path clip-path="url(#pf917fe2577)" d="M 331.621296 630 
L 337.226519 630 
L 337.226519 593.056093 
L 331.621296 593.056093 
z
" style="fill:#1f77b4;"/>
   </g>
   <g id="patch_13">
    <path clip-path="url(#pf917fe2577)" d="M 342.831743 630 
L 348.436966 630 
L 348.436966 115.848705 
L 342.831743 115.848705 
z
" style="fill:#1f77b4;"/>
   </g>
   <g id="patch_14">
    <path clip-path="url(#pf917fe2577)" d="M 354.04219 630 
L 359.647413 630 
L 359.647413 589.936307 
L 354.04219 589.936307 
z
" style="fill:#1f77b4;"/>
   </g>
   <g id="patch_15">
    <path clip-path="url(#pf917fe2577)" d="M 365.252637 630 
L 370.85786 630 
L 370.85786 525.321265 
L 365.252637 525.321265 
z
" style="fill:#1f77b4;"/>
   </g>
   <g id="patch_16">
    <path clip-path="url(#pf917fe2577)" d="M 376.463084 630 
L 382.068307 630 
L 382.068307 371.209655 
L 376.463084 371.209655 
z
" style="fill:#1f77b4;"/>
   </g>
   <g id="patch_17">
    <path clip-path="url(#pf917fe2577)" d="M 387.673531 630 
L 393.278754 630 
L 393.278754 483.365115 
L 387.673531 483.365115 
z
" style="fill:#1f77b4;"/>
   </g>
   <g id="patch_18">
    <path clip-path="url(#pf917fe2577)" d="M 398.883978 630 
L 404.489201 630 
L 404.489201 579.31473 
L 398.883978 579.31473 
z
" style="fill:#1f77b4;"/>
   </g>
   <g id="patch_19">
    <path clip-path="url(#pf917fe2577)" d="M 410.094425 630 
L 415.699648 630 
L 415.699648 600.468177 
L 410.094425 600.468177 
z
" style="fill:#1f77b4;"/>
   </g>
   <g id="patch_20">
    <path clip-path="url(#pf917fe2577)" d="M 421.304872 630 
L 426.910095 630 
L 426.910095 532.730044 
L 421.304872 532.730044 
z
" style="fill:#1f77b4;"/>
   </g>
   <g id="patch_21">
    <path clip-path="url(#pf917fe2577)" d="M 432.515319 630 
L 438.120542 630 
L 438.120542 540.264247 
L 432.515319 540.264247 
z
" style="fill:#1f77b4;"/>
   </g>
   <g id="patch_22">
    <path clip-path="url(#pf917fe2577)" d="M 443.725766 630 
L 449.330989 630 
L 449.330989 540.754462 
L 443.725766 540.754462 
z
" style="fill:#1f77b4;"/>
   </g>
   <g id="patch_23">
    <path clip-path="url(#pf917fe2577)" d="M 454.936213 630 
L 460.541436 630 
L 460.541436 554.040132 
L 454.936213 554.040132 
z
" style="fill:#1f77b4;"/>
   </g>
   <g id="patch_24">
    <path clip-path="url(#pf917fe2577)" d="M 466.14666 630 
L 471.751883 630 
L 471.751883 401.858441 
L 466.14666 401.858441 
z
" style="fill:#1f77b4;"/>
   </g>
   <g id="patch_25">
    <path clip-path="url(#pf917fe2577)" d="M 477.357107 630 
L 482.96233 630 
L 482.96233 590.984683 
L 477.357107 590.984683 
z
" style="fill:#1f77b4;"/>
   </g>
   <g id="patch_26">
    <path clip-path="url(#pf917fe2577)" d="M 488.567554 630 
L 494.172777 630 
L 494.172777 465.019915 
L 488.567554 465.019915 
z
" style="fill:#1f77b4;"/>
   </g>
   <g id="patch_27">
    <path clip-path="url(#pf917fe2577)" d="M 499.778001 630 
L 505.383225 630 
L 505.383225 607.205677 
L 499.778001 607.205677 
z
" style="fill:#1f77b4;"/>
   </g>
   <g id="patch_28">
    <path clip-path="url(#pf917fe2577)" d="M 510.988448 630 
L 516.593672 630 
L 516.593672 577.142045 
L 510.988448 577.142045 
z
" style="fill:#1f77b4;"/>
   </g>
   <g id="patch_29">
    <path clip-path="url(#pf917fe2577)" d="M 522.198895 630 
L 527.804119 630 
L 527.804119 510.292525 
L 522.198895 510.292525 
z
" style="fill:#1f77b4;"/>
   </g>
   <g id="patch_30">
    <path clip-path="url(#pf917fe2577)" d="M 533.409342 630 
L 539.014566 630 
L 539.014566 580.895282 
L 533.409342 580.895282 
z
" style="fill:#1f77b4;"/>
   </g>
   <g id="patch_31">
    <path clip-path="url(#pf917fe2577)" d="M 544.619789 630 
L 550.225013 630 
L 550.225013 572.622038 
L 544.619789 572.622038 
z
" style="fill:#1f77b4;"/>
   </g>
   <g id="patch_32">
    <path clip-path="url(#pf917fe2577)" d="M 555.830236 630 
L 561.43546 630 
L 561.43546 513.286704 
L 555.830236 513.286704 
z
" style="fill:#1f77b4;"/>
   </g>
   <g id="patch_33">
    <path clip-path="url(#pf917fe2577)" d="M 567.040683 630 
L 572.645907 630 
L 572.645907 367.489197 
L 567.040683 367.489197 
z
" style="fill:#1f77b4;"/>
   </g>
   <g id="patch_34">
    <path clip-path="url(#pf917fe2577)" d="M 578.25113 630 
L 583.856354 630 
L 583.856354 550.565287 
L 578.25113 550.565287 
z
" style="fill:#1f77b4;"/>
   </g>
   <g id="patch_35">
    <path clip-path="url(#pf917fe2577)" d="M 589.461577 630 
L 595.066801 630 
L 595.066801 307.703863 
L 589.461577 307.703863 
z
" style="fill:#1f77b4;"/>
   </g>
   <g id="patch_36">
    <path clip-path="url(#pf917fe2577)" d="M 600.672024 630 
L 606.277248 630 
L 606.277248 574.112057 
L 600.672024 574.112057 
z
" style="fill:#1f77b4;"/>
   </g>
   <g id="patch_37">
    <path clip-path="url(#pf917fe2577)" d="M 611.882471 630 
L 617.487695 630 
L 617.487695 520.899319 
L 611.882471 520.899319 
z
" style="fill:#1f77b4;"/>
   </g>
   <g id="patch_38">
    <path clip-path="url(#pf917fe2577)" d="M 623.092918 630 
L 628.698142 630 
L 628.698142 453.150626 
L 623.092918 453.150626 
z
" style="fill:#1f77b4;"/>
   </g>
   <g id="patch_39">
    <path clip-path="url(#pf917fe2577)" d="M 634.303365 630 
L 639.908589 630 
L 639.908589 481.001724 
L 634.303365 481.001724 
z
" style="fill:#1f77b4;"/>
   </g>
   <g id="patch_40">
    <path clip-path="url(#pf917fe2577)" d="M 645.513812 630 
L 651.119036 630 
L 651.119036 559.855322 
L 645.513812 559.855322 
z
" style="fill:#1f77b4;"/>
   </g>
   <g id="patch_41">
    <path clip-path="url(#pf917fe2577)" d="M 656.724259 630 
L 662.329483 630 
L 662.329483 348.927307 
L 656.724259 348.927307 
z
" style="fill:#1f77b4;"/>
   </g>
   <g id="patch_42">
    <path clip-path="url(#pf917fe2577)" d="M 667.934706 630 
L 673.53993 630 
L 673.53993 510.679078 
L 667.934706 510.679078 
z
" style="fill:#1f77b4;"/>
   </g>
   <g id="patch_43">
    <path clip-path="url(#pf917fe2577)" d="M 679.145153 630 
L 684.750377 630 
L 684.750377 438.334904 
L 679.145153 438.334904 
z
" style="fill:#1f77b4;"/>
   </g>
   <g id="patch_44">
    <path clip-path="url(#pf917fe2577)" d="M 690.3556 630 
L 695.960824 630 
L 695.960824 418.858509 
L 690.3556 418.858509 
z
" style="fill:#1f77b4;"/>
   </g>
   <g id="patch_45">
    <path clip-path="url(#pf917fe2577)" d="M 701.566047 630 
L 707.171271 630 
L 707.171271 546.830414 
L 701.566047 546.830414 
z
" style="fill:#1f77b4;"/>
   </g>
   <g id="patch_46">
    <path clip-path="url(#pf917fe2577)" d="M 712.776494 630 
L 718.381718 630 
L 718.381718 555.114309 
L 712.776494 555.114309 
z
" style="fill:#1f77b4;"/>
   </g>
   <g id="patch_47">
    <path clip-path="url(#pf917fe2577)" d="M 723.986941 630 
L 729.592165 630 
L 729.592165 602.741219 
L 723.986941 602.741219 
z
" style="fill:#1f77b4;"/>
   </g>
   <g id="patch_48">
    <path clip-path="url(#pf917fe2577)" d="M 735.197388 630 
L 740.802612 630 
L 740.802612 426.788814 
L 735.197388 426.788814 
z
" style="fill:#1f77b4;"/>
   </g>
   <g id="patch_49">
    <path clip-path="url(#pf917fe2577)" d="M 746.407835 630 
L 752.013059 630 
L 752.013059 450.733063 
L 746.407835 450.733063 
z
" style="fill:#1f77b4;"/>
   </g>
   <g id="patch_50">
    <path clip-path="url(#pf917fe2577)" d="M 757.618282 630 
L 763.223506 630 
L 763.223506 586.177561 
L 757.618282 586.177561 
z
" style="fill:#1f77b4;"/>
   </g>
   <g id="patch_51">
    <path clip-path="url(#pf917fe2577)" d="M 768.828729 630 
L 774.433953 630 
L 774.433953 466.980226 
L 768.828729 466.980226 
z
" style="fill:#1f77b4;"/>
   </g>
   <g id="patch_52">
    <path clip-path="url(#pf917fe2577)" d="M 780.039176 630 
L 785.6444 630 
L 785.6444 492.785622 
L 780.039176 492.785622 
z
" style="fill:#1f77b4;"/>
   </g>
   <g id="patch_53">
    <path clip-path="url(#pf917fe2577)" d="M 791.249623 630 
L 796.854847 630 
L 796.854847 561.55285 
L 791.249623 561.55285 
z
" style="fill:#1f77b4;"/>
   </g>
   <g id="patch_54">
    <path clip-path="url(#pf917fe2577)" d="M 802.46007 630 
L 808.065294 630 
L 808.065294 311.540012 
L 802.46007 311.540012 
z
" style="fill:#1f77b4;"/>
   </g>
   <g id="patch_55">
    <path clip-path="url(#pf917fe2577)" d="M 813.670517 630 
L 819.275741 630 
L 819.275741 482.174237 
L 813.670517 482.174237 
z
" style="fill:#1f77b4;"/>
   </g>
   <g id="patch_56">
    <path clip-path="url(#pf917fe2577)" d="M 824.880964 630 
L 830.486188 630 
L 830.486188 571.436945 
L 824.880964 571.436945 
z
" style="fill:#1f77b4;"/>
   </g>
   <g id="patch_57">
    <path clip-path="url(#pf917fe2577)" d="M 836.091411 630 
L 841.696635 630 
L 841.696635 363.610812 
L 836.091411 363.610812 
z
" style="fill:#1f77b4;"/>
   </g>
   <g id="patch_58">
    <path clip-path="url(#pf917fe2577)" d="M 847.301858 630 
L 852.907082 630 
L 852.907082 564.127237 
L 847.301858 564.127237 
z
" style="fill:#1f77b4;"/>
   </g>
   <g id="patch_59">
    <path clip-path="url(#pf917fe2577)" d="M 858.512305 630 
L 864.117529 630 
L 864.117529 346.610744 
L 858.512305 346.610744 
z
" style="fill:#1f77b4;"/>
   </g>
   <g id="patch_60">
    <path clip-path="url(#pf917fe2577)" d="M 869.722752 630 
L 875.327976 630 
L 875.327976 569.322381 
L 869.722752 569.322381 
z
" style="fill:#1f77b4;"/>
   </g>
   <g id="patch_61">
    <path clip-path="url(#pf917fe2577)" d="M 880.933199 630 
L 886.538423 630 
L 886.538423 566.127305 
L 880.933199 566.127305 
z
" style="fill:#1f77b4;"/>
   </g>
   <g id="patch_62">
    <path clip-path="url(#pf917fe2577)" d="M 892.143646 630 
L 897.74887 630 
L 897.74887 461.22233 
L 892.143646 461.22233 
z
" style="fill:#1f77b4;"/>
   </g>
   <g id="patch_63">
    <path clip-path="url(#pf917fe2577)" d="M 903.354093 630 
L 908.959317 630 
L 908.959317 382.257174 
L 903.354093 382.257174 
z
" style="fill:#1f77b4;"/>
   </g>
   <g id="patch_64">
    <path clip-path="url(#pf917fe2577)" d="M 914.56454 630 
L 920.169764 630 
L 920.169764 525.331365 
L 914.56454 525.331365 
z
" style="fill:#1f77b4;"/>
   </g>
   <g id="patch_65">
    <path clip-path="url(#pf917fe2577)" d="M 925.774987 630 
L 931.380211 630 
L 931.380211 484.240138 
L 925.774987 484.240138 
z
" style="fill:#1f77b4;"/>
   </g>
   <g id="patch_66">
    <path clip-path="url(#pf917fe2577)" d="M 936.985434 630 
L 942.590658 630 
L 942.590658 455.749071 
L 936.985434 455.749071 
z
" style="fill:#1f77b4;"/>
   </g>
   <g id="patch_67">
    <path clip-path="url(#pf917fe2577)" d="M 948.195881 630 
L 953.801105 630 
L 953.801105 467.778122 
L 948.195881 467.778122 
z
" style="fill:#1f77b4;"/>
   </g>
   <g id="patch_68">
    <path clip-path="url(#pf917fe2577)" d="M 959.406328 630 
L 965.011552 630 
L 965.011552 461.00564 
L 959.406328 461.00564 
z
" style="fill:#1f77b4;"/>
   </g>
   <g id="patch_69">
    <path clip-path="url(#pf917fe2577)" d="M 970.616775 630 
L 976.221999 630 
L 976.221999 510.208971 
L 970.616775 510.208971 
z
" style="fill:#1f77b4;"/>
   </g>
   <g id="patch_70">
    <path clip-path="url(#pf917fe2577)" d="M 981.827223 630 
L 987.432446 630 
L 987.432446 555.494618 
L 981.827223 555.494618 
z
" style="fill:#1f77b4;"/>
   </g>
   <g id="patch_71">
    <path clip-path="url(#pf917fe2577)" d="M 993.03767 630 
L 998.642893 630 
L 998.642893 390.047916 
L 993.03767 390.047916 
z
" style="fill:#1f77b4;"/>
   </g>
   <g id="patch_72">
    <path clip-path="url(#pf917fe2577)" d="M 1004.248117 630 
L 1009.85334 630 
L 1009.85334 484.749727 
L 1004.248117 484.749727 
z
" style="fill:#1f77b4;"/>
   </g>
   <g id="patch_73">
    <path clip-path="url(#pf917fe2577)" d="M 1015.458564 630 
L 1021.063787 630 
L 1021.063787 556.716897 
L 1015.458564 556.716897 
z
" style="fill:#1f77b4;"/>
   </g>
   <g id="patch_74">
    <path clip-path="url(#pf917fe2577)" d="M 1026.669011 630 
L 1032.274234 630 
L 1032.274234 492.356833 
L 1026.669011 492.356833 
z
" style="fill:#1f77b4;"/>
   </g>
   <g id="patch_75">
    <path clip-path="url(#pf917fe2577)" d="M 1037.879458 630 
L 1043.484681 630 
L 1043.484681 443.781537 
L 1037.879458 443.781537 
z
" style="fill:#1f77b4;"/>
   </g>
   <g id="patch_76">
    <path clip-path="url(#pf917fe2577)" d="M 1049.089905 630 
L 1054.695128 630 
L 1054.695128 433.298697 
L 1049.089905 433.298697 
z
" style="fill:#1f77b4;"/>
   </g>
   <g id="patch_77">
    <path clip-path="url(#pf917fe2577)" d="M 1060.300352 630 
L 1065.905575 630 
L 1065.905575 556.568152 
L 1060.300352 556.568152 
z
" style="fill:#1f77b4;"/>
   </g>
   <g id="patch_78">
    <path clip-path="url(#pf917fe2577)" d="M 1071.510799 630 
L 1077.116022 630 
L 1077.116022 412.352299 
L 1071.510799 412.352299 
z
" style="fill:#1f77b4;"/>
   </g>
   <g id="patch_79">
    <path clip-path="url(#pf917fe2577)" d="M 1082.721246 630 
L 1088.326469 630 
L 1088.326469 506.228668 
L 1082.721246 506.228668 
z
" style="fill:#1f77b4;"/>
   </g>
   <g id="patch_80">
    <path clip-path="url(#pf917fe2577)" d="M 1093.931693 630 
L 1099.536916 630 
L 1099.536916 528.937968 
L 1093.931693 528.937968 
z
" style="fill:#1f77b4;"/>
   </g>
   <g id="patch_81">
    <path clip-path="url(#pf917fe2577)" d="M 1105.14214 630 
L 1110.747363 630 
L 1110.747363 344.673388 
L 1105.14214 344.673388 
z
" style="fill:#1f77b4;"/>
   </g>
   <g id="patch_82">
    <path clip-path="url(#pf917fe2577)" d="M 1116.352587 630 
L 1121.95781 630 
L 1121.95781 237.726753 
L 1116.352587 237.726753 
z
" style="fill:#1f77b4;"/>
   </g>
   <g id="patch_83">
    <path clip-path="url(#pf917fe2577)" d="M 1127.563034 630 
L 1133.168257 630 
L 1133.168257 550.923193 
L 1127.563034 550.923193 
z
" style="fill:#1f77b4;"/>
   </g>
   <g id="patch_84">
    <path clip-path="url(#pf917fe2577)" d="M 1138.773481 630 
L 1144.378704 630 
L 1144.378704 527.910527 
L 1138.773481 527.910527 
z
" style="fill:#1f77b4;"/>
   </g>
   <g id="patch_85">
    <path clip-path="url(#pf917fe2577)" d="M 1149.983928 630 
L 1155.589151 630 
L 1155.589151 472.607739 
L 1149.983928 472.607739 
z
" style="fill:#1f77b4;"/>
   </g>
   <g id="patch_86">
    <path clip-path="url(#pf917fe2577)" d="M 1161.194375 630 
L 1166.799598 630 
L 1166.799598 474.025406 
L 1161.194375 474.025406 
z
" style="fill:#1f77b4;"/>
   </g>
   <g id="patch_87">
    <path clip-path="url(#pf917fe2577)" d="M 1172.404822 630 
L 1178.010045 630 
L 1178.010045 500.989544 
L 1172.404822 500.989544 
z
" style="fill:#1f77b4;"/>
   </g>
   <g id="patch_88">
    <path clip-path="url(#pf917fe2577)" d="M 1183.615269 630 
L 1189.220492 630 
L 1189.220492 315.057552 
L 1183.615269 315.057552 
z
" style="fill:#1f77b4;"/>
   </g>
   <g id="patch_89">
    <path clip-path="url(#pf917fe2577)" d="M 1194.825716 630 
L 1200.430939 630 
L 1200.430939 345.540148 
L 1194.825716 345.540148 
z
" style="fill:#1f77b4;"/>
   </g>
   <g id="patch_90">
    <path clip-path="url(#pf917fe2577)" d="M 1206.036163 630 
L 1211.641386 630 
L 1211.641386 122.447651 
L 1206.036163 122.447651 
z
" style="fill:#1f77b4;"/>
   </g>
   <g id="patch_91">
    <path clip-path="url(#pf917fe2577)" d="M 1217.24661 630 
L 1222.851833 630 
L 1222.851833 396.128091 
L 1217.24661 396.128091 
z
" style="fill:#1f77b4;"/>
   </g>
   <g id="patch_92">
    <path clip-path="url(#pf917fe2577)" d="M 1228.457057 630 
L 1234.06228 630 
L 1234.06228 379.130777 
L 1228.457057 379.130777 
z
" style="fill:#1f77b4;"/>
   </g>
   <g id="patch_93">
    <path clip-path="url(#pf917fe2577)" d="M 1239.667504 630 
L 1245.272727 630 
L 1245.272727 245.127269 
L 1239.667504 245.127269 
z
" style="fill:#1f77b4;"/>
   </g>
   <g id="patch_94">
    <path clip-path="url(#pf917fe2577)" d="M 230.727273 547.994572 
L 236.332496 547.994572 
L 236.332496 546.12461 
L 230.727273 546.12461 
z
" style="fill:#ff7f0e;"/>
   </g>
   <g id="patch_95">
    <path clip-path="url(#pf917fe2577)" d="M 241.93772 434.666782 
L 247.542943 434.666782 
L 247.542943 433.365081 
L 241.93772 433.365081 
z
" style="fill:#ff7f0e;"/>
   </g>
   <g id="patch_96">
    <path clip-path="url(#pf917fe2577)" d="M 253.148167 611.707137 
L 258.75339 611.707137 
L 258.75339 611.020615 
L 253.148167 611.020615 
z
" style="fill:#ff7f0e;"/>
   </g>
   <g id="patch_97">
    <path clip-path="url(#pf917fe2577)" d="M 264.358614 559.125278 
L 269.963837 559.125278 
L 269.963837 557.686218 
L 264.358614 557.686218 
z
" style="fill:#ff7f0e;"/>
   </g>
   <g id="patch_98">
    <path clip-path="url(#pf917fe2577)" d="M 275.569061 574.160078 
L 281.174284 574.160078 
L 281.174284 572.948726 
L 275.569061 572.948726 
z
" style="fill:#ff7f0e;"/>
   </g>
   <g id="patch_99">
    <path clip-path="url(#pf917fe2577)" d="M 286.779508 366.055003 
L 292.384731 366.055003 
L 292.384731 364.97697 
L 286.779508 364.97697 
z
" style="fill:#ff7f0e;"/>
   </g>
   <g id="patch_100">
    <path clip-path="url(#pf917fe2577)" d="M 297.989955 530.803706 
L 303.595178 530.803706 
L 303.595178 528.812913 
L 297.989955 528.812913 
z
" style="fill:#ff7f0e;"/>
   </g>
   <g id="patch_101">
    <path clip-path="url(#pf917fe2577)" d="M 309.200402 554.39207 
L 314.805625 554.39207 
L 314.805625 552.974678 
L 309.200402 552.974678 
z
" style="fill:#ff7f0e;"/>
   </g>
   <g id="patch_102">
    <path clip-path="url(#pf917fe2577)" d="M 320.410849 560.225899 
L 326.016072 560.225899 
L 326.016072 559.075238 
L 320.410849 559.075238 
z
" style="fill:#ff7f0e;"/>
   </g>
   <g id="patch_103">
    <path clip-path="url(#pf917fe2577)" d="M 331.621296 593.056093 
L 337.226519 593.056093 
L 337.226519 592.053993 
L 331.621296 592.053993 
z
" style="fill:#ff7f0e;"/>
   </g>
   <g id="patch_104">
    <path clip-path="url(#pf917fe2577)" d="M 342.831743 115.848705 
L 348.436966 115.848705 
L 348.436966 112.285714 
L 342.831743 112.285714 
z
" style="fill:#ff7f0e;"/>
   </g>
   <g id="patch_105">
    <path clip-path="url(#pf917fe2577)" d="M 354.04219 589.936307 
L 359.647413 589.936307 
L 359.647413 588.641676 
L 354.04219 588.641676 
z
" style="fill:#ff7f0e;"/>
   </g>
   <g id="patch_106">
    <path clip-path="url(#pf917fe2577)" d="M 365.252637 525.321265 
L 370.85786 525.321265 
L 370.85786 524.110647 
L 365.252637 524.110647 
z
" style="fill:#ff7f0e;"/>
   </g>
   <g id="patch_107">
    <path clip-path="url(#pf917fe2577)" d="M 376.463084 371.209655 
L 382.068307 371.209655 
L 382.068307 370.185978 
L 376.463084 370.185978 
z
" style="fill:#ff7f0e;"/>
   </g>
   <g id="patch_108">
    <path clip-path="url(#pf917fe2577)" d="M 387.673531 483.365115 
L 393.278754 483.365115 
L 393.278754 482.071034 
L 387.673531 482.071034 
z
" style="fill:#ff7f0e;"/>
   </g>
   <g id="patch_109">
    <path clip-path="url(#pf917fe2577)" d="M 398.883978 579.31473 
L 404.489201 579.31473 
L 404.489201 578.222006 
L 398.883978 578.222006 
z
" style="fill:#ff7f0e;"/>
   </g>
   <g id="patch_110">
    <path clip-path="url(#pf917fe2577)" d="M 410.094425 600.468177 
L 415.699648 600.468177 
L 415.699648 600.07685 
L 410.094425 600.07685 
z
" style="fill:#ff7f0e;"/>
   </g>
   <g id="patch_111">
    <path clip-path="url(#pf917fe2577)" d="M 421.304872 532.730044 
L 426.910095 532.730044 
L 426.910095 531.188423 
L 421.304872 531.188423 
z
" style="fill:#ff7f0e;"/>
   </g>
   <g id="patch_112">
    <path clip-path="url(#pf917fe2577)" d="M 432.515319 540.264247 
L 438.120542 540.264247 
L 438.120542 539.167666 
L 432.515319 539.167666 
z
" style="fill:#ff7f0e;"/>
   </g>
   <g id="patch_113">
    <path clip-path="url(#pf917fe2577)" d="M 443.725766 540.754462 
L 449.330989 540.754462 
L 449.330989 539.627766 
L 443.725766 539.627766 
z
" style="fill:#ff7f0e;"/>
   </g>
   <g id="patch_114">
    <path clip-path="url(#pf917fe2577)" d="M 454.936213 554.040132 
L 460.541436 554.040132 
L 460.541436 552.559203 
L 454.936213 552.559203 
z
" style="fill:#ff7f0e;"/>
   </g>
   <g id="patch_115">
    <path clip-path="url(#pf917fe2577)" d="M 466.14666 401.858441 
L 471.751883 401.858441 
L 471.751883 400.482459 
L 466.14666 400.482459 
z
" style="fill:#ff7f0e;"/>
   </g>
   <g id="patch_116">
    <path clip-path="url(#pf917fe2577)" d="M 477.357107 590.984683 
L 482.96233 590.984683 
L 482.96233 590.051538 
L 477.357107 590.051538 
z
" style="fill:#ff7f0e;"/>
   </g>
   <g id="patch_117">
    <path clip-path="url(#pf917fe2577)" d="M 488.567554 465.019915 
L 494.172777 465.019915 
L 494.172777 463.275928 
L 488.567554 463.275928 
z
" style="fill:#ff7f0e;"/>
   </g>
   <g id="patch_118">
    <path clip-path="url(#pf917fe2577)" d="M 499.778001 607.205677 
L 505.383225 607.205677 
L 505.383225 606.86338 
L 499.778001 606.86338 
z
" style="fill:#ff7f0e;"/>
   </g>
   <g id="patch_119">
    <path clip-path="url(#pf917fe2577)" d="M 510.988448 577.142045 
L 516.593672 577.142045 
L 516.593672 576.047761 
L 510.988448 576.047761 
z
" style="fill:#ff7f0e;"/>
   </g>
   <g id="patch_120">
    <path clip-path="url(#pf917fe2577)" d="M 522.198895 510.292525 
L 527.804119 510.292525 
L 527.804119 509.157381 
L 522.198895 509.157381 
z
" style="fill:#ff7f0e;"/>
   </g>
   <g id="patch_121">
    <path clip-path="url(#pf917fe2577)" d="M 533.409342 580.895282 
L 539.014566 580.895282 
L 539.014566 580.168452 
L 533.409342 580.168452 
z
" style="fill:#ff7f0e;"/>
   </g>
   <g id="patch_122">
    <path clip-path="url(#pf917fe2577)" d="M 544.619789 572.622038 
L 550.225013 572.622038 
L 550.225013 571.744535 
L 544.619789 571.744535 
z
" style="fill:#ff7f0e;"/>
   </g>
   <g id="patch_123">
    <path clip-path="url(#pf917fe2577)" d="M 555.830236 513.286704 
L 561.43546 513.286704 
L 561.43546 512.279554 
L 555.830236 512.279554 
z
" style="fill:#ff7f0e;"/>
   </g>
   <g id="patch_124">
    <path clip-path="url(#pf917fe2577)" d="M 567.040683 367.489197 
L 572.645907 367.489197 
L 572.645907 366.111838 
L 567.040683 366.111838 
z
" style="fill:#ff7f0e;"/>
   </g>
   <g id="patch_125">
    <path clip-path="url(#pf917fe2577)" d="M 578.25113 550.565287 
L 583.856354 550.565287 
L 583.856354 549.602302 
L 578.25113 549.602302 
z
" style="fill:#ff7f0e;"/>
   </g>
   <g id="patch_126">
    <path clip-path="url(#pf917fe2577)" d="M 589.461577 307.703863 
L 595.066801 307.703863 
L 595.066801 305.677444 
L 589.461577 305.677444 
z
" style="fill:#ff7f0e;"/>
   </g>
   <g id="patch_127">
    <path clip-path="url(#pf917fe2577)" d="M 600.672024 574.112057 
L 606.277248 574.112057 
L 606.277248 573.049083 
L 600.672024 573.049083 
z
" style="fill:#ff7f0e;"/>
   </g>
   <g id="patch_128">
    <path clip-path="url(#pf917fe2577)" d="M 611.882471 520.899319 
L 617.487695 520.899319 
L 617.487695 519.407555 
L 611.882471 519.407555 
z
" style="fill:#ff7f0e;"/>
   </g>
   <g id="patch_129">
    <path clip-path="url(#pf917fe2577)" d="M 623.092918 453.150626 
L 628.698142 453.150626 
L 628.698142 452.009882 
L 623.092918 452.009882 
z
" style="fill:#ff7f0e;"/>
   </g>
   <g id="patch_130">
    <path clip-path="url(#pf917fe2577)" d="M 634.303365 481.001724 
L 639.908589 481.001724 
L 639.908589 479.018735 
L 634.303365 479.018735 
z
" style="fill:#ff7f0e;"/>
   </g>
   <g id="patch_131">
    <path clip-path="url(#pf917fe2577)" d="M 645.513812 559.855322 
L 651.119036 559.855322 
L 651.119036 559.027768 
L 645.513812 559.027768 
z
" style="fill:#ff7f0e;"/>
   </g>
   <g id="patch_132">
    <path clip-path="url(#pf917fe2577)" d="M 656.724259 348.927307 
L 662.329483 348.927307 
L 662.329483 347.667934 
L 656.724259 347.667934 
z
" style="fill:#ff7f0e;"/>
   </g>
   <g id="patch_133">
    <path clip-path="url(#pf917fe2577)" d="M 667.934706 510.679078 
L 673.53993 510.679078 
L 673.53993 509.318338 
L 667.934706 509.318338 
z
" style="fill:#ff7f0e;"/>
   </g>
   <g id="patch_134">
    <path clip-path="url(#pf917fe2577)" d="M 679.145153 438.334904 
L 684.750377 438.334904 
L 684.750377 437.085723 
L 679.145153 437.085723 
z
" style="fill:#ff7f0e;"/>
   </g>
   <g id="patch_135">
    <path clip-path="url(#pf917fe2577)" d="M 690.3556 418.858509 
L 695.960824 418.858509 
L 695.960824 417.208176 
L 690.3556 417.208176 
z
" style="fill:#ff7f0e;"/>
   </g>
   <g id="patch_136">
    <path clip-path="url(#pf917fe2577)" d="M 701.566047 546.830414 
L 707.171271 546.830414 
L 707.171271 545.848147 
L 701.566047 545.848147 
z
" style="fill:#ff7f0e;"/>
   </g>
   <g id="patch_137">
    <path clip-path="url(#pf917fe2577)" d="M 712.776494 555.114309 
L 718.381718 555.114309 
L 718.381718 554.284551 
L 712.776494 554.284551 
z
" style="fill:#ff7f0e;"/>
   </g>
   <g id="patch_138">
    <path clip-path="url(#pf917fe2577)" d="M 723.986941 602.741219 
L 729.592165 602.741219 
L 729.592165 602.46347 
L 723.986941 602.46347 
z
" style="fill:#ff7f0e;"/>
   </g>
   <g id="patch_139">
    <path clip-path="url(#pf917fe2577)" d="M 735.197388 426.788814 
L 740.802612 426.788814 
L 740.802612 424.731636 
L 735.197388 424.731636 
z
" style="fill:#ff7f0e;"/>
   </g>
   <g id="patch_140">
    <path clip-path="url(#pf917fe2577)" d="M 746.407835 450.733063 
L 752.013059 450.733063 
L 752.013059 449.211275 
L 746.407835 449.211275 
z
" style="fill:#ff7f0e;"/>
   </g>
   <g id="patch_141">
    <path clip-path="url(#pf917fe2577)" d="M 757.618282 586.177561 
L 763.223506 586.177561 
L 763.223506 585.707637 
L 757.618282 585.707637 
z
" style="fill:#ff7f0e;"/>
   </g>
   <g id="patch_142">
    <path clip-path="url(#pf917fe2577)" d="M 768.828729 466.980226 
L 774.433953 466.980226 
L 774.433953 465.480014 
L 768.828729 465.480014 
z
" style="fill:#ff7f0e;"/>
   </g>
   <g id="patch_143">
    <path clip-path="url(#pf917fe2577)" d="M 780.039176 492.785622 
L 785.6444 492.785622 
L 785.6444 491.414782 
L 780.039176 491.414782 
z
" style="fill:#ff7f0e;"/>
   </g>
   <g id="patch_144">
    <path clip-path="url(#pf917fe2577)" d="M 791.249623 561.55285 
L 796.854847 561.55285 
L 796.854847 560.645873 
L 791.249623 560.645873 
z
" style="fill:#ff7f0e;"/>
   </g>
   <g id="patch_145">
    <path clip-path="url(#pf917fe2577)" d="M 802.46007 311.540012 
L 808.065294 311.540012 
L 808.065294 310.203971 
L 802.46007 310.203971 
z
" style="fill:#ff7f0e;"/>
   </g>
   <g id="patch_146">
    <path clip-path="url(#pf917fe2577)" d="M 813.670517 482.174237 
L 819.275741 482.174237 
L 819.275741 481.224749 
L 813.670517 481.224749 
z
" style="fill:#ff7f0e;"/>
   </g>
   <g id="patch_147">
    <path clip-path="url(#pf917fe2577)" d="M 824.880964 571.436945 
L 830.486188 571.436945 
L 830.486188 570.716267 
L 824.880964 570.716267 
z
" style="fill:#ff7f0e;"/>
   </g>
   <g id="patch_148">
    <path clip-path="url(#pf917fe2577)" d="M 836.091411 363.610812 
L 841.696635 363.610812 
L 841.696635 361.901165 
L 836.091411 361.901165 
z
" style="fill:#ff7f0e;"/>
   </g>
   <g id="patch_149">
    <path clip-path="url(#pf917fe2577)" d="M 847.301858 564.127237 
L 852.907082 564.127237 
L 852.907082 563.257998 
L 847.301858 563.257998 
z
" style="fill:#ff7f0e;"/>
   </g>
   <g id="patch_150">
    <path clip-path="url(#pf917fe2577)" d="M 858.512305 346.610744 
L 864.117529 346.610744 
L 864.117529 344.964542 
L 858.512305 344.964542 
z
" style="fill:#ff7f0e;"/>
   </g>
   <g id="patch_151">
    <path clip-path="url(#pf917fe2577)" d="M 869.722752 569.322381 
L 875.327976 569.322381 
L 875.327976 568.601795 
L 869.722752 568.601795 
z
" style="fill:#ff7f0e;"/>
   </g>
   <g id="patch_152">
    <path clip-path="url(#pf917fe2577)" d="M 880.933199 566.127305 
L 886.538423 566.127305 
L 886.538423 565.367145 
L 880.933199 565.367145 
z
" style="fill:#ff7f0e;"/>
   </g>
   <g id="patch_153">
    <path clip-path="url(#pf917fe2577)" d="M 892.143646 461.22233 
L 897.74887 461.22233 
L 897.74887 459.628557 
L 892.143646 459.628557 
z
" style="fill:#ff7f0e;"/>
   </g>
   <g id="patch_154">
    <path clip-path="url(#pf917fe2577)" d="M 903.354093 382.257174 
L 908.959317 382.257174 
L 908.959317 380.921317 
L 903.354093 380.921317 
z
" style="fill:#ff7f0e;"/>
   </g>
   <g id="patch_155">
    <path clip-path="url(#pf917fe2577)" d="M 914.56454 525.331365 
L 920.169764 525.331365 
L 920.169764 524.283907 
L 914.56454 524.283907 
z
" style="fill:#ff7f0e;"/>
   </g>
   <g id="patch_156">
    <path clip-path="url(#pf917fe2577)" d="M 925.774987 484.240138 
L 931.380211 484.240138 
L 931.380211 483.019053 
L 925.774987 483.019053 
z
" style="fill:#ff7f0e;"/>
   </g>
   <g id="patch_157">
    <path clip-path="url(#pf917fe2577)" d="M 936.985434 455.749071 
L 942.590658 455.749071 
L 942.590658 454.103053 
L 936.985434 454.103053 
z
" style="fill:#ff7f0e;"/>
   </g>
   <g id="patch_158">
    <path clip-path="url(#pf917fe2577)" d="M 948.195881 467.778122 
L 953.801105 467.778122 
L 953.801105 466.808251 
L 948.195881 466.808251 
z
" style="fill:#ff7f0e;"/>
   </g>
   <g id="patch_159">
    <path clip-path="url(#pf917fe2577)" d="M 959.406328 461.00564 
L 965.011552 461.00564 
L 965.011552 459.908877 
L 959.406328 459.908877 
z
" style="fill:#ff7f0e;"/>
   </g>
   <g id="patch_160">
    <path clip-path="url(#pf917fe2577)" d="M 970.616775 510.208971 
L 976.221999 510.208971 
L 976.221999 509.351392 
L 970.616775 509.351392 
z
" style="fill:#ff7f0e;"/>
   </g>
   <g id="patch_161">
    <path clip-path="url(#pf917fe2577)" d="M 981.827223 555.494618 
L 987.432446 555.494618 
L 987.432446 555.083917 
L 981.827223 555.083917 
z
" style="fill:#ff7f0e;"/>
   </g>
   <g id="patch_162">
    <path clip-path="url(#pf917fe2577)" d="M 993.03767 390.047916 
L 998.642893 390.047916 
L 998.642893 388.745296 
L 993.03767 388.745296 
z
" style="fill:#ff7f0e;"/>
   </g>
   <g id="patch_163">
    <path clip-path="url(#pf917fe2577)" d="M 1004.248117 484.749727 
L 1009.85334 484.749727 
L 1009.85334 483.449311 
L 1004.248117 483.449311 
z
" style="fill:#ff7f0e;"/>
   </g>
   <g id="patch_164">
    <path clip-path="url(#pf917fe2577)" d="M 1015.458564 556.716897 
L 1021.063787 556.716897 
L 1021.063787 555.87961 
L 1015.458564 555.87961 
z
" style="fill:#ff7f0e;"/>
   </g>
   <g id="patch_165">
    <path clip-path="url(#pf917fe2577)" d="M 1026.669011 492.356833 
L 1032.274234 492.356833 
L 1032.274234 491.254836 
L 1026.669011 491.254836 
z
" style="fill:#ff7f0e;"/>
   </g>
   <g id="patch_166">
    <path clip-path="url(#pf917fe2577)" d="M 1037.879458 443.781537 
L 1043.484681 443.781537 
L 1043.484681 442.405096 
L 1037.879458 442.405096 
z
" style="fill:#ff7f0e;"/>
   </g>
   <g id="patch_167">
    <path clip-path="url(#pf917fe2577)" d="M 1049.089905 433.298697 
L 1054.695128 433.298697 
L 1054.695128 432.048689 
L 1049.089905 432.048689 
z
" style="fill:#ff7f0e;"/>
   </g>
   <g id="patch_168">
    <path clip-path="url(#pf917fe2577)" d="M 1060.300352 556.568152 
L 1065.905575 556.568152 
L 1065.905575 555.521613 
L 1060.300352 555.521613 
z
" style="fill:#ff7f0e;"/>
   </g>
   <g id="patch_169">
    <path clip-path="url(#pf917fe2577)" d="M 1071.510799 412.352299 
L 1077.116022 412.352299 
L 1077.116022 411.042426 
L 1071.510799 411.042426 
z
" style="fill:#ff7f0e;"/>
   </g>
   <g id="patch_170">
    <path clip-path="url(#pf917fe2577)" d="M 1082.721246 506.228668 
L 1088.326469 506.228668 
L 1088.326469 504.990046 
L 1082.721246 504.990046 
z
" style="fill:#ff7f0e;"/>
   </g>
   <g id="patch_171">
    <path clip-path="url(#pf917fe2577)" d="M 1093.931693 528.937968 
L 1099.536916 528.937968 
L 1099.536916 527.768669 
L 1093.931693 527.768669 
z
" style="fill:#ff7f0e;"/>
   </g>
   <g id="patch_172">
    <path clip-path="url(#pf917fe2577)" d="M 1105.14214 344.673388 
L 1110.747363 344.673388 
L 1110.747363 342.913332 
L 1105.14214 342.913332 
z
" style="fill:#ff7f0e;"/>
   </g>
   <g id="patch_173">
    <path clip-path="url(#pf917fe2577)" d="M 1116.352587 237.726753 
L 1121.95781 237.726753 
L 1121.95781 230.746395 
L 1116.352587 230.746395 
z
" style="fill:#ff7f0e;"/>
   </g>
   <g id="patch_174">
    <path clip-path="url(#pf917fe2577)" d="M 1127.563034 550.923193 
L 1133.168257 550.923193 
L 1133.168257 550.242915 
L 1127.563034 550.242915 
z
" style="fill:#ff7f0e;"/>
   </g>
   <g id="patch_175">
    <path clip-path="url(#pf917fe2577)" d="M 1138.773481 527.910527 
L 1144.378704 527.910527 
L 1144.378704 527.029811 
L 1138.773481 527.029811 
z
" style="fill:#ff7f0e;"/>
   </g>
   <g id="patch_176">
    <path clip-path="url(#pf917fe2577)" d="M 1149.983928 472.607739 
L 1155.589151 472.607739 
L 1155.589151 471.452855 
L 1149.983928 471.452855 
z
" style="fill:#ff7f0e;"/>
   </g>
   <g id="patch_177">
    <path clip-path="url(#pf917fe2577)" d="M 1161.194375 474.025406 
L 1166.799598 474.025406 
L 1166.799598 472.776041 
L 1161.194375 472.776041 
z
" style="fill:#ff7f0e;"/>
   </g>
   <g id="patch_178">
    <path clip-path="url(#pf917fe2577)" d="M 1172.404822 500.989544 
L 1178.010045 500.989544 
L 1178.010045 499.812348 
L 1172.404822 499.812348 
z
" style="fill:#ff7f0e;"/>
   </g>
   <g id="patch_179">
    <path clip-path="url(#pf917fe2577)" d="M 1183.615269 315.057552 
L 1189.220492 315.057552 
L 1189.220492 313.309157 
L 1183.615269 313.309157 
z
" style="fill:#ff7f0e;"/>
   </g>
   <g id="patch_180">
    <path clip-path="url(#pf917fe2577)" d="M 1194.825716 345.540148 
L 1200.430939 345.540148 
L 1200.430939 344.09163 
L 1194.825716 344.09163 
z
" style="fill:#ff7f0e;"/>
   </g>
   <g id="patch_181">
    <path clip-path="url(#pf917fe2577)" d="M 1206.036163 122.447651 
L 1211.641386 122.447651 
L 1211.641386 120.962681 
L 1206.036163 120.962681 
z
" style="fill:#ff7f0e;"/>
   </g>
   <g id="patch_182">
    <path clip-path="url(#pf917fe2577)" d="M 1217.24661 396.128091 
L 1222.851833 396.128091 
L 1222.851833 395.066402 
L 1217.24661 395.066402 
z
" style="fill:#ff7f0e;"/>
   </g>
   <g id="patch_183">
    <path clip-path="url(#pf917fe2577)" d="M 1228.457057 379.130777 
L 1234.06228 379.130777 
L 1234.06228 377.419018 
L 1228.457057 377.419018 
z
" style="fill:#ff7f0e;"/>
   </g>
   <g id="patch_184">
    <path clip-path="url(#pf917fe2577)" d="M 1239.667504 245.127269 
L 1245.272727 245.127269 
L 1245.272727 242.953757 
L 1239.667504 242.953757 
z
" style="fill:#ff7f0e;"/>
   </g>
   <g id="matplotlib.axis_1">
    <g id="xtick_1">
     <g id="line2d_1">
      <defs>
       <path d="M 0 0 
L 0 3.5 
" id="mb948217c81" style="stroke:#000000;stroke-width:0.8;"/>
      </defs>
      <g>
       <use style="stroke:#000000;stroke-width:0.8;" x="233.529884" xlink:href="#mb948217c81" y="630"/>
      </g>
     </g>
     <g id="text_1">
      <!-- 0 -->
      <defs>
       <path d="M 31.78125 66.40625 
Q 24.171875 66.40625 20.328125 58.90625 
Q 16.5 51.421875 16.5 36.375 
Q 16.5 21.390625 20.328125 13.890625 
Q 24.171875 6.390625 31.78125 6.390625 
Q 39.453125 6.390625 43.28125 13.890625 
Q 47.125 21.390625 47.125 36.375 
Q 47.125 51.421875 43.28125 58.90625 
Q 39.453125 66.40625 31.78125 66.40625 
z
M 31.78125 74.21875 
Q 44.046875 74.21875 50.515625 64.515625 
Q 56.984375 54.828125 56.984375 36.375 
Q 56.984375 17.96875 50.515625 8.265625 
Q 44.046875 -1.421875 31.78125 -1.421875 
Q 19.53125 -1.421875 13.0625 8.265625 
Q 6.59375 17.96875 6.59375 36.375 
Q 6.59375 54.828125 13.0625 64.515625 
Q 19.53125 74.21875 31.78125 74.21875 
z
" id="DejaVuSans-30"/>
      </defs>
      <g transform="translate(230.348634 644.598438)scale(0.1 -0.1)">
       <use xlink:href="#DejaVuSans-30"/>
      </g>
     </g>
    </g>
    <g id="xtick_2">
     <g id="line2d_2">
      <g>
       <use style="stroke:#000000;stroke-width:0.8;" x="457.738825" xlink:href="#mb948217c81" y="630"/>
      </g>
     </g>
     <g id="text_2">
      <!-- 20 -->
      <defs>
       <path d="M 19.1875 8.296875 
L 53.609375 8.296875 
L 53.609375 0 
L 7.328125 0 
L 7.328125 8.296875 
Q 12.9375 14.109375 22.625 23.890625 
Q 32.328125 33.6875 34.8125 36.53125 
Q 39.546875 41.84375 41.421875 45.53125 
Q 43.3125 49.21875 43.3125 52.78125 
Q 43.3125 58.59375 39.234375 62.25 
Q 35.15625 65.921875 28.609375 65.921875 
Q 23.96875 65.921875 18.8125 64.3125 
Q 13.671875 62.703125 7.8125 59.421875 
L 7.8125 69.390625 
Q 13.765625 71.78125 18.9375 73 
Q 24.125 74.21875 28.421875 74.21875 
Q 39.75 74.21875 46.484375 68.546875 
Q 53.21875 62.890625 53.21875 53.421875 
Q 53.21875 48.921875 51.53125 44.890625 
Q 49.859375 40.875 45.40625 35.40625 
Q 44.1875 33.984375 37.640625 27.21875 
Q 31.109375 20.453125 19.1875 8.296875 
z
" id="DejaVuSans-32"/>
      </defs>
      <g transform="translate(451.376325 644.598438)scale(0.1 -0.1)">
       <use xlink:href="#DejaVuSans-32"/>
       <use x="63.623047" xlink:href="#DejaVuSans-30"/>
      </g>
     </g>
    </g>
    <g id="xtick_3">
     <g id="line2d_3">
      <g>
       <use style="stroke:#000000;stroke-width:0.8;" x="681.947765" xlink:href="#mb948217c81" y="630"/>
      </g>
     </g>
     <g id="text_3">
      <!-- 40 -->
      <defs>
       <path d="M 37.796875 64.3125 
L 12.890625 25.390625 
L 37.796875 25.390625 
z
M 35.203125 72.90625 
L 47.609375 72.90625 
L 47.609375 25.390625 
L 58.015625 25.390625 
L 58.015625 17.1875 
L 47.609375 17.1875 
L 47.609375 0 
L 37.796875 0 
L 37.796875 17.1875 
L 4.890625 17.1875 
L 4.890625 26.703125 
z
" id="DejaVuSans-34"/>
      </defs>
      <g transform="translate(675.585265 644.598438)scale(0.1 -0.1)">
       <use xlink:href="#DejaVuSans-34"/>
       <use x="63.623047" xlink:href="#DejaVuSans-30"/>
      </g>
     </g>
    </g>
    <g id="xtick_4">
     <g id="line2d_4">
      <g>
       <use style="stroke:#000000;stroke-width:0.8;" x="906.156705" xlink:href="#mb948217c81" y="630"/>
      </g>
     </g>
     <g id="text_4">
      <!-- 60 -->
      <defs>
       <path d="M 33.015625 40.375 
Q 26.375 40.375 22.484375 35.828125 
Q 18.609375 31.296875 18.609375 23.390625 
Q 18.609375 15.53125 22.484375 10.953125 
Q 26.375 6.390625 33.015625 6.390625 
Q 39.65625 6.390625 43.53125 10.953125 
Q 47.40625 15.53125 47.40625 23.390625 
Q 47.40625 31.296875 43.53125 35.828125 
Q 39.65625 40.375 33.015625 40.375 
z
M 52.59375 71.296875 
L 52.59375 62.3125 
Q 48.875 64.0625 45.09375 64.984375 
Q 41.3125 65.921875 37.59375 65.921875 
Q 27.828125 65.921875 22.671875 59.328125 
Q 17.53125 52.734375 16.796875 39.40625 
Q 19.671875 43.65625 24.015625 45.921875 
Q 28.375 48.1875 33.59375 48.1875 
Q 44.578125 48.1875 50.953125 41.515625 
Q 57.328125 34.859375 57.328125 23.390625 
Q 57.328125 12.15625 50.6875 5.359375 
Q 44.046875 -1.421875 33.015625 -1.421875 
Q 20.359375 -1.421875 13.671875 8.265625 
Q 6.984375 17.96875 6.984375 36.375 
Q 6.984375 53.65625 15.1875 63.9375 
Q 23.390625 74.21875 37.203125 74.21875 
Q 40.921875 74.21875 44.703125 73.484375 
Q 48.484375 72.75 52.59375 71.296875 
z
" id="DejaVuSans-36"/>
      </defs>
      <g transform="translate(899.794205 644.598438)scale(0.1 -0.1)">
       <use xlink:href="#DejaVuSans-36"/>
       <use x="63.623047" xlink:href="#DejaVuSans-30"/>
      </g>
     </g>
    </g>
    <g id="xtick_5">
     <g id="line2d_5">
      <g>
       <use style="stroke:#000000;stroke-width:0.8;" x="1130.365645" xlink:href="#mb948217c81" y="630"/>
      </g>
     </g>
     <g id="text_5">
      <!-- 80 -->
      <defs>
       <path d="M 31.78125 34.625 
Q 24.75 34.625 20.71875 30.859375 
Q 16.703125 27.09375 16.703125 20.515625 
Q 16.703125 13.921875 20.71875 10.15625 
Q 24.75 6.390625 31.78125 6.390625 
Q 38.8125 6.390625 42.859375 10.171875 
Q 46.921875 13.96875 46.921875 20.515625 
Q 46.921875 27.09375 42.890625 30.859375 
Q 38.875 34.625 31.78125 34.625 
z
M 21.921875 38.8125 
Q 15.578125 40.375 12.03125 44.71875 
Q 8.5 49.078125 8.5 55.328125 
Q 8.5 64.0625 14.71875 69.140625 
Q 20.953125 74.21875 31.78125 74.21875 
Q 42.671875 74.21875 48.875 69.140625 
Q 55.078125 64.0625 55.078125 55.328125 
Q 55.078125 49.078125 51.53125 44.71875 
Q 48 40.375 41.703125 38.8125 
Q 48.828125 37.15625 52.796875 32.3125 
Q 56.78125 27.484375 56.78125 20.515625 
Q 56.78125 9.90625 50.3125 4.234375 
Q 43.84375 -1.421875 31.78125 -1.421875 
Q 19.734375 -1.421875 13.25 4.234375 
Q 6.78125 9.90625 6.78125 20.515625 
Q 6.78125 27.484375 10.78125 32.3125 
Q 14.796875 37.15625 21.921875 38.8125 
z
M 18.3125 54.390625 
Q 18.3125 48.734375 21.84375 45.5625 
Q 25.390625 42.390625 31.78125 42.390625 
Q 38.140625 42.390625 41.71875 45.5625 
Q 45.3125 48.734375 45.3125 54.390625 
Q 45.3125 60.0625 41.71875 63.234375 
Q 38.140625 66.40625 31.78125 66.40625 
Q 25.390625 66.40625 21.84375 63.234375 
Q 18.3125 60.0625 18.3125 54.390625 
z
" id="DejaVuSans-38"/>
      </defs>
      <g transform="translate(1124.003145 644.598438)scale(0.1 -0.1)">
       <use xlink:href="#DejaVuSans-38"/>
       <use x="63.623047" xlink:href="#DejaVuSans-30"/>
      </g>
     </g>
    </g>
   </g>
   <g id="matplotlib.axis_2">
    <g id="ytick_1">
     <g id="line2d_6">
      <defs>
       <path d="M 0 0 
L -3.5 0 
" id="m6e3c529a0c" style="stroke:#000000;stroke-width:0.8;"/>
      </defs>
      <g>
       <use style="stroke:#000000;stroke-width:0.8;" x="180" xlink:href="#m6e3c529a0c" y="630"/>
      </g>
     </g>
     <g id="text_6">
      <!-- 0 -->
      <g transform="translate(166.6375 633.799219)scale(0.1 -0.1)">
       <use xlink:href="#DejaVuSans-30"/>
      </g>
     </g>
    </g>
    <g id="ytick_2">
     <g id="line2d_7">
      <g>
       <use style="stroke:#000000;stroke-width:0.8;" x="180" xlink:href="#m6e3c529a0c" y="538.182186"/>
      </g>
     </g>
     <g id="text_7">
      <!-- 1 -->
      <defs>
       <path d="M 12.40625 8.296875 
L 28.515625 8.296875 
L 28.515625 63.921875 
L 10.984375 60.40625 
L 10.984375 69.390625 
L 28.421875 72.90625 
L 38.28125 72.90625 
L 38.28125 8.296875 
L 54.390625 8.296875 
L 54.390625 0 
L 12.40625 0 
z
" id="DejaVuSans-31"/>
      </defs>
      <g transform="translate(166.6375 541.981405)scale(0.1 -0.1)">
       <use xlink:href="#DejaVuSans-31"/>
      </g>
     </g>
    </g>
    <g id="ytick_3">
     <g id="line2d_8">
      <g>
       <use style="stroke:#000000;stroke-width:0.8;" x="180" xlink:href="#m6e3c529a0c" y="446.364372"/>
      </g>
     </g>
     <g id="text_8">
      <!-- 2 -->
      <g transform="translate(166.6375 450.163591)scale(0.1 -0.1)">
       <use xlink:href="#DejaVuSans-32"/>
      </g>
     </g>
    </g>
    <g id="ytick_4">
     <g id="line2d_9">
      <g>
       <use style="stroke:#000000;stroke-width:0.8;" x="180" xlink:href="#m6e3c529a0c" y="354.546558"/>
      </g>
     </g>
     <g id="text_9">
      <!-- 3 -->
      <defs>
       <path d="M 40.578125 39.3125 
Q 47.65625 37.796875 51.625 33 
Q 55.609375 28.21875 55.609375 21.1875 
Q 55.609375 10.40625 48.1875 4.484375 
Q 40.765625 -1.421875 27.09375 -1.421875 
Q 22.515625 -1.421875 17.65625 -0.515625 
Q 12.796875 0.390625 7.625 2.203125 
L 7.625 11.71875 
Q 11.71875 9.328125 16.59375 8.109375 
Q 21.484375 6.890625 26.8125 6.890625 
Q 36.078125 6.890625 40.9375 10.546875 
Q 45.796875 14.203125 45.796875 21.1875 
Q 45.796875 27.640625 41.28125 31.265625 
Q 36.765625 34.90625 28.71875 34.90625 
L 20.21875 34.90625 
L 20.21875 43.015625 
L 29.109375 43.015625 
Q 36.375 43.015625 40.234375 45.921875 
Q 44.09375 48.828125 44.09375 54.296875 
Q 44.09375 59.90625 40.109375 62.90625 
Q 36.140625 65.921875 28.71875 65.921875 
Q 24.65625 65.921875 20.015625 65.03125 
Q 15.375 64.15625 9.8125 62.3125 
L 9.8125 71.09375 
Q 15.4375 72.65625 20.34375 73.4375 
Q 25.25 74.21875 29.59375 74.21875 
Q 40.828125 74.21875 47.359375 69.109375 
Q 53.90625 64.015625 53.90625 55.328125 
Q 53.90625 49.265625 50.4375 45.09375 
Q 46.96875 40.921875 40.578125 39.3125 
z
" id="DejaVuSans-33"/>
      </defs>
      <g transform="translate(166.6375 358.345776)scale(0.1 -0.1)">
       <use xlink:href="#DejaVuSans-33"/>
      </g>
     </g>
    </g>
    <g id="ytick_5">
     <g id="line2d_10">
      <g>
       <use style="stroke:#000000;stroke-width:0.8;" x="180" xlink:href="#m6e3c529a0c" y="262.728744"/>
      </g>
     </g>
     <g id="text_10">
      <!-- 4 -->
      <g transform="translate(166.6375 266.527962)scale(0.1 -0.1)">
       <use xlink:href="#DejaVuSans-34"/>
      </g>
     </g>
    </g>
    <g id="ytick_6">
     <g id="line2d_11">
      <g>
       <use style="stroke:#000000;stroke-width:0.8;" x="180" xlink:href="#m6e3c529a0c" y="170.910929"/>
      </g>
     </g>
     <g id="text_11">
      <!-- 5 -->
      <defs>
       <path d="M 10.796875 72.90625 
L 49.515625 72.90625 
L 49.515625 64.59375 
L 19.828125 64.59375 
L 19.828125 46.734375 
Q 21.96875 47.46875 24.109375 47.828125 
Q 26.265625 48.1875 28.421875 48.1875 
Q 40.625 48.1875 47.75 41.5 
Q 54.890625 34.8125 54.890625 23.390625 
Q 54.890625 11.625 47.5625 5.09375 
Q 40.234375 -1.421875 26.90625 -1.421875 
Q 22.3125 -1.421875 17.546875 -0.640625 
Q 12.796875 0.140625 7.71875 1.703125 
L 7.71875 11.625 
Q 12.109375 9.234375 16.796875 8.0625 
Q 21.484375 6.890625 26.703125 6.890625 
Q 35.15625 6.890625 40.078125 11.328125 
Q 45.015625 15.765625 45.015625 23.390625 
Q 45.015625 31 40.078125 35.4375 
Q 35.15625 39.890625 26.703125 39.890625 
Q 22.75 39.890625 18.8125 39.015625 
Q 14.890625 38.140625 10.796875 36.28125 
z
" id="DejaVuSans-35"/>
      </defs>
      <g transform="translate(166.6375 174.710148)scale(0.1 -0.1)">
       <use xlink:href="#DejaVuSans-35"/>
      </g>
     </g>
    </g>
    <g id="text_12">
     <!-- Step Times [ms] -->
     <defs>
      <path d="M 53.515625 70.515625 
L 53.515625 60.890625 
Q 47.90625 63.578125 42.921875 64.890625 
Q 37.9375 66.21875 33.296875 66.21875 
Q 25.25 66.21875 20.875 63.09375 
Q 16.5 59.96875 16.5 54.203125 
Q 16.5 49.359375 19.40625 46.890625 
Q 22.3125 44.4375 30.421875 42.921875 
L 36.375 41.703125 
Q 47.40625 39.59375 52.65625 34.296875 
Q 57.90625 29 57.90625 20.125 
Q 57.90625 9.515625 50.796875 4.046875 
Q 43.703125 -1.421875 29.984375 -1.421875 
Q 24.8125 -1.421875 18.96875 -0.25 
Q 13.140625 0.921875 6.890625 3.21875 
L 6.890625 13.375 
Q 12.890625 10.015625 18.65625 8.296875 
Q 24.421875 6.59375 29.984375 6.59375 
Q 38.421875 6.59375 43.015625 9.90625 
Q 47.609375 13.234375 47.609375 19.390625 
Q 47.609375 24.75 44.3125 27.78125 
Q 41.015625 30.8125 33.5 32.328125 
L 27.484375 33.5 
Q 16.453125 35.6875 11.515625 40.375 
Q 6.59375 45.0625 6.59375 53.421875 
Q 6.59375 63.09375 13.40625 68.65625 
Q 20.21875 74.21875 32.171875 74.21875 
Q 37.3125 74.21875 42.625 73.28125 
Q 47.953125 72.359375 53.515625 70.515625 
z
" id="DejaVuSans-53"/>
      <path d="M 18.3125 70.21875 
L 18.3125 54.6875 
L 36.8125 54.6875 
L 36.8125 47.703125 
L 18.3125 47.703125 
L 18.3125 18.015625 
Q 18.3125 11.328125 20.140625 9.421875 
Q 21.96875 7.515625 27.59375 7.515625 
L 36.8125 7.515625 
L 36.8125 0 
L 27.59375 0 
Q 17.1875 0 13.234375 3.875 
Q 9.28125 7.765625 9.28125 18.015625 
L 9.28125 47.703125 
L 2.6875 47.703125 
L 2.6875 54.6875 
L 9.28125 54.6875 
L 9.28125 70.21875 
z
" id="DejaVuSans-74"/>
      <path d="M 56.203125 29.59375 
L 56.203125 25.203125 
L 14.890625 25.203125 
Q 15.484375 15.921875 20.484375 11.0625 
Q 25.484375 6.203125 34.421875 6.203125 
Q 39.59375 6.203125 44.453125 7.46875 
Q 49.3125 8.734375 54.109375 11.28125 
L 54.109375 2.78125 
Q 49.265625 0.734375 44.1875 -0.34375 
Q 39.109375 -1.421875 33.890625 -1.421875 
Q 20.796875 -1.421875 13.15625 6.1875 
Q 5.515625 13.8125 5.515625 26.8125 
Q 5.515625 40.234375 12.765625 48.109375 
Q 20.015625 56 32.328125 56 
Q 43.359375 56 49.78125 48.890625 
Q 56.203125 41.796875 56.203125 29.59375 
z
M 47.21875 32.234375 
Q 47.125 39.59375 43.09375 43.984375 
Q 39.0625 48.390625 32.421875 48.390625 
Q 24.90625 48.390625 20.390625 44.140625 
Q 15.875 39.890625 15.1875 32.171875 
z
" id="DejaVuSans-65"/>
      <path d="M 18.109375 8.203125 
L 18.109375 -20.796875 
L 9.078125 -20.796875 
L 9.078125 54.6875 
L 18.109375 54.6875 
L 18.109375 46.390625 
Q 20.953125 51.265625 25.265625 53.625 
Q 29.59375 56 35.59375 56 
Q 45.5625 56 51.78125 48.09375 
Q 58.015625 40.1875 58.015625 27.296875 
Q 58.015625 14.40625 51.78125 6.484375 
Q 45.5625 -1.421875 35.59375 -1.421875 
Q 29.59375 -1.421875 25.265625 0.953125 
Q 20.953125 3.328125 18.109375 8.203125 
z
M 48.6875 27.296875 
Q 48.6875 37.203125 44.609375 42.84375 
Q 40.53125 48.484375 33.40625 48.484375 
Q 26.265625 48.484375 22.1875 42.84375 
Q 18.109375 37.203125 18.109375 27.296875 
Q 18.109375 17.390625 22.1875 11.75 
Q 26.265625 6.109375 33.40625 6.109375 
Q 40.53125 6.109375 44.609375 11.75 
Q 48.6875 17.390625 48.6875 27.296875 
z
" id="DejaVuSans-70"/>
      <path id="DejaVuSans-20"/>
      <path d="M -0.296875 72.90625 
L 61.375 72.90625 
L 61.375 64.59375 
L 35.5 64.59375 
L 35.5 0 
L 25.59375 0 
L 25.59375 64.59375 
L -0.296875 64.59375 
z
" id="DejaVuSans-54"/>
      <path d="M 9.421875 54.6875 
L 18.40625 54.6875 
L 18.40625 0 
L 9.421875 0 
z
M 9.421875 75.984375 
L 18.40625 75.984375 
L 18.40625 64.59375 
L 9.421875 64.59375 
z
" id="DejaVuSans-69"/>
      <path d="M 52 44.1875 
Q 55.375 50.25 60.0625 53.125 
Q 64.75 56 71.09375 56 
Q 79.640625 56 84.28125 50.015625 
Q 88.921875 44.046875 88.921875 33.015625 
L 88.921875 0 
L 79.890625 0 
L 79.890625 32.71875 
Q 79.890625 40.578125 77.09375 44.375 
Q 74.3125 48.1875 68.609375 48.1875 
Q 61.625 48.1875 57.5625 43.546875 
Q 53.515625 38.921875 53.515625 30.90625 
L 53.515625 0 
L 44.484375 0 
L 44.484375 32.71875 
Q 44.484375 40.625 41.703125 44.40625 
Q 38.921875 48.1875 33.109375 48.1875 
Q 26.21875 48.1875 22.15625 43.53125 
Q 18.109375 38.875 18.109375 30.90625 
L 18.109375 0 
L 9.078125 0 
L 9.078125 54.6875 
L 18.109375 54.6875 
L 18.109375 46.1875 
Q 21.1875 51.21875 25.484375 53.609375 
Q 29.78125 56 35.6875 56 
Q 41.65625 56 45.828125 52.96875 
Q 50 49.953125 52 44.1875 
z
" id="DejaVuSans-6d"/>
      <path d="M 44.28125 53.078125 
L 44.28125 44.578125 
Q 40.484375 46.53125 36.375 47.5 
Q 32.28125 48.484375 27.875 48.484375 
Q 21.1875 48.484375 17.84375 46.4375 
Q 14.5 44.390625 14.5 40.28125 
Q 14.5 37.15625 16.890625 35.375 
Q 19.28125 33.59375 26.515625 31.984375 
L 29.59375 31.296875 
Q 39.15625 29.25 43.1875 25.515625 
Q 47.21875 21.78125 47.21875 15.09375 
Q 47.21875 7.46875 41.1875 3.015625 
Q 35.15625 -1.421875 24.609375 -1.421875 
Q 20.21875 -1.421875 15.453125 -0.5625 
Q 10.6875 0.296875 5.421875 2 
L 5.421875 11.28125 
Q 10.40625 8.6875 15.234375 7.390625 
Q 20.0625 6.109375 24.8125 6.109375 
Q 31.15625 6.109375 34.5625 8.28125 
Q 37.984375 10.453125 37.984375 14.40625 
Q 37.984375 18.0625 35.515625 20.015625 
Q 33.0625 21.96875 24.703125 23.78125 
L 21.578125 24.515625 
Q 13.234375 26.265625 9.515625 29.90625 
Q 5.8125 33.546875 5.8125 39.890625 
Q 5.8125 47.609375 11.28125 51.796875 
Q 16.75 56 26.8125 56 
Q 31.78125 56 36.171875 55.265625 
Q 40.578125 54.546875 44.28125 53.078125 
z
" id="DejaVuSans-73"/>
      <path d="M 8.59375 75.984375 
L 29.296875 75.984375 
L 29.296875 69 
L 17.578125 69 
L 17.578125 -6.203125 
L 29.296875 -6.203125 
L 29.296875 -13.1875 
L 8.59375 -13.1875 
z
" id="DejaVuSans-5b"/>
      <path d="M 30.421875 75.984375 
L 30.421875 -13.1875 
L 9.71875 -13.1875 
L 9.71875 -6.203125 
L 21.390625 -6.203125 
L 21.390625 69 
L 9.71875 69 
L 9.71875 75.984375 
z
" id="DejaVuSans-5d"/>
     </defs>
     <g transform="translate(160.557812 399.132031)rotate(-90)scale(0.1 -0.1)">
      <use xlink:href="#DejaVuSans-53"/>
      <use x="63.476562" xlink:href="#DejaVuSans-74"/>
      <use x="102.685547" xlink:href="#DejaVuSans-65"/>
      <use x="164.208984" xlink:href="#DejaVuSans-70"/>
      <use x="227.685547" xlink:href="#DejaVuSans-20"/>
      <use x="259.472656" xlink:href="#DejaVuSans-54"/>
      <use x="320.509766" xlink:href="#DejaVuSans-69"/>
      <use x="348.292969" xlink:href="#DejaVuSans-6d"/>
      <use x="445.705078" xlink:href="#DejaVuSans-65"/>
      <use x="507.228516" xlink:href="#DejaVuSans-73"/>
      <use x="559.328125" xlink:href="#DejaVuSans-20"/>
      <use x="591.115234" xlink:href="#DejaVuSans-5b"/>
      <use x="630.128906" xlink:href="#DejaVuSans-6d"/>
      <use x="727.541016" xlink:href="#DejaVuSans-73"/>
      <use x="779.640625" xlink:href="#DejaVuSans-5d"/>
     </g>
    </g>
   </g>
   <g id="patch_185">
    <path d="M 180 630 
L 180 86.4 
" style="fill:none;stroke:#000000;stroke-linecap:square;stroke-linejoin:miter;stroke-width:0.8;"/>
   </g>
   <g id="patch_186">
    <path d="M 1296 630 
L 1296 86.4 
" style="fill:none;stroke:#000000;stroke-linecap:square;stroke-linejoin:miter;stroke-width:0.8;"/>
   </g>
   <g id="patch_187">
    <path d="M 180 630 
L 1296 630 
" style="fill:none;stroke:#000000;stroke-linecap:square;stroke-linejoin:miter;stroke-width:0.8;"/>
   </g>
   <g id="patch_188">
    <path d="M 180 86.4 
L 1296 86.4 
" style="fill:none;stroke:#000000;stroke-linecap:square;stroke-linejoin:miter;stroke-width:0.8;"/>
   </g>
   <g id="text_13">
    <!-- Lidar Tracking 1.657 ms -->
    <defs>
     <path d="M 9.8125 72.90625 
L 19.671875 72.90625 
L 19.671875 8.296875 
L 55.171875 8.296875 
L 55.171875 0 
L 9.8125 0 
z
" id="DejaVuSans-4c"/>
     <path d="M 45.40625 46.390625 
L 45.40625 75.984375 
L 54.390625 75.984375 
L 54.390625 0 
L 45.40625 0 
L 45.40625 8.203125 
Q 42.578125 3.328125 38.25 0.953125 
Q 33.9375 -1.421875 27.875 -1.421875 
Q 17.96875 -1.421875 11.734375 6.484375 
Q 5.515625 14.40625 5.515625 27.296875 
Q 5.515625 40.1875 11.734375 48.09375 
Q 17.96875 56 27.875 56 
Q 33.9375 56 38.25 53.625 
Q 42.578125 51.265625 45.40625 46.390625 
z
M 14.796875 27.296875 
Q 14.796875 17.390625 18.875 11.75 
Q 22.953125 6.109375 30.078125 6.109375 
Q 37.203125 6.109375 41.296875 11.75 
Q 45.40625 17.390625 45.40625 27.296875 
Q 45.40625 37.203125 41.296875 42.84375 
Q 37.203125 48.484375 30.078125 48.484375 
Q 22.953125 48.484375 18.875 42.84375 
Q 14.796875 37.203125 14.796875 27.296875 
z
" id="DejaVuSans-64"/>
     <path d="M 34.28125 27.484375 
Q 23.390625 27.484375 19.1875 25 
Q 14.984375 22.515625 14.984375 16.5 
Q 14.984375 11.71875 18.140625 8.90625 
Q 21.296875 6.109375 26.703125 6.109375 
Q 34.1875 6.109375 38.703125 11.40625 
Q 43.21875 16.703125 43.21875 25.484375 
L 43.21875 27.484375 
z
M 52.203125 31.203125 
L 52.203125 0 
L 43.21875 0 
L 43.21875 8.296875 
Q 40.140625 3.328125 35.546875 0.953125 
Q 30.953125 -1.421875 24.3125 -1.421875 
Q 15.921875 -1.421875 10.953125 3.296875 
Q 6 8.015625 6 15.921875 
Q 6 25.140625 12.171875 29.828125 
Q 18.359375 34.515625 30.609375 34.515625 
L 43.21875 34.515625 
L 43.21875 35.40625 
Q 43.21875 41.609375 39.140625 45 
Q 35.0625 48.390625 27.6875 48.390625 
Q 23 48.390625 18.546875 47.265625 
Q 14.109375 46.140625 10.015625 43.890625 
L 10.015625 52.203125 
Q 14.9375 54.109375 19.578125 55.046875 
Q 24.21875 56 28.609375 56 
Q 40.484375 56 46.34375 49.84375 
Q 52.203125 43.703125 52.203125 31.203125 
z
" id="DejaVuSans-61"/>
     <path d="M 41.109375 46.296875 
Q 39.59375 47.171875 37.8125 47.578125 
Q 36.03125 48 33.890625 48 
Q 26.265625 48 22.1875 43.046875 
Q 18.109375 38.09375 18.109375 28.8125 
L 18.109375 0 
L 9.078125 0 
L 9.078125 54.6875 
L 18.109375 54.6875 
L 18.109375 46.1875 
Q 20.953125 51.171875 25.484375 53.578125 
Q 30.03125 56 36.53125 56 
Q 37.453125 56 38.578125 55.875 
Q 39.703125 55.765625 41.0625 55.515625 
z
" id="DejaVuSans-72"/>
     <path d="M 48.78125 52.59375 
L 48.78125 44.1875 
Q 44.96875 46.296875 41.140625 47.34375 
Q 37.3125 48.390625 33.40625 48.390625 
Q 24.65625 48.390625 19.8125 42.84375 
Q 14.984375 37.3125 14.984375 27.296875 
Q 14.984375 17.28125 19.8125 11.734375 
Q 24.65625 6.203125 33.40625 6.203125 
Q 37.3125 6.203125 41.140625 7.25 
Q 44.96875 8.296875 48.78125 10.40625 
L 48.78125 2.09375 
Q 45.015625 0.34375 40.984375 -0.53125 
Q 36.96875 -1.421875 32.421875 -1.421875 
Q 20.0625 -1.421875 12.78125 6.34375 
Q 5.515625 14.109375 5.515625 27.296875 
Q 5.515625 40.671875 12.859375 48.328125 
Q 20.21875 56 33.015625 56 
Q 37.15625 56 41.109375 55.140625 
Q 45.0625 54.296875 48.78125 52.59375 
z
" id="DejaVuSans-63"/>
     <path d="M 9.078125 75.984375 
L 18.109375 75.984375 
L 18.109375 31.109375 
L 44.921875 54.6875 
L 56.390625 54.6875 
L 27.390625 29.109375 
L 57.625 0 
L 45.90625 0 
L 18.109375 26.703125 
L 18.109375 0 
L 9.078125 0 
z
" id="DejaVuSans-6b"/>
     <path d="M 54.890625 33.015625 
L 54.890625 0 
L 45.90625 0 
L 45.90625 32.71875 
Q 45.90625 40.484375 42.875 44.328125 
Q 39.84375 48.1875 33.796875 48.1875 
Q 26.515625 48.1875 22.3125 43.546875 
Q 18.109375 38.921875 18.109375 30.90625 
L 18.109375 0 
L 9.078125 0 
L 9.078125 54.6875 
L 18.109375 54.6875 
L 18.109375 46.1875 
Q 21.34375 51.125 25.703125 53.5625 
Q 30.078125 56 35.796875 56 
Q 45.21875 56 50.046875 50.171875 
Q 54.890625 44.34375 54.890625 33.015625 
z
" id="DejaVuSans-6e"/>
     <path d="M 45.40625 27.984375 
Q 45.40625 37.75 41.375 43.109375 
Q 37.359375 48.484375 30.078125 48.484375 
Q 22.859375 48.484375 18.828125 43.109375 
Q 14.796875 37.75 14.796875 27.984375 
Q 14.796875 18.265625 18.828125 12.890625 
Q 22.859375 7.515625 30.078125 7.515625 
Q 37.359375 7.515625 41.375 12.890625 
Q 45.40625 18.265625 45.40625 27.984375 
z
M 54.390625 6.78125 
Q 54.390625 -7.171875 48.1875 -13.984375 
Q 42 -20.796875 29.203125 -20.796875 
Q 24.46875 -20.796875 20.265625 -20.09375 
Q 16.0625 -19.390625 12.109375 -17.921875 
L 12.109375 -9.1875 
Q 16.0625 -11.328125 19.921875 -12.34375 
Q 23.78125 -13.375 27.78125 -13.375 
Q 36.625 -13.375 41.015625 -8.765625 
Q 45.40625 -4.15625 45.40625 5.171875 
L 45.40625 9.625 
Q 42.625 4.78125 38.28125 2.390625 
Q 33.9375 0 27.875 0 
Q 17.828125 0 11.671875 7.65625 
Q 5.515625 15.328125 5.515625 27.984375 
Q 5.515625 40.671875 11.671875 48.328125 
Q 17.828125 56 27.875 56 
Q 33.9375 56 38.28125 53.609375 
Q 42.625 51.21875 45.40625 46.390625 
L 45.40625 54.6875 
L 54.390625 54.6875 
z
" id="DejaVuSans-67"/>
     <path d="M 10.6875 12.40625 
L 21 12.40625 
L 21 0 
L 10.6875 0 
z
" id="DejaVuSans-2e"/>
     <path d="M 8.203125 72.90625 
L 55.078125 72.90625 
L 55.078125 68.703125 
L 28.609375 0 
L 18.3125 0 
L 43.21875 64.59375 
L 8.203125 64.59375 
z
" id="DejaVuSans-37"/>
    </defs>
    <g transform="translate(665.323125 80.4)scale(0.12 -0.12)">
     <use xlink:href="#DejaVuSans-4c"/>
     <use x="55.712891" xlink:href="#DejaVuSans-69"/>
     <use x="83.496094" xlink:href="#DejaVuSans-64"/>
     <use x="146.972656" xlink:href="#DejaVuSans-61"/>
     <use x="208.251953" xlink:href="#DejaVuSans-72"/>
     <use x="249.365234" xlink:href="#DejaVuSans-20"/>
     <use x="281.152344" xlink:href="#DejaVuSans-54"/>
     <use x="342.017578" xlink:href="#DejaVuSans-72"/>
     <use x="383.130859" xlink:href="#DejaVuSans-61"/>
     <use x="444.410156" xlink:href="#DejaVuSans-63"/>
     <use x="499.390625" xlink:href="#DejaVuSans-6b"/>
     <use x="557.300781" xlink:href="#DejaVuSans-69"/>
     <use x="585.083984" xlink:href="#DejaVuSans-6e"/>
     <use x="648.462891" xlink:href="#DejaVuSans-67"/>
     <use x="711.939453" xlink:href="#DejaVuSans-20"/>
     <use x="743.726562" xlink:href="#DejaVuSans-31"/>
     <use x="807.349609" xlink:href="#DejaVuSans-2e"/>
     <use x="839.136719" xlink:href="#DejaVuSans-36"/>
     <use x="902.759766" xlink:href="#DejaVuSans-35"/>
     <use x="966.382812" xlink:href="#DejaVuSans-37"/>
     <use x="1030.005859" xlink:href="#DejaVuSans-20"/>
     <use x="1061.792969" xlink:href="#DejaVuSans-6d"/>
     <use x="1159.205078" xlink:href="#DejaVuSans-73"/>
    </g>
   </g>
   <g id="legend_1">
    <g id="patch_189">
     <path d="M 187 123.75625 
L 285.165625 123.75625 
Q 287.165625 123.75625 287.165625 121.75625 
L 287.165625 93.4 
Q 287.165625 91.4 285.165625 91.4 
L 187 91.4 
Q 185 91.4 185 93.4 
L 185 121.75625 
Q 185 123.75625 187 123.75625 
z
" style="fill:#ffffff;opacity:0.8;stroke:#cccccc;stroke-linejoin:miter;"/>
    </g>
    <g id="patch_190">
     <path d="M 189 102.998437 
L 209 102.998437 
L 209 95.998437 
L 189 95.998437 
z
" style="fill:#1f77b4;"/>
    </g>
    <g id="text_14">
     <!-- Tracking -->
     <g transform="translate(217 102.998437)scale(0.1 -0.1)">
      <use xlink:href="#DejaVuSans-54"/>
      <use x="60.865234" xlink:href="#DejaVuSans-72"/>
      <use x="101.978516" xlink:href="#DejaVuSans-61"/>
      <use x="163.257812" xlink:href="#DejaVuSans-63"/>
      <use x="218.238281" xlink:href="#DejaVuSans-6b"/>
      <use x="276.148438" xlink:href="#DejaVuSans-69"/>
      <use x="303.931641" xlink:href="#DejaVuSans-6e"/>
      <use x="367.310547" xlink:href="#DejaVuSans-67"/>
     </g>
    </g>
    <g id="patch_191">
     <path d="M 189 117.676562 
L 209 117.676562 
L 209 110.676562 
L 189 110.676562 
z
" style="fill:#ff7f0e;"/>
    </g>
    <g id="text_15">
     <!-- Classification -->
     <defs>
      <path d="M 64.40625 67.28125 
L 64.40625 56.890625 
Q 59.421875 61.53125 53.78125 63.8125 
Q 48.140625 66.109375 41.796875 66.109375 
Q 29.296875 66.109375 22.65625 58.46875 
Q 16.015625 50.828125 16.015625 36.375 
Q 16.015625 21.96875 22.65625 14.328125 
Q 29.296875 6.6875 41.796875 6.6875 
Q 48.140625 6.6875 53.78125 8.984375 
Q 59.421875 11.28125 64.40625 15.921875 
L 64.40625 5.609375 
Q 59.234375 2.09375 53.4375 0.328125 
Q 47.65625 -1.421875 41.21875 -1.421875 
Q 24.65625 -1.421875 15.125 8.703125 
Q 5.609375 18.84375 5.609375 36.375 
Q 5.609375 53.953125 15.125 64.078125 
Q 24.65625 74.21875 41.21875 74.21875 
Q 47.75 74.21875 53.53125 72.484375 
Q 59.328125 70.75 64.40625 67.28125 
z
" id="DejaVuSans-43"/>
      <path d="M 9.421875 75.984375 
L 18.40625 75.984375 
L 18.40625 0 
L 9.421875 0 
z
" id="DejaVuSans-6c"/>
      <path d="M 37.109375 75.984375 
L 37.109375 68.5 
L 28.515625 68.5 
Q 23.6875 68.5 21.796875 66.546875 
Q 19.921875 64.59375 19.921875 59.515625 
L 19.921875 54.6875 
L 34.71875 54.6875 
L 34.71875 47.703125 
L 19.921875 47.703125 
L 19.921875 0 
L 10.890625 0 
L 10.890625 47.703125 
L 2.296875 47.703125 
L 2.296875 54.6875 
L 10.890625 54.6875 
L 10.890625 58.5 
Q 10.890625 67.625 15.140625 71.796875 
Q 19.390625 75.984375 28.609375 75.984375 
z
" id="DejaVuSans-66"/>
      <path d="M 30.609375 48.390625 
Q 23.390625 48.390625 19.1875 42.75 
Q 14.984375 37.109375 14.984375 27.296875 
Q 14.984375 17.484375 19.15625 11.84375 
Q 23.34375 6.203125 30.609375 6.203125 
Q 37.796875 6.203125 41.984375 11.859375 
Q 46.1875 17.53125 46.1875 27.296875 
Q 46.1875 37.015625 41.984375 42.703125 
Q 37.796875 48.390625 30.609375 48.390625 
z
M 30.609375 56 
Q 42.328125 56 49.015625 48.375 
Q 55.71875 40.765625 55.71875 27.296875 
Q 55.71875 13.875 49.015625 6.21875 
Q 42.328125 -1.421875 30.609375 -1.421875 
Q 18.84375 -1.421875 12.171875 6.21875 
Q 5.515625 13.875 5.515625 27.296875 
Q 5.515625 40.765625 12.171875 48.375 
Q 18.84375 56 30.609375 56 
z
" id="DejaVuSans-6f"/>
     </defs>
     <g transform="translate(217 117.676562)scale(0.1 -0.1)">
      <use xlink:href="#DejaVuSans-43"/>
      <use x="69.824219" xlink:href="#DejaVuSans-6c"/>
      <use x="97.607422" xlink:href="#DejaVuSans-61"/>
      <use x="158.886719" xlink:href="#DejaVuSans-73"/>
      <use x="210.986328" xlink:href="#DejaVuSans-73"/>
      <use x="263.085938" xlink:href="#DejaVuSans-69"/>
      <use x="290.869141" xlink:href="#DejaVuSans-66"/>
      <use x="326.074219" xlink:href="#DejaVuSans-69"/>
      <use x="353.857422" xlink:href="#DejaVuSans-63"/>
      <use x="408.837891" xlink:href="#DejaVuSans-61"/>
      <use x="470.117188" xlink:href="#DejaVuSans-74"/>
      <use x="509.326172" xlink:href="#DejaVuSans-69"/>
      <use x="537.109375" xlink:href="#DejaVuSans-6f"/>
      <use x="598.291016" xlink:href="#DejaVuSans-6e"/>
     </g>
    </g>
   </g>
  </g>
  <g id="axes_2">
   <g id="matplotlib.axis_3">
    <g id="ytick_7">
     <g id="line2d_12">
      <defs>
       <path d="M 0 0 
L 3.5 0 
" id="mc67a4a07f5" style="stroke:#000000;stroke-width:0.8;"/>
      </defs>
      <g>
       <use style="stroke:#000000;stroke-width:0.8;" x="1296" xlink:href="#mc67a4a07f5" y="605.290909"/>
      </g>
     </g>
     <g id="text_16">
      <!-- 0 -->
      <g transform="translate(1303 609.090128)scale(0.1 -0.1)">
       <use xlink:href="#DejaVuSans-30"/>
      </g>
     </g>
    </g>
    <g id="ytick_8">
     <g id="line2d_13">
      <g>
       <use style="stroke:#000000;stroke-width:0.8;" x="1296" xlink:href="#mc67a4a07f5" y="530.414876"/>
      </g>
     </g>
     <g id="text_17">
      <!-- 5 -->
      <g transform="translate(1303 534.214095)scale(0.1 -0.1)">
       <use xlink:href="#DejaVuSans-35"/>
      </g>
     </g>
    </g>
    <g id="ytick_9">
     <g id="line2d_14">
      <g>
       <use style="stroke:#000000;stroke-width:0.8;" x="1296" xlink:href="#mc67a4a07f5" y="455.538843"/>
      </g>
     </g>
     <g id="text_18">
      <!-- 10 -->
      <g transform="translate(1303 459.338062)scale(0.1 -0.1)">
       <use xlink:href="#DejaVuSans-31"/>
       <use x="63.623047" xlink:href="#DejaVuSans-30"/>
      </g>
     </g>
    </g>
    <g id="ytick_10">
     <g id="line2d_15">
      <g>
       <use style="stroke:#000000;stroke-width:0.8;" x="1296" xlink:href="#mc67a4a07f5" y="380.66281"/>
      </g>
     </g>
     <g id="text_19">
      <!-- 15 -->
      <g transform="translate(1303 384.462029)scale(0.1 -0.1)">
       <use xlink:href="#DejaVuSans-31"/>
       <use x="63.623047" xlink:href="#DejaVuSans-35"/>
      </g>
     </g>
    </g>
    <g id="ytick_11">
     <g id="line2d_16">
      <g>
       <use style="stroke:#000000;stroke-width:0.8;" x="1296" xlink:href="#mc67a4a07f5" y="305.786777"/>
      </g>
     </g>
     <g id="text_20">
      <!-- 20 -->
      <g transform="translate(1303 309.585996)scale(0.1 -0.1)">
       <use xlink:href="#DejaVuSans-32"/>
       <use x="63.623047" xlink:href="#DejaVuSans-30"/>
      </g>
     </g>
    </g>
    <g id="ytick_12">
     <g id="line2d_17">
      <g>
       <use style="stroke:#000000;stroke-width:0.8;" x="1296" xlink:href="#mc67a4a07f5" y="230.910744"/>
      </g>
     </g>
     <g id="text_21">
      <!-- 25 -->
      <g transform="translate(1303 234.709963)scale(0.1 -0.1)">
       <use xlink:href="#DejaVuSans-32"/>
       <use x="63.623047" xlink:href="#DejaVuSans-35"/>
      </g>
     </g>
    </g>
    <g id="ytick_13">
     <g id="line2d_18">
      <g>
       <use style="stroke:#000000;stroke-width:0.8;" x="1296" xlink:href="#mc67a4a07f5" y="156.034711"/>
      </g>
     </g>
     <g id="text_22">
      <!-- 30 -->
      <g transform="translate(1303 159.833929)scale(0.1 -0.1)">
       <use xlink:href="#DejaVuSans-33"/>
       <use x="63.623047" xlink:href="#DejaVuSans-30"/>
      </g>
     </g>
    </g>
    <g id="text_23">
     <!-- Lidar Obstacles -->
     <defs>
      <path d="M 39.40625 66.21875 
Q 28.65625 66.21875 22.328125 58.203125 
Q 16.015625 50.203125 16.015625 36.375 
Q 16.015625 22.609375 22.328125 14.59375 
Q 28.65625 6.59375 39.40625 6.59375 
Q 50.140625 6.59375 56.421875 14.59375 
Q 62.703125 22.609375 62.703125 36.375 
Q 62.703125 50.203125 56.421875 58.203125 
Q 50.140625 66.21875 39.40625 66.21875 
z
M 39.40625 74.21875 
Q 54.734375 74.21875 63.90625 63.9375 
Q 73.09375 53.65625 73.09375 36.375 
Q 73.09375 19.140625 63.90625 8.859375 
Q 54.734375 -1.421875 39.40625 -1.421875 
Q 24.03125 -1.421875 14.8125 8.828125 
Q 5.609375 19.09375 5.609375 36.375 
Q 5.609375 53.65625 14.8125 63.9375 
Q 24.03125 74.21875 39.40625 74.21875 
z
" id="DejaVuSans-4f"/>
      <path d="M 48.6875 27.296875 
Q 48.6875 37.203125 44.609375 42.84375 
Q 40.53125 48.484375 33.40625 48.484375 
Q 26.265625 48.484375 22.1875 42.84375 
Q 18.109375 37.203125 18.109375 27.296875 
Q 18.109375 17.390625 22.1875 11.75 
Q 26.265625 6.109375 33.40625 6.109375 
Q 40.53125 6.109375 44.609375 11.75 
Q 48.6875 17.390625 48.6875 27.296875 
z
M 18.109375 46.390625 
Q 20.953125 51.265625 25.265625 53.625 
Q 29.59375 56 35.59375 56 
Q 45.5625 56 51.78125 48.09375 
Q 58.015625 40.1875 58.015625 27.296875 
Q 58.015625 14.40625 51.78125 6.484375 
Q 45.5625 -1.421875 35.59375 -1.421875 
Q 29.59375 -1.421875 25.265625 0.953125 
Q 20.953125 3.328125 18.109375 8.203125 
L 18.109375 0 
L 9.078125 0 
L 9.078125 75.984375 
L 18.109375 75.984375 
z
" id="DejaVuSans-62"/>
     </defs>
     <g transform="translate(1327.323437 396.816406)rotate(-90)scale(0.1 -0.1)">
      <use xlink:href="#DejaVuSans-4c"/>
      <use x="55.712891" xlink:href="#DejaVuSans-69"/>
      <use x="83.496094" xlink:href="#DejaVuSans-64"/>
      <use x="146.972656" xlink:href="#DejaVuSans-61"/>
      <use x="208.251953" xlink:href="#DejaVuSans-72"/>
      <use x="249.365234" xlink:href="#DejaVuSans-20"/>
      <use x="281.152344" xlink:href="#DejaVuSans-4f"/>
      <use x="359.863281" xlink:href="#DejaVuSans-62"/>
      <use x="423.339844" xlink:href="#DejaVuSans-73"/>
      <use x="475.439453" xlink:href="#DejaVuSans-74"/>
      <use x="514.648438" xlink:href="#DejaVuSans-61"/>
      <use x="575.927734" xlink:href="#DejaVuSans-63"/>
      <use x="630.908203" xlink:href="#DejaVuSans-6c"/>
      <use x="658.691406" xlink:href="#DejaVuSans-65"/>
      <use x="720.214844" xlink:href="#DejaVuSans-73"/>
     </g>
    </g>
   </g>
   <g id="line2d_19">
    <defs>
     <path d="M 0 3 
C 0.795609 3 1.55874 2.683901 2.12132 2.12132 
C 2.683901 1.55874 3 0.795609 3 0 
C 3 -0.795609 2.683901 -1.55874 2.12132 -2.12132 
C 1.55874 -2.683901 0.795609 -3 0 -3 
C -0.795609 -3 -1.55874 -2.683901 -2.12132 -2.12132 
C -2.683901 -1.55874 -3 -0.795609 -3 0 
C -3 0.795609 -2.683901 1.55874 -2.12132 2.12132 
C -1.55874 2.683901 -0.795609 3 0 3 
z
" id="m64c2967281" style="stroke:#ff0000;"/>
    </defs>
    <g clip-path="url(#pf917fe2577)">
     <use style="fill:#ff0000;stroke:#ff0000;" x="233.529884" xlink:href="#m64c2967281" y="126.084298"/>
     <use style="fill:#ff0000;stroke:#ff0000;" x="244.740331" xlink:href="#m64c2967281" y="425.58843"/>
     <use style="fill:#ff0000;stroke:#ff0000;" x="255.950779" xlink:href="#m64c2967281" y="605.290909"/>
     <use style="fill:#ff0000;stroke:#ff0000;" x="267.161226" xlink:href="#m64c2967281" y="440.563636"/>
     <use style="fill:#ff0000;stroke:#ff0000;" x="278.371673" xlink:href="#m64c2967281" y="455.538843"/>
     <use style="fill:#ff0000;stroke:#ff0000;" x="289.58212" xlink:href="#m64c2967281" y="515.439669"/>
     <use style="fill:#ff0000;stroke:#ff0000;" x="300.792567" xlink:href="#m64c2967281" y="200.960331"/>
     <use style="fill:#ff0000;stroke:#ff0000;" x="312.003014" xlink:href="#m64c2967281" y="425.58843"/>
     <use style="fill:#ff0000;stroke:#ff0000;" x="323.213461" xlink:href="#m64c2967281" y="470.51405"/>
     <use style="fill:#ff0000;stroke:#ff0000;" x="334.423908" xlink:href="#m64c2967281" y="530.414876"/>
     <use style="fill:#ff0000;stroke:#ff0000;" x="345.634355" xlink:href="#m64c2967281" y="410.613223"/>
     <use style="fill:#ff0000;stroke:#ff0000;" x="356.844802" xlink:href="#m64c2967281" y="530.414876"/>
     <use style="fill:#ff0000;stroke:#ff0000;" x="368.055249" xlink:href="#m64c2967281" y="470.51405"/>
     <use style="fill:#ff0000;stroke:#ff0000;" x="379.265696" xlink:href="#m64c2967281" y="485.489256"/>
     <use style="fill:#ff0000;stroke:#ff0000;" x="390.476143" xlink:href="#m64c2967281" y="485.489256"/>
     <use style="fill:#ff0000;stroke:#ff0000;" x="401.68659" xlink:href="#m64c2967281" y="545.390083"/>
     <use style="fill:#ff0000;stroke:#ff0000;" x="412.897037" xlink:href="#m64c2967281" y="590.315702"/>
     <use style="fill:#ff0000;stroke:#ff0000;" x="424.107484" xlink:href="#m64c2967281" y="395.638017"/>
     <use style="fill:#ff0000;stroke:#ff0000;" x="435.317931" xlink:href="#m64c2967281" y="590.315702"/>
     <use style="fill:#ff0000;stroke:#ff0000;" x="446.528378" xlink:href="#m64c2967281" y="500.464463"/>
     <use style="fill:#ff0000;stroke:#ff0000;" x="457.738825" xlink:href="#m64c2967281" y="395.638017"/>
     <use style="fill:#ff0000;stroke:#ff0000;" x="468.949272" xlink:href="#m64c2967281" y="365.687603"/>
     <use style="fill:#ff0000;stroke:#ff0000;" x="480.159719" xlink:href="#m64c2967281" y="590.315702"/>
     <use style="fill:#ff0000;stroke:#ff0000;" x="491.370166" xlink:href="#m64c2967281" y="395.638017"/>
     <use style="fill:#ff0000;stroke:#ff0000;" x="502.580613" xlink:href="#m64c2967281" y="605.290909"/>
     <use style="fill:#ff0000;stroke:#ff0000;" x="513.79106" xlink:href="#m64c2967281" y="545.390083"/>
     <use style="fill:#ff0000;stroke:#ff0000;" x="525.001507" xlink:href="#m64c2967281" y="440.563636"/>
     <use style="fill:#ff0000;stroke:#ff0000;" x="536.211954" xlink:href="#m64c2967281" y="575.340496"/>
     <use style="fill:#ff0000;stroke:#ff0000;" x="547.422401" xlink:href="#m64c2967281" y="590.315702"/>
     <use style="fill:#ff0000;stroke:#ff0000;" x="558.632848" xlink:href="#m64c2967281" y="530.414876"/>
     <use style="fill:#ff0000;stroke:#ff0000;" x="569.843295" xlink:href="#m64c2967281" y="380.66281"/>
     <use style="fill:#ff0000;stroke:#ff0000;" x="581.053742" xlink:href="#m64c2967281" y="515.439669"/>
     <use style="fill:#ff0000;stroke:#ff0000;" x="592.264189" xlink:href="#m64c2967281" y="156.034711"/>
     <use style="fill:#ff0000;stroke:#ff0000;" x="603.474636" xlink:href="#m64c2967281" y="545.390083"/>
     <use style="fill:#ff0000;stroke:#ff0000;" x="614.685083" xlink:href="#m64c2967281" y="500.464463"/>
     <use style="fill:#ff0000;stroke:#ff0000;" x="625.89553" xlink:href="#m64c2967281" y="545.390083"/>
     <use style="fill:#ff0000;stroke:#ff0000;" x="637.105977" xlink:href="#m64c2967281" y="425.58843"/>
     <use style="fill:#ff0000;stroke:#ff0000;" x="648.316424" xlink:href="#m64c2967281" y="545.390083"/>
     <use style="fill:#ff0000;stroke:#ff0000;" x="659.526871" xlink:href="#m64c2967281" y="470.51405"/>
     <use style="fill:#ff0000;stroke:#ff0000;" x="670.737318" xlink:href="#m64c2967281" y="380.66281"/>
     <use style="fill:#ff0000;stroke:#ff0000;" x="681.947765" xlink:href="#m64c2967281" y="380.66281"/>
     <use style="fill:#ff0000;stroke:#ff0000;" x="693.158212" xlink:href="#m64c2967281" y="425.58843"/>
     <use style="fill:#ff0000;stroke:#ff0000;" x="704.368659" xlink:href="#m64c2967281" y="545.390083"/>
     <use style="fill:#ff0000;stroke:#ff0000;" x="715.579106" xlink:href="#m64c2967281" y="530.414876"/>
     <use style="fill:#ff0000;stroke:#ff0000;" x="726.789553" xlink:href="#m64c2967281" y="605.290909"/>
     <use style="fill:#ff0000;stroke:#ff0000;" x="738" xlink:href="#m64c2967281" y="440.563636"/>
     <use style="fill:#ff0000;stroke:#ff0000;" x="749.210447" xlink:href="#m64c2967281" y="365.687603"/>
     <use style="fill:#ff0000;stroke:#ff0000;" x="760.420894" xlink:href="#m64c2967281" y="605.290909"/>
     <use style="fill:#ff0000;stroke:#ff0000;" x="771.631341" xlink:href="#m64c2967281" y="335.73719"/>
     <use style="fill:#ff0000;stroke:#ff0000;" x="782.841788" xlink:href="#m64c2967281" y="425.58843"/>
     <use style="fill:#ff0000;stroke:#ff0000;" x="794.052235" xlink:href="#m64c2967281" y="575.340496"/>
     <use style="fill:#ff0000;stroke:#ff0000;" x="805.262682" xlink:href="#m64c2967281" y="470.51405"/>
     <use style="fill:#ff0000;stroke:#ff0000;" x="816.473129" xlink:href="#m64c2967281" y="500.464463"/>
     <use style="fill:#ff0000;stroke:#ff0000;" x="827.683576" xlink:href="#m64c2967281" y="545.390083"/>
     <use style="fill:#ff0000;stroke:#ff0000;" x="838.894023" xlink:href="#m64c2967281" y="185.985124"/>
     <use style="fill:#ff0000;stroke:#ff0000;" x="850.10447" xlink:href="#m64c2967281" y="545.390083"/>
     <use style="fill:#ff0000;stroke:#ff0000;" x="861.314917" xlink:href="#m64c2967281" y="335.73719"/>
     <use style="fill:#ff0000;stroke:#ff0000;" x="872.525364" xlink:href="#m64c2967281" y="545.390083"/>
     <use style="fill:#ff0000;stroke:#ff0000;" x="883.735811" xlink:href="#m64c2967281" y="560.365289"/>
     <use style="fill:#ff0000;stroke:#ff0000;" x="894.946258" xlink:href="#m64c2967281" y="440.563636"/>
     <use style="fill:#ff0000;stroke:#ff0000;" x="906.156705" xlink:href="#m64c2967281" y="275.836364"/>
     <use style="fill:#ff0000;stroke:#ff0000;" x="917.367152" xlink:href="#m64c2967281" y="560.365289"/>
     <use style="fill:#ff0000;stroke:#ff0000;" x="928.577599" xlink:href="#m64c2967281" y="410.613223"/>
     <use style="fill:#ff0000;stroke:#ff0000;" x="939.788046" xlink:href="#m64c2967281" y="380.66281"/>
     <use style="fill:#ff0000;stroke:#ff0000;" x="950.998493" xlink:href="#m64c2967281" y="560.365289"/>
     <use style="fill:#ff0000;stroke:#ff0000;" x="962.20894" xlink:href="#m64c2967281" y="470.51405"/>
     <use style="fill:#ff0000;stroke:#ff0000;" x="973.419387" xlink:href="#m64c2967281" y="515.439669"/>
     <use style="fill:#ff0000;stroke:#ff0000;" x="984.629834" xlink:href="#m64c2967281" y="560.365289"/>
     <use style="fill:#ff0000;stroke:#ff0000;" x="995.840281" xlink:href="#m64c2967281" y="380.66281"/>
     <use style="fill:#ff0000;stroke:#ff0000;" x="1007.050728" xlink:href="#m64c2967281" y="380.66281"/>
     <use style="fill:#ff0000;stroke:#ff0000;" x="1018.261175" xlink:href="#m64c2967281" y="575.340496"/>
     <use style="fill:#ff0000;stroke:#ff0000;" x="1029.471622" xlink:href="#m64c2967281" y="515.439669"/>
     <use style="fill:#ff0000;stroke:#ff0000;" x="1040.682069" xlink:href="#m64c2967281" y="305.786777"/>
     <use style="fill:#ff0000;stroke:#ff0000;" x="1051.892516" xlink:href="#m64c2967281" y="335.73719"/>
     <use style="fill:#ff0000;stroke:#ff0000;" x="1063.102963" xlink:href="#m64c2967281" y="575.340496"/>
     <use style="fill:#ff0000;stroke:#ff0000;" x="1074.31341" xlink:href="#m64c2967281" y="350.712397"/>
     <use style="fill:#ff0000;stroke:#ff0000;" x="1085.523857" xlink:href="#m64c2967281" y="455.538843"/>
     <use style="fill:#ff0000;stroke:#ff0000;" x="1096.734304" xlink:href="#m64c2967281" y="515.439669"/>
     <use style="fill:#ff0000;stroke:#ff0000;" x="1107.944751" xlink:href="#m64c2967281" y="335.73719"/>
     <use style="fill:#ff0000;stroke:#ff0000;" x="1119.155198" xlink:href="#m64c2967281" y="111.109091"/>
     <use style="fill:#ff0000;stroke:#ff0000;" x="1130.365645" xlink:href="#m64c2967281" y="590.315702"/>
     <use style="fill:#ff0000;stroke:#ff0000;" x="1141.576092" xlink:href="#m64c2967281" y="560.365289"/>
     <use style="fill:#ff0000;stroke:#ff0000;" x="1152.786539" xlink:href="#m64c2967281" y="455.538843"/>
     <use style="fill:#ff0000;stroke:#ff0000;" x="1163.996986" xlink:href="#m64c2967281" y="500.464463"/>
     <use style="fill:#ff0000;stroke:#ff0000;" x="1175.207433" xlink:href="#m64c2967281" y="560.365289"/>
     <use style="fill:#ff0000;stroke:#ff0000;" x="1186.41788" xlink:href="#m64c2967281" y="290.81157"/>
     <use style="fill:#ff0000;stroke:#ff0000;" x="1197.628327" xlink:href="#m64c2967281" y="455.538843"/>
     <use style="fill:#ff0000;stroke:#ff0000;" x="1208.838774" xlink:href="#m64c2967281" y="365.687603"/>
     <use style="fill:#ff0000;stroke:#ff0000;" x="1220.049221" xlink:href="#m64c2967281" y="485.489256"/>
     <use style="fill:#ff0000;stroke:#ff0000;" x="1231.259669" xlink:href="#m64c2967281" y="425.58843"/>
     <use style="fill:#ff0000;stroke:#ff0000;" x="1242.470116" xlink:href="#m64c2967281" y="275.836364"/>
    </g>
   </g>
   <g id="patch_192">
    <path d="M 180 630 
L 180 86.4 
" style="fill:none;stroke:#000000;stroke-linecap:square;stroke-linejoin:miter;stroke-width:0.8;"/>
   </g>
   <g id="patch_193">
    <path d="M 1296 630 
L 1296 86.4 
" style="fill:none;stroke:#000000;stroke-linecap:square;stroke-linejoin:miter;stroke-width:0.8;"/>
   </g>
   <g id="patch_194">
    <path d="M 180 630 
L 1296 630 
" style="fill:none;stroke:#000000;stroke-linecap:square;stroke-linejoin:miter;stroke-width:0.8;"/>
   </g>
   <g id="patch_195">
    <path d="M 180 86.4 
L 1296 86.4 
" style="fill:none;stroke:#000000;stroke-linecap:square;stroke-linejoin:miter;stroke-width:0.8;"/>
   </g>
  </g>
 </g>
 <defs>
  <clipPath id="pf917fe2577">
   <rect height="543.6" width="1116" x="180" y="86.4"/>
  </clipPath>
 </defs>
</svg>
