<?xml version="1.0" encoding="utf-8" standalone="no"?>
<!DOCTYPE svg PUBLIC "-//W3C//DTD SVG 1.1//EN"
  "http://www.w3.org/Graphics/SVG/1.1/DTD/svg11.dtd">
<!-- Created with matplotlib (http://matplotlib.org/) -->
<svg height="720pt" version="1.1" viewBox="0 0 1440 720" width="1440pt" xmlns="http://www.w3.org/2000/svg" xmlns:xlink="http://www.w3.org/1999/xlink">
 <defs>
  <style type="text/css">
*{stroke-linecap:butt;stroke-linejoin:round;}
  </style>
 </defs>
 <g id="figure_1">
  <g id="patch_1">
   <path d="M 0 720 
L 1440 720 
L 1440 0 
L 0 0 
z
" style="fill:#ffffff;"/>
  </g>
  <g id="axes_1">
   <g id="patch_2">
    <path d="M 180 630 
L 1296 630 
L 1296 86.4 
L 180 86.4 
z
" style="fill:#ffffff;"/>
   </g>
   <g id="patch_3">
    <path clip-path="url(#pe994fd99f6)" d="M 230.727273 630 
L 236.332496 630 
L 236.332496 545.937981 
L 230.727273 545.937981 
z
" style="fill:#1f77b4;"/>
   </g>
   <g id="patch_4">
    <path clip-path="url(#pe994fd99f6)" d="M 241.93772 630 
L 247.542943 630 
L 247.542943 436.738379 
L 241.93772 436.738379 
z
" style="fill:#1f77b4;"/>
   </g>
   <g id="patch_5">
    <path clip-path="url(#pe994fd99f6)" d="M 253.148167 630 
L 258.75339 630 
L 258.75339 603.014145 
L 253.148167 603.014145 
z
" style="fill:#1f77b4;"/>
   </g>
   <g id="patch_6">
    <path clip-path="url(#pe994fd99f6)" d="M 264.358614 630 
L 269.963837 630 
L 269.963837 554.603907 
L 264.358614 554.603907 
z
" style="fill:#1f77b4;"/>
   </g>
   <g id="patch_7">
    <path clip-path="url(#pe994fd99f6)" d="M 275.569061 630 
L 281.174284 630 
L 281.174284 571.14951 
L 275.569061 571.14951 
z
" style="fill:#1f77b4;"/>
   </g>
   <g id="patch_8">
    <path clip-path="url(#pe994fd99f6)" d="M 286.779508 630 
L 292.384731 630 
L 292.384731 369.987853 
L 286.779508 369.987853 
z
" style="fill:#1f77b4;"/>
   </g>
   <g id="patch_9">
    <path clip-path="url(#pe994fd99f6)" d="M 297.989955 630 
L 303.595178 630 
L 303.595178 526.641873 
L 297.989955 526.641873 
z
" style="fill:#1f77b4;"/>
   </g>
   <g id="patch_10">
    <path clip-path="url(#pe994fd99f6)" d="M 309.200402 630 
L 314.805625 630 
L 314.805625 550.978313 
L 309.200402 550.978313 
z
" style="fill:#1f77b4;"/>
   </g>
   <g id="patch_11">
    <path clip-path="url(#pe994fd99f6)" d="M 320.410849 630 
L 326.016072 630 
L 326.016072 556.60756 
L 320.410849 556.60756 
z
" style="fill:#1f77b4;"/>
   </g>
   <g id="patch_12">
    <path clip-path="url(#pe994fd99f6)" d="M 331.621296 630 
L 337.226519 630 
L 337.226519 588.627136 
L 331.621296 588.627136 
z
" style="fill:#1f77b4;"/>
   </g>
   <g id="patch_13">
    <path clip-path="url(#pe994fd99f6)" d="M 342.831743 630 
L 348.436966 630 
L 348.436966 112.285714 
L 342.831743 112.285714 
z
" style="fill:#1f77b4;"/>
   </g>
   <g id="patch_14">
    <path clip-path="url(#pe994fd99f6)" d="M 354.04219 630 
L 359.647413 630 
L 359.647413 586.602155 
L 354.04219 586.602155 
z
" style="fill:#1f77b4;"/>
   </g>
   <g id="patch_15">
    <path clip-path="url(#pe994fd99f6)" d="M 365.252637 630 
L 370.85786 630 
L 370.85786 524.907383 
L 365.252637 524.907383 
z
" style="fill:#1f77b4;"/>
   </g>
   <g id="patch_16">
    <path clip-path="url(#pe994fd99f6)" d="M 376.463084 630 
L 382.068307 630 
L 382.068307 376.456053 
L 376.463084 376.456053 
z
" style="fill:#1f77b4;"/>
   </g>
   <g id="patch_17">
    <path clip-path="url(#pe994fd99f6)" d="M 387.673531 630 
L 393.278754 630 
L 393.278754 482.756996 
L 387.673531 482.756996 
z
" style="fill:#1f77b4;"/>
   </g>
   <g id="patch_18">
    <path clip-path="url(#pe994fd99f6)" d="M 398.883978 630 
L 404.489201 630 
L 404.489201 575.983077 
L 398.883978 575.983077 
z
" style="fill:#1f77b4;"/>
   </g>
   <g id="patch_19">
    <path clip-path="url(#pe994fd99f6)" d="M 410.094425 630 
L 415.699648 630 
L 415.699648 597.219293 
L 410.094425 597.219293 
z
" style="fill:#1f77b4;"/>
   </g>
   <g id="patch_20">
    <path clip-path="url(#pe994fd99f6)" d="M 421.304872 630 
L 426.910095 630 
L 426.910095 529.730111 
L 421.304872 529.730111 
z
" style="fill:#1f77b4;"/>
   </g>
   <g id="patch_21">
    <path clip-path="url(#pe994fd99f6)" d="M 432.515319 630 
L 438.120542 630 
L 438.120542 536.325225 
L 432.515319 536.325225 
z
" style="fill:#1f77b4;"/>
   </g>
   <g id="patch_22">
    <path clip-path="url(#pe994fd99f6)" d="M 443.725766 630 
L 449.330989 630 
L 449.330989 537.715108 
L 443.725766 537.715108 
z
" style="fill:#1f77b4;"/>
   </g>
   <g id="patch_23">
    <path clip-path="url(#pe994fd99f6)" d="M 454.936213 630 
L 460.541436 630 
L 460.541436 551.927699 
L 454.936213 551.927699 
z
" style="fill:#1f77b4;"/>
   </g>
   <g id="patch_24">
    <path clip-path="url(#pe994fd99f6)" d="M 466.14666 630 
L 471.751883 630 
L 471.751883 405.007267 
L 466.14666 405.007267 
z
" style="fill:#1f77b4;"/>
   </g>
   <g id="patch_25">
    <path clip-path="url(#pe994fd99f6)" d="M 477.357107 630 
L 482.96233 630 
L 482.96233 585.797045 
L 477.357107 585.797045 
z
" style="fill:#1f77b4;"/>
   </g>
   <g id="patch_26">
    <path clip-path="url(#pe994fd99f6)" d="M 488.567554 630 
L 494.172777 630 
L 494.172777 464.456721 
L 488.567554 464.456721 
z
" style="fill:#1f77b4;"/>
   </g>
   <g id="patch_27">
    <path clip-path="url(#pe994fd99f6)" d="M 499.778001 630 
L 505.383225 630 
L 505.383225 603.336542 
L 499.778001 603.336542 
z
" style="fill:#1f77b4;"/>
   </g>
   <g id="patch_28">
    <path clip-path="url(#pe994fd99f6)" d="M 510.988448 630 
L 516.593672 630 
L 516.593672 572.439448 
L 510.988448 572.439448 
z
" style="fill:#1f77b4;"/>
   </g>
   <g id="patch_29">
    <path clip-path="url(#pe994fd99f6)" d="M 522.198895 630 
L 527.804119 630 
L 527.804119 509.898937 
L 522.198895 509.898937 
z
" style="fill:#1f77b4;"/>
   </g>
   <g id="patch_30">
    <path clip-path="url(#pe994fd99f6)" d="M 533.409342 630 
L 539.014566 630 
L 539.014566 578.41339 
L 533.409342 578.41339 
z
" style="fill:#1f77b4;"/>
   </g>
   <g id="patch_31">
    <path clip-path="url(#pe994fd99f6)" d="M 544.619789 630 
L 550.225013 630 
L 550.225013 567.711466 
L 544.619789 567.711466 
z
" style="fill:#1f77b4;"/>
   </g>
   <g id="patch_32">
    <path clip-path="url(#pe994fd99f6)" d="M 555.830236 630 
L 561.43546 630 
L 561.43546 511.748883 
L 555.830236 511.748883 
z
" style="fill:#1f77b4;"/>
   </g>
   <g id="patch_33">
    <path clip-path="url(#pe994fd99f6)" d="M 567.040683 630 
L 572.645907 630 
L 572.645907 371.801664 
L 567.040683 371.801664 
z
" style="fill:#1f77b4;"/>
   </g>
   <g id="patch_34">
    <path clip-path="url(#pe994fd99f6)" d="M 578.25113 630 
L 583.856354 630 
L 583.856354 547.837811 
L 578.25113 547.837811 
z
" style="fill:#1f77b4;"/>
   </g>
   <g id="patch_35">
    <path clip-path="url(#pe994fd99f6)" d="M 589.461577 630 
L 595.066801 630 
L 595.066801 312.45004 
L 589.461577 312.45004 
z
" style="fill:#1f77b4;"/>
   </g>
   <g id="patch_36">
    <path clip-path="url(#pe994fd99f6)" d="M 600.672024 630 
L 606.277248 630 
L 606.277248 570.25697 
L 600.672024 570.25697 
z
" style="fill:#1f77b4;"/>
   </g>
   <g id="patch_37">
    <path clip-path="url(#pe994fd99f6)" d="M 611.882471 630 
L 617.487695 630 
L 617.487695 517.521701 
L 611.882471 517.521701 
z
" style="fill:#1f77b4;"/>
   </g>
   <g id="patch_38">
    <path clip-path="url(#pe994fd99f6)" d="M 623.092918 630 
L 628.698142 630 
L 628.698142 453.448705 
L 623.092918 453.448705 
z
" style="fill:#1f77b4;"/>
   </g>
   <g id="patch_39">
    <path clip-path="url(#pe994fd99f6)" d="M 634.303365 630 
L 639.908589 630 
L 639.908589 476.895161 
L 634.303365 476.895161 
z
" style="fill:#1f77b4;"/>
   </g>
   <g id="patch_40">
    <path clip-path="url(#pe994fd99f6)" d="M 645.513812 630 
L 651.119036 630 
L 651.119036 557.385524 
L 645.513812 557.385524 
z
" style="fill:#1f77b4;"/>
   </g>
   <g id="patch_41">
    <path clip-path="url(#pe994fd99f6)" d="M 656.724259 630 
L 662.329483 630 
L 662.329483 353.073936 
L 656.724259 353.073936 
z
" style="fill:#1f77b4;"/>
   </g>
   <g id="patch_42">
    <path clip-path="url(#pe994fd99f6)" d="M 667.934706 630 
L 673.53993 630 
L 673.53993 509.783481 
L 667.934706 509.783481 
z
" style="fill:#1f77b4;"/>
   </g>
   <g id="patch_43">
    <path clip-path="url(#pe994fd99f6)" d="M 679.145153 630 
L 684.750377 630 
L 684.750377 439.034286 
L 679.145153 439.034286 
z
" style="fill:#1f77b4;"/>
   </g>
   <g id="patch_44">
    <path clip-path="url(#pe994fd99f6)" d="M 690.3556 630 
L 695.960824 630 
L 695.960824 419.76453 
L 690.3556 419.76453 
z
" style="fill:#1f77b4;"/>
   </g>
   <g id="patch_45">
    <path clip-path="url(#pe994fd99f6)" d="M 701.566047 630 
L 707.171271 630 
L 707.171271 544.512932 
L 701.566047 544.512932 
z
" style="fill:#1f77b4;"/>
   </g>
   <g id="patch_46">
    <path clip-path="url(#pe994fd99f6)" d="M 712.776494 630 
L 718.381718 630 
L 718.381718 553.073978 
L 712.776494 553.073978 
z
" style="fill:#1f77b4;"/>
   </g>
   <g id="patch_47">
    <path clip-path="url(#pe994fd99f6)" d="M 723.986941 630 
L 729.592165 630 
L 729.592165 600.103763 
L 723.986941 600.103763 
z
" style="fill:#1f77b4;"/>
   </g>
   <g id="patch_48">
    <path clip-path="url(#pe994fd99f6)" d="M 735.197388 630 
L 740.802612 630 
L 740.802612 426.065275 
L 735.197388 426.065275 
z
" style="fill:#1f77b4;"/>
   </g>
   <g id="patch_49">
    <path clip-path="url(#pe994fd99f6)" d="M 746.407835 630 
L 752.013059 630 
L 752.013059 451.14751 
L 746.407835 451.14751 
z
" style="fill:#1f77b4;"/>
   </g>
   <g id="patch_50">
    <path clip-path="url(#pe994fd99f6)" d="M 757.618282 630 
L 763.223506 630 
L 763.223506 581.46796 
L 757.618282 581.46796 
z
" style="fill:#1f77b4;"/>
   </g>
   <g id="patch_51">
    <path clip-path="url(#pe994fd99f6)" d="M 768.828729 630 
L 774.433953 630 
L 774.433953 466.826661 
L 768.828729 466.826661 
z
" style="fill:#1f77b4;"/>
   </g>
   <g id="patch_52">
    <path clip-path="url(#pe994fd99f6)" d="M 780.039176 630 
L 785.6444 630 
L 785.6444 492.346925 
L 780.039176 492.346925 
z
" style="fill:#1f77b4;"/>
   </g>
   <g id="patch_53">
    <path clip-path="url(#pe994fd99f6)" d="M 791.249623 630 
L 796.854847 630 
L 796.854847 557.109839 
L 791.249623 557.109839 
z
" style="fill:#1f77b4;"/>
   </g>
   <g id="patch_54">
    <path clip-path="url(#pe994fd99f6)" d="M 802.46007 630 
L 808.065294 630 
L 808.065294 316.963414 
L 802.46007 316.963414 
z
" style="fill:#1f77b4;"/>
   </g>
   <g id="patch_55">
    <path clip-path="url(#pe994fd99f6)" d="M 813.670517 630 
L 819.275741 630 
L 819.275741 483.505259 
L 813.670517 483.505259 
z
" style="fill:#1f77b4;"/>
   </g>
   <g id="patch_56">
    <path clip-path="url(#pe994fd99f6)" d="M 824.880964 630 
L 830.486188 630 
L 830.486188 568.913975 
L 824.880964 568.913975 
z
" style="fill:#1f77b4;"/>
   </g>
   <g id="patch_57">
    <path clip-path="url(#pe994fd99f6)" d="M 836.091411 630 
L 841.696635 630 
L 841.696635 368.924068 
L 836.091411 368.924068 
z
" style="fill:#1f77b4;"/>
   </g>
   <g id="patch_58">
    <path clip-path="url(#pe994fd99f6)" d="M 847.301858 630 
L 852.907082 630 
L 852.907082 561.404375 
L 847.301858 561.404375 
z
" style="fill:#1f77b4;"/>
   </g>
   <g id="patch_59">
    <path clip-path="url(#pe994fd99f6)" d="M 858.512305 630 
L 864.117529 630 
L 864.117529 350.555929 
L 858.512305 350.555929 
z
" style="fill:#1f77b4;"/>
   </g>
   <g id="patch_60">
    <path clip-path="url(#pe994fd99f6)" d="M 869.722752 630 
L 875.327976 630 
L 875.327976 567.658321 
L 869.722752 567.658321 
z
" style="fill:#1f77b4;"/>
   </g>
   <g id="patch_61">
    <path clip-path="url(#pe994fd99f6)" d="M 880.933199 630 
L 886.538423 630 
L 886.538423 564.206351 
L 880.933199 564.206351 
z
" style="fill:#1f77b4;"/>
   </g>
   <g id="patch_62">
    <path clip-path="url(#pe994fd99f6)" d="M 892.143646 630 
L 897.74887 630 
L 897.74887 460.121378 
L 892.143646 460.121378 
z
" style="fill:#1f77b4;"/>
   </g>
   <g id="patch_63">
    <path clip-path="url(#pe994fd99f6)" d="M 903.354093 630 
L 908.959317 630 
L 908.959317 386.69906 
L 903.354093 386.69906 
z
" style="fill:#1f77b4;"/>
   </g>
   <g id="patch_64">
    <path clip-path="url(#pe994fd99f6)" d="M 914.56454 630 
L 920.169764 630 
L 920.169764 520.57821 
L 914.56454 520.57821 
z
" style="fill:#1f77b4;"/>
   </g>
   <g id="patch_65">
    <path clip-path="url(#pe994fd99f6)" d="M 925.774987 630 
L 931.380211 630 
L 931.380211 483.994406 
L 925.774987 483.994406 
z
" style="fill:#1f77b4;"/>
   </g>
   <g id="patch_66">
    <path clip-path="url(#pe994fd99f6)" d="M 936.985434 630 
L 942.590658 630 
L 942.590658 454.15907 
L 936.985434 454.15907 
z
" style="fill:#1f77b4;"/>
   </g>
   <g id="patch_67">
    <path clip-path="url(#pe994fd99f6)" d="M 948.195881 630 
L 953.801105 630 
L 953.801105 467.6375 
L 948.195881 467.6375 
z
" style="fill:#1f77b4;"/>
   </g>
   <g id="patch_68">
    <path clip-path="url(#pe994fd99f6)" d="M 959.406328 630 
L 965.011552 630 
L 965.011552 462.154644 
L 959.406328 462.154644 
z
" style="fill:#1f77b4;"/>
   </g>
   <g id="patch_69">
    <path clip-path="url(#pe994fd99f6)" d="M 970.616775 630 
L 976.221999 630 
L 976.221999 510.171273 
L 970.616775 510.171273 
z
" style="fill:#1f77b4;"/>
   </g>
   <g id="patch_70">
    <path clip-path="url(#pe994fd99f6)" d="M 981.827223 630 
L 987.432446 630 
L 987.432446 554.169315 
L 981.827223 554.169315 
z
" style="fill:#1f77b4;"/>
   </g>
   <g id="patch_71">
    <path clip-path="url(#pe994fd99f6)" d="M 993.03767 630 
L 998.642893 630 
L 998.642893 393.259802 
L 993.03767 393.259802 
z
" style="fill:#1f77b4;"/>
   </g>
   <g id="patch_72">
    <path clip-path="url(#pe994fd99f6)" d="M 1004.248117 630 
L 1009.85334 630 
L 1009.85334 484.473858 
L 1004.248117 484.473858 
z
" style="fill:#1f77b4;"/>
   </g>
   <g id="patch_73">
    <path clip-path="url(#pe994fd99f6)" d="M 1015.458564 630 
L 1021.063787 630 
L 1021.063787 554.763078 
L 1015.458564 554.763078 
z
" style="fill:#1f77b4;"/>
   </g>
   <g id="patch_74">
    <path clip-path="url(#pe994fd99f6)" d="M 1026.669011 630 
L 1032.274234 630 
L 1032.274234 490.166474 
L 1026.669011 490.166474 
z
" style="fill:#1f77b4;"/>
   </g>
   <g id="patch_75">
    <path clip-path="url(#pe994fd99f6)" d="M 1037.879458 630 
L 1043.484681 630 
L 1043.484681 445.877059 
L 1037.879458 445.877059 
z
" style="fill:#1f77b4;"/>
   </g>
   <g id="patch_76">
    <path clip-path="url(#pe994fd99f6)" d="M 1049.089905 630 
L 1054.695128 630 
L 1054.695128 434.564979 
L 1049.089905 434.564979 
z
" style="fill:#1f77b4;"/>
   </g>
   <g id="patch_77">
    <path clip-path="url(#pe994fd99f6)" d="M 1060.300352 630 
L 1065.905575 630 
L 1065.905575 552.806313 
L 1060.300352 552.806313 
z
" style="fill:#1f77b4;"/>
   </g>
   <g id="patch_78">
    <path clip-path="url(#pe994fd99f6)" d="M 1071.510799 630 
L 1077.116022 630 
L 1077.116022 415.972978 
L 1071.510799 415.972978 
z
" style="fill:#1f77b4;"/>
   </g>
   <g id="patch_79">
    <path clip-path="url(#pe994fd99f6)" d="M 1082.721246 630 
L 1088.326469 630 
L 1088.326469 504.743942 
L 1082.721246 504.743942 
z
" style="fill:#1f77b4;"/>
   </g>
   <g id="patch_80">
    <path clip-path="url(#pe994fd99f6)" d="M 1093.931693 630 
L 1099.536916 630 
L 1099.536916 526.310487 
L 1093.931693 526.310487 
z
" style="fill:#1f77b4;"/>
   </g>
   <g id="patch_81">
    <path clip-path="url(#pe994fd99f6)" d="M 1105.14214 630 
L 1110.747363 630 
L 1110.747363 348.891066 
L 1105.14214 348.891066 
z
" style="fill:#1f77b4;"/>
   </g>
   <g id="patch_82">
    <path clip-path="url(#pe994fd99f6)" d="M 1116.352587 630 
L 1121.95781 630 
L 1121.95781 240.101202 
L 1116.352587 240.101202 
z
" style="fill:#1f77b4;"/>
   </g>
   <g id="patch_83">
    <path clip-path="url(#pe994fd99f6)" d="M 1127.563034 630 
L 1133.168257 630 
L 1133.168257 549.286657 
L 1127.563034 549.286657 
z
" style="fill:#1f77b4;"/>
   </g>
   <g id="patch_84">
    <path clip-path="url(#pe994fd99f6)" d="M 1138.773481 630 
L 1144.378704 630 
L 1144.378704 526.874548 
L 1138.773481 526.874548 
z
" style="fill:#1f77b4;"/>
   </g>
   <g id="patch_85">
    <path clip-path="url(#pe994fd99f6)" d="M 1149.983928 630 
L 1155.589151 630 
L 1155.589151 473.034864 
L 1149.983928 473.034864 
z
" style="fill:#1f77b4;"/>
   </g>
   <g id="patch_86">
    <path clip-path="url(#pe994fd99f6)" d="M 1161.194375 630 
L 1166.799598 630 
L 1166.799598 472.116502 
L 1161.194375 472.116502 
z
" style="fill:#1f77b4;"/>
   </g>
   <g id="patch_87">
    <path clip-path="url(#pe994fd99f6)" d="M 1172.404822 630 
L 1178.010045 630 
L 1178.010045 497.604156 
L 1172.404822 497.604156 
z
" style="fill:#1f77b4;"/>
   </g>
   <g id="patch_88">
    <path clip-path="url(#pe994fd99f6)" d="M 1183.615269 630 
L 1189.220492 630 
L 1189.220492 321.255571 
L 1183.615269 321.255571 
z
" style="fill:#1f77b4;"/>
   </g>
   <g id="patch_89">
    <path clip-path="url(#pe994fd99f6)" d="M 1194.825716 630 
L 1200.430939 630 
L 1200.430939 347.736502 
L 1194.825716 347.736502 
z
" style="fill:#1f77b4;"/>
   </g>
   <g id="patch_90">
    <path clip-path="url(#pe994fd99f6)" d="M 1206.036163 630 
L 1211.641386 630 
L 1211.641386 136.275961 
L 1206.036163 136.275961 
z
" style="fill:#1f77b4;"/>
   </g>
   <g id="patch_91">
    <path clip-path="url(#pe994fd99f6)" d="M 1217.24661 630 
L 1222.851833 630 
L 1222.851833 398.590185 
L 1217.24661 398.590185 
z
" style="fill:#1f77b4;"/>
   </g>
   <g id="patch_92">
    <path clip-path="url(#pe994fd99f6)" d="M 1228.457057 630 
L 1234.06228 630 
L 1234.06228 382.175991 
L 1228.457057 382.175991 
z
" style="fill:#1f77b4;"/>
   </g>
   <g id="patch_93">
    <path clip-path="url(#pe994fd99f6)" d="M 1239.667504 630 
L 1245.272727 630 
L 1245.272727 252.640997 
L 1239.667504 252.640997 
z
" style="fill:#1f77b4;"/>
   </g>
   <g id="matplotlib.axis_1">
    <g id="xtick_1">
     <g id="line2d_1">
      <defs>
       <path d="M 0 0 
L 0 3.5 
" id="m91a203f443" style="stroke:#000000;stroke-width:0.8;"/>
      </defs>
      <g>
       <use style="stroke:#000000;stroke-width:0.8;" x="233.529884" xlink:href="#m91a203f443" y="630"/>
      </g>
     </g>
     <g id="text_1">
      <!-- 0 -->
      <defs>
       <path d="M 31.78125 66.40625 
Q 24.171875 66.40625 20.328125 58.90625 
Q 16.5 51.421875 16.5 36.375 
Q 16.5 21.390625 20.328125 13.890625 
Q 24.171875 6.390625 31.78125 6.390625 
Q 39.453125 6.390625 43.28125 13.890625 
Q 47.125 21.390625 47.125 36.375 
Q 47.125 51.421875 43.28125 58.90625 
Q 39.453125 66.40625 31.78125 66.40625 
z
M 31.78125 74.21875 
Q 44.046875 74.21875 50.515625 64.515625 
Q 56.984375 54.828125 56.984375 36.375 
Q 56.984375 17.96875 50.515625 8.265625 
Q 44.046875 -1.421875 31.78125 -1.421875 
Q 19.53125 -1.421875 13.0625 8.265625 
Q 6.59375 17.96875 6.59375 36.375 
Q 6.59375 54.828125 13.0625 64.515625 
Q 19.53125 74.21875 31.78125 74.21875 
z
" id="DejaVuSans-30"/>
      </defs>
      <g transform="translate(230.348634 644.598438)scale(0.1 -0.1)">
       <use xlink:href="#DejaVuSans-30"/>
      </g>
     </g>
    </g>
    <g id="xtick_2">
     <g id="line2d_2">
      <g>
       <use style="stroke:#000000;stroke-width:0.8;" x="457.738825" xlink:href="#m91a203f443" y="630"/>
      </g>
     </g>
     <g id="text_2">
      <!-- 20 -->
      <defs>
       <path d="M 19.1875 8.296875 
L 53.609375 8.296875 
L 53.609375 0 
L 7.328125 0 
L 7.328125 8.296875 
Q 12.9375 14.109375 22.625 23.890625 
Q 32.328125 33.6875 34.8125 36.53125 
Q 39.546875 41.84375 41.421875 45.53125 
Q 43.3125 49.21875 43.3125 52.78125 
Q 43.3125 58.59375 39.234375 62.25 
Q 35.15625 65.921875 28.609375 65.921875 
Q 23.96875 65.921875 18.8125 64.3125 
Q 13.671875 62.703125 7.8125 59.421875 
L 7.8125 69.390625 
Q 13.765625 71.78125 18.9375 73 
Q 24.125 74.21875 28.421875 74.21875 
Q 39.75 74.21875 46.484375 68.546875 
Q 53.21875 62.890625 53.21875 53.421875 
Q 53.21875 48.921875 51.53125 44.890625 
Q 49.859375 40.875 45.40625 35.40625 
Q 44.1875 33.984375 37.640625 27.21875 
Q 31.109375 20.453125 19.1875 8.296875 
z
" id="DejaVuSans-32"/>
      </defs>
      <g transform="translate(451.376325 644.598438)scale(0.1 -0.1)">
       <use xlink:href="#DejaVuSans-32"/>
       <use x="63.623047" xlink:href="#DejaVuSans-30"/>
      </g>
     </g>
    </g>
    <g id="xtick_3">
     <g id="line2d_3">
      <g>
       <use style="stroke:#000000;stroke-width:0.8;" x="681.947765" xlink:href="#m91a203f443" y="630"/>
      </g>
     </g>
     <g id="text_3">
      <!-- 40 -->
      <defs>
       <path d="M 37.796875 64.3125 
L 12.890625 25.390625 
L 37.796875 25.390625 
z
M 35.203125 72.90625 
L 47.609375 72.90625 
L 47.609375 25.390625 
L 58.015625 25.390625 
L 58.015625 17.1875 
L 47.609375 17.1875 
L 47.609375 0 
L 37.796875 0 
L 37.796875 17.1875 
L 4.890625 17.1875 
L 4.890625 26.703125 
z
" id="DejaVuSans-34"/>
      </defs>
      <g transform="translate(675.585265 644.598438)scale(0.1 -0.1)">
       <use xlink:href="#DejaVuSans-34"/>
       <use x="63.623047" xlink:href="#DejaVuSans-30"/>
      </g>
     </g>
    </g>
    <g id="xtick_4">
     <g id="line2d_4">
      <g>
       <use style="stroke:#000000;stroke-width:0.8;" x="906.156705" xlink:href="#m91a203f443" y="630"/>
      </g>
     </g>
     <g id="text_4">
      <!-- 60 -->
      <defs>
       <path d="M 33.015625 40.375 
Q 26.375 40.375 22.484375 35.828125 
Q 18.609375 31.296875 18.609375 23.390625 
Q 18.609375 15.53125 22.484375 10.953125 
Q 26.375 6.390625 33.015625 6.390625 
Q 39.65625 6.390625 43.53125 10.953125 
Q 47.40625 15.53125 47.40625 23.390625 
Q 47.40625 31.296875 43.53125 35.828125 
Q 39.65625 40.375 33.015625 40.375 
z
M 52.59375 71.296875 
L 52.59375 62.3125 
Q 48.875 64.0625 45.09375 64.984375 
Q 41.3125 65.921875 37.59375 65.921875 
Q 27.828125 65.921875 22.671875 59.328125 
Q 17.53125 52.734375 16.796875 39.40625 
Q 19.671875 43.65625 24.015625 45.921875 
Q 28.375 48.1875 33.59375 48.1875 
Q 44.578125 48.1875 50.953125 41.515625 
Q 57.328125 34.859375 57.328125 23.390625 
Q 57.328125 12.15625 50.6875 5.359375 
Q 44.046875 -1.421875 33.015625 -1.421875 
Q 20.359375 -1.421875 13.671875 8.265625 
Q 6.984375 17.96875 6.984375 36.375 
Q 6.984375 53.65625 15.1875 63.9375 
Q 23.390625 74.21875 37.203125 74.21875 
Q 40.921875 74.21875 44.703125 73.484375 
Q 48.484375 72.75 52.59375 71.296875 
z
" id="DejaVuSans-36"/>
      </defs>
      <g transform="translate(899.794205 644.598438)scale(0.1 -0.1)">
       <use xlink:href="#DejaVuSans-36"/>
       <use x="63.623047" xlink:href="#DejaVuSans-30"/>
      </g>
     </g>
    </g>
    <g id="xtick_5">
     <g id="line2d_5">
      <g>
       <use style="stroke:#000000;stroke-width:0.8;" x="1130.365645" xlink:href="#m91a203f443" y="630"/>
      </g>
     </g>
     <g id="text_5">
      <!-- 80 -->
      <defs>
       <path d="M 31.78125 34.625 
Q 24.75 34.625 20.71875 30.859375 
Q 16.703125 27.09375 16.703125 20.515625 
Q 16.703125 13.921875 20.71875 10.15625 
Q 24.75 6.390625 31.78125 6.390625 
Q 38.8125 6.390625 42.859375 10.171875 
Q 46.921875 13.96875 46.921875 20.515625 
Q 46.921875 27.09375 42.890625 30.859375 
Q 38.875 34.625 31.78125 34.625 
z
M 21.921875 38.8125 
Q 15.578125 40.375 12.03125 44.71875 
Q 8.5 49.078125 8.5 55.328125 
Q 8.5 64.0625 14.71875 69.140625 
Q 20.953125 74.21875 31.78125 74.21875 
Q 42.671875 74.21875 48.875 69.140625 
Q 55.078125 64.0625 55.078125 55.328125 
Q 55.078125 49.078125 51.53125 44.71875 
Q 48 40.375 41.703125 38.8125 
Q 48.828125 37.15625 52.796875 32.3125 
Q 56.78125 27.484375 56.78125 20.515625 
Q 56.78125 9.90625 50.3125 4.234375 
Q 43.84375 -1.421875 31.78125 -1.421875 
Q 19.734375 -1.421875 13.25 4.234375 
Q 6.78125 9.90625 6.78125 20.515625 
Q 6.78125 27.484375 10.78125 32.3125 
Q 14.796875 37.15625 21.921875 38.8125 
z
M 18.3125 54.390625 
Q 18.3125 48.734375 21.84375 45.5625 
Q 25.390625 42.390625 31.78125 42.390625 
Q 38.140625 42.390625 41.71875 45.5625 
Q 45.3125 48.734375 45.3125 54.390625 
Q 45.3125 60.0625 41.71875 63.234375 
Q 38.140625 66.40625 31.78125 66.40625 
Q 25.390625 66.40625 21.84375 63.234375 
Q 18.3125 60.0625 18.3125 54.390625 
z
" id="DejaVuSans-38"/>
      </defs>
      <g transform="translate(1124.003145 644.598438)scale(0.1 -0.1)">
       <use xlink:href="#DejaVuSans-38"/>
       <use x="63.623047" xlink:href="#DejaVuSans-30"/>
      </g>
     </g>
    </g>
   </g>
   <g id="matplotlib.axis_2">
    <g id="ytick_1">
     <g id="line2d_6">
      <defs>
       <path d="M 0 0 
L -3.5 0 
" id="m6c3eb7feea" style="stroke:#000000;stroke-width:0.8;"/>
      </defs>
      <g>
       <use style="stroke:#000000;stroke-width:0.8;" x="180" xlink:href="#m6c3eb7feea" y="630"/>
      </g>
     </g>
     <g id="text_6">
      <!-- 0 -->
      <g transform="translate(166.6375 633.799219)scale(0.1 -0.1)">
       <use xlink:href="#DejaVuSans-30"/>
      </g>
     </g>
    </g>
    <g id="ytick_2">
     <g id="line2d_7">
      <g>
       <use style="stroke:#000000;stroke-width:0.8;" x="180" xlink:href="#m6c3eb7feea" y="541.865368"/>
      </g>
     </g>
     <g id="text_7">
      <!-- 1 -->
      <defs>
       <path d="M 12.40625 8.296875 
L 28.515625 8.296875 
L 28.515625 63.921875 
L 10.984375 60.40625 
L 10.984375 69.390625 
L 28.421875 72.90625 
L 38.28125 72.90625 
L 38.28125 8.296875 
L 54.390625 8.296875 
L 54.390625 0 
L 12.40625 0 
z
" id="DejaVuSans-31"/>
      </defs>
      <g transform="translate(166.6375 545.664587)scale(0.1 -0.1)">
       <use xlink:href="#DejaVuSans-31"/>
      </g>
     </g>
    </g>
    <g id="ytick_3">
     <g id="line2d_8">
      <g>
       <use style="stroke:#000000;stroke-width:0.8;" x="180" xlink:href="#m6c3eb7feea" y="453.730736"/>
      </g>
     </g>
     <g id="text_8">
      <!-- 2 -->
      <g transform="translate(166.6375 457.529955)scale(0.1 -0.1)">
       <use xlink:href="#DejaVuSans-32"/>
      </g>
     </g>
    </g>
    <g id="ytick_4">
     <g id="line2d_9">
      <g>
       <use style="stroke:#000000;stroke-width:0.8;" x="180" xlink:href="#m6c3eb7feea" y="365.596104"/>
      </g>
     </g>
     <g id="text_9">
      <!-- 3 -->
      <defs>
       <path d="M 40.578125 39.3125 
Q 47.65625 37.796875 51.625 33 
Q 55.609375 28.21875 55.609375 21.1875 
Q 55.609375 10.40625 48.1875 4.484375 
Q 40.765625 -1.421875 27.09375 -1.421875 
Q 22.515625 -1.421875 17.65625 -0.515625 
Q 12.796875 0.390625 7.625 2.203125 
L 7.625 11.71875 
Q 11.71875 9.328125 16.59375 8.109375 
Q 21.484375 6.890625 26.8125 6.890625 
Q 36.078125 6.890625 40.9375 10.546875 
Q 45.796875 14.203125 45.796875 21.1875 
Q 45.796875 27.640625 41.28125 31.265625 
Q 36.765625 34.90625 28.71875 34.90625 
L 20.21875 34.90625 
L 20.21875 43.015625 
L 29.109375 43.015625 
Q 36.375 43.015625 40.234375 45.921875 
Q 44.09375 48.828125 44.09375 54.296875 
Q 44.09375 59.90625 40.109375 62.90625 
Q 36.140625 65.921875 28.71875 65.921875 
Q 24.65625 65.921875 20.015625 65.03125 
Q 15.375 64.15625 9.8125 62.3125 
L 9.8125 71.09375 
Q 15.4375 72.65625 20.34375 73.4375 
Q 25.25 74.21875 29.59375 74.21875 
Q 40.828125 74.21875 47.359375 69.109375 
Q 53.90625 64.015625 53.90625 55.328125 
Q 53.90625 49.265625 50.4375 45.09375 
Q 46.96875 40.921875 40.578125 39.3125 
z
" id="DejaVuSans-33"/>
      </defs>
      <g transform="translate(166.6375 369.395323)scale(0.1 -0.1)">
       <use xlink:href="#DejaVuSans-33"/>
      </g>
     </g>
    </g>
    <g id="ytick_5">
     <g id="line2d_10">
      <g>
       <use style="stroke:#000000;stroke-width:0.8;" x="180" xlink:href="#m6c3eb7feea" y="277.461472"/>
      </g>
     </g>
     <g id="text_10">
      <!-- 4 -->
      <g transform="translate(166.6375 281.260691)scale(0.1 -0.1)">
       <use xlink:href="#DejaVuSans-34"/>
      </g>
     </g>
    </g>
    <g id="ytick_6">
     <g id="line2d_11">
      <g>
       <use style="stroke:#000000;stroke-width:0.8;" x="180" xlink:href="#m6c3eb7feea" y="189.32684"/>
      </g>
     </g>
     <g id="text_11">
      <!-- 5 -->
      <defs>
       <path d="M 10.796875 72.90625 
L 49.515625 72.90625 
L 49.515625 64.59375 
L 19.828125 64.59375 
L 19.828125 46.734375 
Q 21.96875 47.46875 24.109375 47.828125 
Q 26.265625 48.1875 28.421875 48.1875 
Q 40.625 48.1875 47.75 41.5 
Q 54.890625 34.8125 54.890625 23.390625 
Q 54.890625 11.625 47.5625 5.09375 
Q 40.234375 -1.421875 26.90625 -1.421875 
Q 22.3125 -1.421875 17.546875 -0.640625 
Q 12.796875 0.140625 7.71875 1.703125 
L 7.71875 11.625 
Q 12.109375 9.234375 16.796875 8.0625 
Q 21.484375 6.890625 26.703125 6.890625 
Q 35.15625 6.890625 40.078125 11.328125 
Q 45.015625 15.765625 45.015625 23.390625 
Q 45.015625 31 40.078125 35.4375 
Q 35.15625 39.890625 26.703125 39.890625 
Q 22.75 39.890625 18.8125 39.015625 
Q 14.890625 38.140625 10.796875 36.28125 
z
" id="DejaVuSans-35"/>
      </defs>
      <g transform="translate(166.6375 193.126059)scale(0.1 -0.1)">
       <use xlink:href="#DejaVuSans-35"/>
      </g>
     </g>
    </g>
    <g id="ytick_7">
     <g id="line2d_12">
      <g>
       <use style="stroke:#000000;stroke-width:0.8;" x="180" xlink:href="#m6c3eb7feea" y="101.192208"/>
      </g>
     </g>
     <g id="text_12">
      <!-- 6 -->
      <g transform="translate(166.6375 104.991427)scale(0.1 -0.1)">
       <use xlink:href="#DejaVuSans-36"/>
      </g>
     </g>
    </g>
    <g id="text_13">
     <!-- Response Times [ms] -->
     <defs>
      <path d="M 44.390625 34.1875 
Q 47.5625 33.109375 50.5625 29.59375 
Q 53.5625 26.078125 56.59375 19.921875 
L 66.609375 0 
L 56 0 
L 46.6875 18.703125 
Q 43.0625 26.03125 39.671875 28.421875 
Q 36.28125 30.8125 30.421875 30.8125 
L 19.671875 30.8125 
L 19.671875 0 
L 9.8125 0 
L 9.8125 72.90625 
L 32.078125 72.90625 
Q 44.578125 72.90625 50.734375 67.671875 
Q 56.890625 62.453125 56.890625 51.90625 
Q 56.890625 45.015625 53.6875 40.46875 
Q 50.484375 35.9375 44.390625 34.1875 
z
M 19.671875 64.796875 
L 19.671875 38.921875 
L 32.078125 38.921875 
Q 39.203125 38.921875 42.84375 42.21875 
Q 46.484375 45.515625 46.484375 51.90625 
Q 46.484375 58.296875 42.84375 61.546875 
Q 39.203125 64.796875 32.078125 64.796875 
z
" id="DejaVuSans-52"/>
      <path d="M 56.203125 29.59375 
L 56.203125 25.203125 
L 14.890625 25.203125 
Q 15.484375 15.921875 20.484375 11.0625 
Q 25.484375 6.203125 34.421875 6.203125 
Q 39.59375 6.203125 44.453125 7.46875 
Q 49.3125 8.734375 54.109375 11.28125 
L 54.109375 2.78125 
Q 49.265625 0.734375 44.1875 -0.34375 
Q 39.109375 -1.421875 33.890625 -1.421875 
Q 20.796875 -1.421875 13.15625 6.1875 
Q 5.515625 13.8125 5.515625 26.8125 
Q 5.515625 40.234375 12.765625 48.109375 
Q 20.015625 56 32.328125 56 
Q 43.359375 56 49.78125 48.890625 
Q 56.203125 41.796875 56.203125 29.59375 
z
M 47.21875 32.234375 
Q 47.125 39.59375 43.09375 43.984375 
Q 39.0625 48.390625 32.421875 48.390625 
Q 24.90625 48.390625 20.390625 44.140625 
Q 15.875 39.890625 15.1875 32.171875 
z
" id="DejaVuSans-65"/>
      <path d="M 44.28125 53.078125 
L 44.28125 44.578125 
Q 40.484375 46.53125 36.375 47.5 
Q 32.28125 48.484375 27.875 48.484375 
Q 21.1875 48.484375 17.84375 46.4375 
Q 14.5 44.390625 14.5 40.28125 
Q 14.5 37.15625 16.890625 35.375 
Q 19.28125 33.59375 26.515625 31.984375 
L 29.59375 31.296875 
Q 39.15625 29.25 43.1875 25.515625 
Q 47.21875 21.78125 47.21875 15.09375 
Q 47.21875 7.46875 41.1875 3.015625 
Q 35.15625 -1.421875 24.609375 -1.421875 
Q 20.21875 -1.421875 15.453125 -0.5625 
Q 10.6875 0.296875 5.421875 2 
L 5.421875 11.28125 
Q 10.40625 8.6875 15.234375 7.390625 
Q 20.0625 6.109375 24.8125 6.109375 
Q 31.15625 6.109375 34.5625 8.28125 
Q 37.984375 10.453125 37.984375 14.40625 
Q 37.984375 18.0625 35.515625 20.015625 
Q 33.0625 21.96875 24.703125 23.78125 
L 21.578125 24.515625 
Q 13.234375 26.265625 9.515625 29.90625 
Q 5.8125 33.546875 5.8125 39.890625 
Q 5.8125 47.609375 11.28125 51.796875 
Q 16.75 56 26.8125 56 
Q 31.78125 56 36.171875 55.265625 
Q 40.578125 54.546875 44.28125 53.078125 
z
" id="DejaVuSans-73"/>
      <path d="M 18.109375 8.203125 
L 18.109375 -20.796875 
L 9.078125 -20.796875 
L 9.078125 54.6875 
L 18.109375 54.6875 
L 18.109375 46.390625 
Q 20.953125 51.265625 25.265625 53.625 
Q 29.59375 56 35.59375 56 
Q 45.5625 56 51.78125 48.09375 
Q 58.015625 40.1875 58.015625 27.296875 
Q 58.015625 14.40625 51.78125 6.484375 
Q 45.5625 -1.421875 35.59375 -1.421875 
Q 29.59375 -1.421875 25.265625 0.953125 
Q 20.953125 3.328125 18.109375 8.203125 
z
M 48.6875 27.296875 
Q 48.6875 37.203125 44.609375 42.84375 
Q 40.53125 48.484375 33.40625 48.484375 
Q 26.265625 48.484375 22.1875 42.84375 
Q 18.109375 37.203125 18.109375 27.296875 
Q 18.109375 17.390625 22.1875 11.75 
Q 26.265625 6.109375 33.40625 6.109375 
Q 40.53125 6.109375 44.609375 11.75 
Q 48.6875 17.390625 48.6875 27.296875 
z
" id="DejaVuSans-70"/>
      <path d="M 30.609375 48.390625 
Q 23.390625 48.390625 19.1875 42.75 
Q 14.984375 37.109375 14.984375 27.296875 
Q 14.984375 17.484375 19.15625 11.84375 
Q 23.34375 6.203125 30.609375 6.203125 
Q 37.796875 6.203125 41.984375 11.859375 
Q 46.1875 17.53125 46.1875 27.296875 
Q 46.1875 37.015625 41.984375 42.703125 
Q 37.796875 48.390625 30.609375 48.390625 
z
M 30.609375 56 
Q 42.328125 56 49.015625 48.375 
Q 55.71875 40.765625 55.71875 27.296875 
Q 55.71875 13.875 49.015625 6.21875 
Q 42.328125 -1.421875 30.609375 -1.421875 
Q 18.84375 -1.421875 12.171875 6.21875 
Q 5.515625 13.875 5.515625 27.296875 
Q 5.515625 40.765625 12.171875 48.375 
Q 18.84375 56 30.609375 56 
z
" id="DejaVuSans-6f"/>
      <path d="M 54.890625 33.015625 
L 54.890625 0 
L 45.90625 0 
L 45.90625 32.71875 
Q 45.90625 40.484375 42.875 44.328125 
Q 39.84375 48.1875 33.796875 48.1875 
Q 26.515625 48.1875 22.3125 43.546875 
Q 18.109375 38.921875 18.109375 30.90625 
L 18.109375 0 
L 9.078125 0 
L 9.078125 54.6875 
L 18.109375 54.6875 
L 18.109375 46.1875 
Q 21.34375 51.125 25.703125 53.5625 
Q 30.078125 56 35.796875 56 
Q 45.21875 56 50.046875 50.171875 
Q 54.890625 44.34375 54.890625 33.015625 
z
" id="DejaVuSans-6e"/>
      <path id="DejaVuSans-20"/>
      <path d="M -0.296875 72.90625 
L 61.375 72.90625 
L 61.375 64.59375 
L 35.5 64.59375 
L 35.5 0 
L 25.59375 0 
L 25.59375 64.59375 
L -0.296875 64.59375 
z
" id="DejaVuSans-54"/>
      <path d="M 9.421875 54.6875 
L 18.40625 54.6875 
L 18.40625 0 
L 9.421875 0 
z
M 9.421875 75.984375 
L 18.40625 75.984375 
L 18.40625 64.59375 
L 9.421875 64.59375 
z
" id="DejaVuSans-69"/>
      <path d="M 52 44.1875 
Q 55.375 50.25 60.0625 53.125 
Q 64.75 56 71.09375 56 
Q 79.640625 56 84.28125 50.015625 
Q 88.921875 44.046875 88.921875 33.015625 
L 88.921875 0 
L 79.890625 0 
L 79.890625 32.71875 
Q 79.890625 40.578125 77.09375 44.375 
Q 74.3125 48.1875 68.609375 48.1875 
Q 61.625 48.1875 57.5625 43.546875 
Q 53.515625 38.921875 53.515625 30.90625 
L 53.515625 0 
L 44.484375 0 
L 44.484375 32.71875 
Q 44.484375 40.625 41.703125 44.40625 
Q 38.921875 48.1875 33.109375 48.1875 
Q 26.21875 48.1875 22.15625 43.53125 
Q 18.109375 38.875 18.109375 30.90625 
L 18.109375 0 
L 9.078125 0 
L 9.078125 54.6875 
L 18.109375 54.6875 
L 18.109375 46.1875 
Q 21.1875 51.21875 25.484375 53.609375 
Q 29.78125 56 35.6875 56 
Q 41.65625 56 45.828125 52.96875 
Q 50 49.953125 52 44.1875 
z
" id="DejaVuSans-6d"/>
      <path d="M 8.59375 75.984375 
L 29.296875 75.984375 
L 29.296875 69 
L 17.578125 69 
L 17.578125 -6.203125 
L 29.296875 -6.203125 
L 29.296875 -13.1875 
L 8.59375 -13.1875 
z
" id="DejaVuSans-5b"/>
      <path d="M 30.421875 75.984375 
L 30.421875 -13.1875 
L 9.71875 -13.1875 
L 9.71875 -6.203125 
L 21.390625 -6.203125 
L 21.390625 69 
L 9.71875 69 
L 9.71875 75.984375 
z
" id="DejaVuSans-5d"/>
     </defs>
     <g transform="translate(160.557812 411.982813)rotate(-90)scale(0.1 -0.1)">
      <use xlink:href="#DejaVuSans-52"/>
      <use x="69.419922" xlink:href="#DejaVuSans-65"/>
      <use x="130.943359" xlink:href="#DejaVuSans-73"/>
      <use x="183.042969" xlink:href="#DejaVuSans-70"/>
      <use x="246.519531" xlink:href="#DejaVuSans-6f"/>
      <use x="307.701172" xlink:href="#DejaVuSans-6e"/>
      <use x="371.080078" xlink:href="#DejaVuSans-73"/>
      <use x="423.179688" xlink:href="#DejaVuSans-65"/>
      <use x="484.703125" xlink:href="#DejaVuSans-20"/>
      <use x="516.490234" xlink:href="#DejaVuSans-54"/>
      <use x="577.527344" xlink:href="#DejaVuSans-69"/>
      <use x="605.310547" xlink:href="#DejaVuSans-6d"/>
      <use x="702.722656" xlink:href="#DejaVuSans-65"/>
      <use x="764.246094" xlink:href="#DejaVuSans-73"/>
      <use x="816.345703" xlink:href="#DejaVuSans-20"/>
      <use x="848.132812" xlink:href="#DejaVuSans-5b"/>
      <use x="887.146484" xlink:href="#DejaVuSans-6d"/>
      <use x="984.558594" xlink:href="#DejaVuSans-73"/>
      <use x="1036.658203" xlink:href="#DejaVuSans-5d"/>
     </g>
    </g>
   </g>
   <g id="line2d_13">
    <path clip-path="url(#pe994fd99f6)" d="M 233.529884 478.408433 
L 1242.470116 478.408433 
" style="fill:none;stroke:#000000;stroke-linecap:square;stroke-width:1.5;"/>
   </g>
   <g id="patch_94">
    <path d="M 180 630 
L 180 86.4 
" style="fill:none;stroke:#000000;stroke-linecap:square;stroke-linejoin:miter;stroke-width:0.8;"/>
   </g>
   <g id="patch_95">
    <path d="M 1296 630 
L 1296 86.4 
" style="fill:none;stroke:#000000;stroke-linecap:square;stroke-linejoin:miter;stroke-width:0.8;"/>
   </g>
   <g id="patch_96">
    <path d="M 180 630 
L 1296 630 
" style="fill:none;stroke:#000000;stroke-linecap:square;stroke-linejoin:miter;stroke-width:0.8;"/>
   </g>
   <g id="patch_97">
    <path d="M 180 86.4 
L 1296 86.4 
" style="fill:none;stroke:#000000;stroke-linecap:square;stroke-linejoin:miter;stroke-width:0.8;"/>
   </g>
   <g id="text_14">
    <!-- Recognition 1.72 ms -->
    <defs>
     <path d="M 48.78125 52.59375 
L 48.78125 44.1875 
Q 44.96875 46.296875 41.140625 47.34375 
Q 37.3125 48.390625 33.40625 48.390625 
Q 24.65625 48.390625 19.8125 42.84375 
Q 14.984375 37.3125 14.984375 27.296875 
Q 14.984375 17.28125 19.8125 11.734375 
Q 24.65625 6.203125 33.40625 6.203125 
Q 37.3125 6.203125 41.140625 7.25 
Q 44.96875 8.296875 48.78125 10.40625 
L 48.78125 2.09375 
Q 45.015625 0.34375 40.984375 -0.53125 
Q 36.96875 -1.421875 32.421875 -1.421875 
Q 20.0625 -1.421875 12.78125 6.34375 
Q 5.515625 14.109375 5.515625 27.296875 
Q 5.515625 40.671875 12.859375 48.328125 
Q 20.21875 56 33.015625 56 
Q 37.15625 56 41.109375 55.140625 
Q 45.0625 54.296875 48.78125 52.59375 
z
" id="DejaVuSans-63"/>
     <path d="M 45.40625 27.984375 
Q 45.40625 37.75 41.375 43.109375 
Q 37.359375 48.484375 30.078125 48.484375 
Q 22.859375 48.484375 18.828125 43.109375 
Q 14.796875 37.75 14.796875 27.984375 
Q 14.796875 18.265625 18.828125 12.890625 
Q 22.859375 7.515625 30.078125 7.515625 
Q 37.359375 7.515625 41.375 12.890625 
Q 45.40625 18.265625 45.40625 27.984375 
z
M 54.390625 6.78125 
Q 54.390625 -7.171875 48.1875 -13.984375 
Q 42 -20.796875 29.203125 -20.796875 
Q 24.46875 -20.796875 20.265625 -20.09375 
Q 16.0625 -19.390625 12.109375 -17.921875 
L 12.109375 -9.1875 
Q 16.0625 -11.328125 19.921875 -12.34375 
Q 23.78125 -13.375 27.78125 -13.375 
Q 36.625 -13.375 41.015625 -8.765625 
Q 45.40625 -4.15625 45.40625 5.171875 
L 45.40625 9.625 
Q 42.625 4.78125 38.28125 2.390625 
Q 33.9375 0 27.875 0 
Q 17.828125 0 11.671875 7.65625 
Q 5.515625 15.328125 5.515625 27.984375 
Q 5.515625 40.671875 11.671875 48.328125 
Q 17.828125 56 27.875 56 
Q 33.9375 56 38.28125 53.609375 
Q 42.625 51.21875 45.40625 46.390625 
L 45.40625 54.6875 
L 54.390625 54.6875 
z
" id="DejaVuSans-67"/>
     <path d="M 18.3125 70.21875 
L 18.3125 54.6875 
L 36.8125 54.6875 
L 36.8125 47.703125 
L 18.3125 47.703125 
L 18.3125 18.015625 
Q 18.3125 11.328125 20.140625 9.421875 
Q 21.96875 7.515625 27.59375 7.515625 
L 36.8125 7.515625 
L 36.8125 0 
L 27.59375 0 
Q 17.1875 0 13.234375 3.875 
Q 9.28125 7.765625 9.28125 18.015625 
L 9.28125 47.703125 
L 2.6875 47.703125 
L 2.6875 54.6875 
L 9.28125 54.6875 
L 9.28125 70.21875 
z
" id="DejaVuSans-74"/>
     <path d="M 10.6875 12.40625 
L 21 12.40625 
L 21 0 
L 10.6875 0 
z
" id="DejaVuSans-2e"/>
     <path d="M 8.203125 72.90625 
L 55.078125 72.90625 
L 55.078125 68.703125 
L 28.609375 0 
L 18.3125 0 
L 43.21875 64.59375 
L 8.203125 64.59375 
z
" id="DejaVuSans-37"/>
    </defs>
    <g transform="translate(676.258125 80.4)scale(0.12 -0.12)">
     <use xlink:href="#DejaVuSans-52"/>
     <use x="69.419922" xlink:href="#DejaVuSans-65"/>
     <use x="130.943359" xlink:href="#DejaVuSans-63"/>
     <use x="185.923828" xlink:href="#DejaVuSans-6f"/>
     <use x="247.105469" xlink:href="#DejaVuSans-67"/>
     <use x="310.582031" xlink:href="#DejaVuSans-6e"/>
     <use x="373.960938" xlink:href="#DejaVuSans-69"/>
     <use x="401.744141" xlink:href="#DejaVuSans-74"/>
     <use x="440.953125" xlink:href="#DejaVuSans-69"/>
     <use x="468.736328" xlink:href="#DejaVuSans-6f"/>
     <use x="529.917969" xlink:href="#DejaVuSans-6e"/>
     <use x="593.296875" xlink:href="#DejaVuSans-20"/>
     <use x="625.083984" xlink:href="#DejaVuSans-31"/>
     <use x="688.707031" xlink:href="#DejaVuSans-2e"/>
     <use x="720.494141" xlink:href="#DejaVuSans-37"/>
     <use x="784.117188" xlink:href="#DejaVuSans-32"/>
     <use x="847.740234" xlink:href="#DejaVuSans-20"/>
     <use x="879.527344" xlink:href="#DejaVuSans-6d"/>
     <use x="976.939453" xlink:href="#DejaVuSans-73"/>
    </g>
   </g>
  </g>
  <g id="axes_2">
   <g id="matplotlib.axis_3">
    <g id="ytick_8">
     <g id="line2d_14">
      <defs>
       <path d="M 0 0 
L 3.5 0 
" id="m8f06a48396" style="stroke:#000000;stroke-width:0.8;"/>
      </defs>
      <g>
       <use style="stroke:#000000;stroke-width:0.8;" x="1296" xlink:href="#m8f06a48396" y="605.290909"/>
      </g>
     </g>
     <g id="text_15">
      <!-- 0 -->
      <g transform="translate(1303 609.090128)scale(0.1 -0.1)">
       <use xlink:href="#DejaVuSans-30"/>
      </g>
     </g>
    </g>
    <g id="ytick_9">
     <g id="line2d_15">
      <g>
       <use style="stroke:#000000;stroke-width:0.8;" x="1296" xlink:href="#m8f06a48396" y="530.414876"/>
      </g>
     </g>
     <g id="text_16">
      <!-- 5 -->
      <g transform="translate(1303 534.214095)scale(0.1 -0.1)">
       <use xlink:href="#DejaVuSans-35"/>
      </g>
     </g>
    </g>
    <g id="ytick_10">
     <g id="line2d_16">
      <g>
       <use style="stroke:#000000;stroke-width:0.8;" x="1296" xlink:href="#m8f06a48396" y="455.538843"/>
      </g>
     </g>
     <g id="text_17">
      <!-- 10 -->
      <g transform="translate(1303 459.338062)scale(0.1 -0.1)">
       <use xlink:href="#DejaVuSans-31"/>
       <use x="63.623047" xlink:href="#DejaVuSans-30"/>
      </g>
     </g>
    </g>
    <g id="ytick_11">
     <g id="line2d_17">
      <g>
       <use style="stroke:#000000;stroke-width:0.8;" x="1296" xlink:href="#m8f06a48396" y="380.66281"/>
      </g>
     </g>
     <g id="text_18">
      <!-- 15 -->
      <g transform="translate(1303 384.462029)scale(0.1 -0.1)">
       <use xlink:href="#DejaVuSans-31"/>
       <use x="63.623047" xlink:href="#DejaVuSans-35"/>
      </g>
     </g>
    </g>
    <g id="ytick_12">
     <g id="line2d_18">
      <g>
       <use style="stroke:#000000;stroke-width:0.8;" x="1296" xlink:href="#m8f06a48396" y="305.786777"/>
      </g>
     </g>
     <g id="text_19">
      <!-- 20 -->
      <g transform="translate(1303 309.585996)scale(0.1 -0.1)">
       <use xlink:href="#DejaVuSans-32"/>
       <use x="63.623047" xlink:href="#DejaVuSans-30"/>
      </g>
     </g>
    </g>
    <g id="ytick_13">
     <g id="line2d_19">
      <g>
       <use style="stroke:#000000;stroke-width:0.8;" x="1296" xlink:href="#m8f06a48396" y="230.910744"/>
      </g>
     </g>
     <g id="text_20">
      <!-- 25 -->
      <g transform="translate(1303 234.709963)scale(0.1 -0.1)">
       <use xlink:href="#DejaVuSans-32"/>
       <use x="63.623047" xlink:href="#DejaVuSans-35"/>
      </g>
     </g>
    </g>
    <g id="ytick_14">
     <g id="line2d_20">
      <g>
       <use style="stroke:#000000;stroke-width:0.8;" x="1296" xlink:href="#m8f06a48396" y="156.034711"/>
      </g>
     </g>
     <g id="text_21">
      <!-- 30 -->
      <g transform="translate(1303 159.833929)scale(0.1 -0.1)">
       <use xlink:href="#DejaVuSans-33"/>
       <use x="63.623047" xlink:href="#DejaVuSans-30"/>
      </g>
     </g>
    </g>
    <g id="text_22">
     <!-- Lidar Obstacles -->
     <defs>
      <path d="M 9.8125 72.90625 
L 19.671875 72.90625 
L 19.671875 8.296875 
L 55.171875 8.296875 
L 55.171875 0 
L 9.8125 0 
z
" id="DejaVuSans-4c"/>
      <path d="M 45.40625 46.390625 
L 45.40625 75.984375 
L 54.390625 75.984375 
L 54.390625 0 
L 45.40625 0 
L 45.40625 8.203125 
Q 42.578125 3.328125 38.25 0.953125 
Q 33.9375 -1.421875 27.875 -1.421875 
Q 17.96875 -1.421875 11.734375 6.484375 
Q 5.515625 14.40625 5.515625 27.296875 
Q 5.515625 40.1875 11.734375 48.09375 
Q 17.96875 56 27.875 56 
Q 33.9375 56 38.25 53.625 
Q 42.578125 51.265625 45.40625 46.390625 
z
M 14.796875 27.296875 
Q 14.796875 17.390625 18.875 11.75 
Q 22.953125 6.109375 30.078125 6.109375 
Q 37.203125 6.109375 41.296875 11.75 
Q 45.40625 17.390625 45.40625 27.296875 
Q 45.40625 37.203125 41.296875 42.84375 
Q 37.203125 48.484375 30.078125 48.484375 
Q 22.953125 48.484375 18.875 42.84375 
Q 14.796875 37.203125 14.796875 27.296875 
z
" id="DejaVuSans-64"/>
      <path d="M 34.28125 27.484375 
Q 23.390625 27.484375 19.1875 25 
Q 14.984375 22.515625 14.984375 16.5 
Q 14.984375 11.71875 18.140625 8.90625 
Q 21.296875 6.109375 26.703125 6.109375 
Q 34.1875 6.109375 38.703125 11.40625 
Q 43.21875 16.703125 43.21875 25.484375 
L 43.21875 27.484375 
z
M 52.203125 31.203125 
L 52.203125 0 
L 43.21875 0 
L 43.21875 8.296875 
Q 40.140625 3.328125 35.546875 0.953125 
Q 30.953125 -1.421875 24.3125 -1.421875 
Q 15.921875 -1.421875 10.953125 3.296875 
Q 6 8.015625 6 15.921875 
Q 6 25.140625 12.171875 29.828125 
Q 18.359375 34.515625 30.609375 34.515625 
L 43.21875 34.515625 
L 43.21875 35.40625 
Q 43.21875 41.609375 39.140625 45 
Q 35.0625 48.390625 27.6875 48.390625 
Q 23 48.390625 18.546875 47.265625 
Q 14.109375 46.140625 10.015625 43.890625 
L 10.015625 52.203125 
Q 14.9375 54.109375 19.578125 55.046875 
Q 24.21875 56 28.609375 56 
Q 40.484375 56 46.34375 49.84375 
Q 52.203125 43.703125 52.203125 31.203125 
z
" id="DejaVuSans-61"/>
      <path d="M 41.109375 46.296875 
Q 39.59375 47.171875 37.8125 47.578125 
Q 36.03125 48 33.890625 48 
Q 26.265625 48 22.1875 43.046875 
Q 18.109375 38.09375 18.109375 28.8125 
L 18.109375 0 
L 9.078125 0 
L 9.078125 54.6875 
L 18.109375 54.6875 
L 18.109375 46.1875 
Q 20.953125 51.171875 25.484375 53.578125 
Q 30.03125 56 36.53125 56 
Q 37.453125 56 38.578125 55.875 
Q 39.703125 55.765625 41.0625 55.515625 
z
" id="DejaVuSans-72"/>
      <path d="M 39.40625 66.21875 
Q 28.65625 66.21875 22.328125 58.203125 
Q 16.015625 50.203125 16.015625 36.375 
Q 16.015625 22.609375 22.328125 14.59375 
Q 28.65625 6.59375 39.40625 6.59375 
Q 50.140625 6.59375 56.421875 14.59375 
Q 62.703125 22.609375 62.703125 36.375 
Q 62.703125 50.203125 56.421875 58.203125 
Q 50.140625 66.21875 39.40625 66.21875 
z
M 39.40625 74.21875 
Q 54.734375 74.21875 63.90625 63.9375 
Q 73.09375 53.65625 73.09375 36.375 
Q 73.09375 19.140625 63.90625 8.859375 
Q 54.734375 -1.421875 39.40625 -1.421875 
Q 24.03125 -1.421875 14.8125 8.828125 
Q 5.609375 19.09375 5.609375 36.375 
Q 5.609375 53.65625 14.8125 63.9375 
Q 24.03125 74.21875 39.40625 74.21875 
z
" id="DejaVuSans-4f"/>
      <path d="M 48.6875 27.296875 
Q 48.6875 37.203125 44.609375 42.84375 
Q 40.53125 48.484375 33.40625 48.484375 
Q 26.265625 48.484375 22.1875 42.84375 
Q 18.109375 37.203125 18.109375 27.296875 
Q 18.109375 17.390625 22.1875 11.75 
Q 26.265625 6.109375 33.40625 6.109375 
Q 40.53125 6.109375 44.609375 11.75 
Q 48.6875 17.390625 48.6875 27.296875 
z
M 18.109375 46.390625 
Q 20.953125 51.265625 25.265625 53.625 
Q 29.59375 56 35.59375 56 
Q 45.5625 56 51.78125 48.09375 
Q 58.015625 40.1875 58.015625 27.296875 
Q 58.015625 14.40625 51.78125 6.484375 
Q 45.5625 -1.421875 35.59375 -1.421875 
Q 29.59375 -1.421875 25.265625 0.953125 
Q 20.953125 3.328125 18.109375 8.203125 
L 18.109375 0 
L 9.078125 0 
L 9.078125 75.984375 
L 18.109375 75.984375 
z
" id="DejaVuSans-62"/>
      <path d="M 9.421875 75.984375 
L 18.40625 75.984375 
L 18.40625 0 
L 9.421875 0 
z
" id="DejaVuSans-6c"/>
     </defs>
     <g transform="translate(1327.323437 396.816406)rotate(-90)scale(0.1 -0.1)">
      <use xlink:href="#DejaVuSans-4c"/>
      <use x="55.712891" xlink:href="#DejaVuSans-69"/>
      <use x="83.496094" xlink:href="#DejaVuSans-64"/>
      <use x="146.972656" xlink:href="#DejaVuSans-61"/>
      <use x="208.251953" xlink:href="#DejaVuSans-72"/>
      <use x="249.365234" xlink:href="#DejaVuSans-20"/>
      <use x="281.152344" xlink:href="#DejaVuSans-4f"/>
      <use x="359.863281" xlink:href="#DejaVuSans-62"/>
      <use x="423.339844" xlink:href="#DejaVuSans-73"/>
      <use x="475.439453" xlink:href="#DejaVuSans-74"/>
      <use x="514.648438" xlink:href="#DejaVuSans-61"/>
      <use x="575.927734" xlink:href="#DejaVuSans-63"/>
      <use x="630.908203" xlink:href="#DejaVuSans-6c"/>
      <use x="658.691406" xlink:href="#DejaVuSans-65"/>
      <use x="720.214844" xlink:href="#DejaVuSans-73"/>
     </g>
    </g>
   </g>
   <g id="line2d_21">
    <defs>
     <path d="M 0 3 
C 0.795609 3 1.55874 2.683901 2.12132 2.12132 
C 2.683901 1.55874 3 0.795609 3 0 
C 3 -0.795609 2.683901 -1.55874 2.12132 -2.12132 
C 1.55874 -2.683901 0.795609 -3 0 -3 
C -0.795609 -3 -1.55874 -2.683901 -2.12132 -2.12132 
C -2.683901 -1.55874 -3 -0.795609 -3 0 
C -3 0.795609 -2.683901 1.55874 -2.12132 2.12132 
C -1.55874 2.683901 -0.795609 3 0 3 
z
" id="m9a007800cd" style="stroke:#ff0000;"/>
    </defs>
    <g clip-path="url(#pe994fd99f6)">
     <use style="fill:#ff0000;stroke:#ff0000;" x="233.529884" xlink:href="#m9a007800cd" y="126.084298"/>
     <use style="fill:#ff0000;stroke:#ff0000;" x="244.740331" xlink:href="#m9a007800cd" y="425.58843"/>
     <use style="fill:#ff0000;stroke:#ff0000;" x="255.950779" xlink:href="#m9a007800cd" y="605.290909"/>
     <use style="fill:#ff0000;stroke:#ff0000;" x="267.161226" xlink:href="#m9a007800cd" y="440.563636"/>
     <use style="fill:#ff0000;stroke:#ff0000;" x="278.371673" xlink:href="#m9a007800cd" y="455.538843"/>
     <use style="fill:#ff0000;stroke:#ff0000;" x="289.58212" xlink:href="#m9a007800cd" y="515.439669"/>
     <use style="fill:#ff0000;stroke:#ff0000;" x="300.792567" xlink:href="#m9a007800cd" y="200.960331"/>
     <use style="fill:#ff0000;stroke:#ff0000;" x="312.003014" xlink:href="#m9a007800cd" y="425.58843"/>
     <use style="fill:#ff0000;stroke:#ff0000;" x="323.213461" xlink:href="#m9a007800cd" y="470.51405"/>
     <use style="fill:#ff0000;stroke:#ff0000;" x="334.423908" xlink:href="#m9a007800cd" y="530.414876"/>
     <use style="fill:#ff0000;stroke:#ff0000;" x="345.634355" xlink:href="#m9a007800cd" y="410.613223"/>
     <use style="fill:#ff0000;stroke:#ff0000;" x="356.844802" xlink:href="#m9a007800cd" y="530.414876"/>
     <use style="fill:#ff0000;stroke:#ff0000;" x="368.055249" xlink:href="#m9a007800cd" y="470.51405"/>
     <use style="fill:#ff0000;stroke:#ff0000;" x="379.265696" xlink:href="#m9a007800cd" y="485.489256"/>
     <use style="fill:#ff0000;stroke:#ff0000;" x="390.476143" xlink:href="#m9a007800cd" y="485.489256"/>
     <use style="fill:#ff0000;stroke:#ff0000;" x="401.68659" xlink:href="#m9a007800cd" y="545.390083"/>
     <use style="fill:#ff0000;stroke:#ff0000;" x="412.897037" xlink:href="#m9a007800cd" y="590.315702"/>
     <use style="fill:#ff0000;stroke:#ff0000;" x="424.107484" xlink:href="#m9a007800cd" y="395.638017"/>
     <use style="fill:#ff0000;stroke:#ff0000;" x="435.317931" xlink:href="#m9a007800cd" y="590.315702"/>
     <use style="fill:#ff0000;stroke:#ff0000;" x="446.528378" xlink:href="#m9a007800cd" y="500.464463"/>
     <use style="fill:#ff0000;stroke:#ff0000;" x="457.738825" xlink:href="#m9a007800cd" y="395.638017"/>
     <use style="fill:#ff0000;stroke:#ff0000;" x="468.949272" xlink:href="#m9a007800cd" y="365.687603"/>
     <use style="fill:#ff0000;stroke:#ff0000;" x="480.159719" xlink:href="#m9a007800cd" y="590.315702"/>
     <use style="fill:#ff0000;stroke:#ff0000;" x="491.370166" xlink:href="#m9a007800cd" y="395.638017"/>
     <use style="fill:#ff0000;stroke:#ff0000;" x="502.580613" xlink:href="#m9a007800cd" y="605.290909"/>
     <use style="fill:#ff0000;stroke:#ff0000;" x="513.79106" xlink:href="#m9a007800cd" y="545.390083"/>
     <use style="fill:#ff0000;stroke:#ff0000;" x="525.001507" xlink:href="#m9a007800cd" y="440.563636"/>
     <use style="fill:#ff0000;stroke:#ff0000;" x="536.211954" xlink:href="#m9a007800cd" y="575.340496"/>
     <use style="fill:#ff0000;stroke:#ff0000;" x="547.422401" xlink:href="#m9a007800cd" y="590.315702"/>
     <use style="fill:#ff0000;stroke:#ff0000;" x="558.632848" xlink:href="#m9a007800cd" y="530.414876"/>
     <use style="fill:#ff0000;stroke:#ff0000;" x="569.843295" xlink:href="#m9a007800cd" y="380.66281"/>
     <use style="fill:#ff0000;stroke:#ff0000;" x="581.053742" xlink:href="#m9a007800cd" y="515.439669"/>
     <use style="fill:#ff0000;stroke:#ff0000;" x="592.264189" xlink:href="#m9a007800cd" y="156.034711"/>
     <use style="fill:#ff0000;stroke:#ff0000;" x="603.474636" xlink:href="#m9a007800cd" y="545.390083"/>
     <use style="fill:#ff0000;stroke:#ff0000;" x="614.685083" xlink:href="#m9a007800cd" y="500.464463"/>
     <use style="fill:#ff0000;stroke:#ff0000;" x="625.89553" xlink:href="#m9a007800cd" y="545.390083"/>
     <use style="fill:#ff0000;stroke:#ff0000;" x="637.105977" xlink:href="#m9a007800cd" y="425.58843"/>
     <use style="fill:#ff0000;stroke:#ff0000;" x="648.316424" xlink:href="#m9a007800cd" y="545.390083"/>
     <use style="fill:#ff0000;stroke:#ff0000;" x="659.526871" xlink:href="#m9a007800cd" y="470.51405"/>
     <use style="fill:#ff0000;stroke:#ff0000;" x="670.737318" xlink:href="#m9a007800cd" y="380.66281"/>
     <use style="fill:#ff0000;stroke:#ff0000;" x="681.947765" xlink:href="#m9a007800cd" y="380.66281"/>
     <use style="fill:#ff0000;stroke:#ff0000;" x="693.158212" xlink:href="#m9a007800cd" y="425.58843"/>
     <use style="fill:#ff0000;stroke:#ff0000;" x="704.368659" xlink:href="#m9a007800cd" y="545.390083"/>
     <use style="fill:#ff0000;stroke:#ff0000;" x="715.579106" xlink:href="#m9a007800cd" y="530.414876"/>
     <use style="fill:#ff0000;stroke:#ff0000;" x="726.789553" xlink:href="#m9a007800cd" y="605.290909"/>
     <use style="fill:#ff0000;stroke:#ff0000;" x="738" xlink:href="#m9a007800cd" y="440.563636"/>
     <use style="fill:#ff0000;stroke:#ff0000;" x="749.210447" xlink:href="#m9a007800cd" y="365.687603"/>
     <use style="fill:#ff0000;stroke:#ff0000;" x="760.420894" xlink:href="#m9a007800cd" y="605.290909"/>
     <use style="fill:#ff0000;stroke:#ff0000;" x="771.631341" xlink:href="#m9a007800cd" y="335.73719"/>
     <use style="fill:#ff0000;stroke:#ff0000;" x="782.841788" xlink:href="#m9a007800cd" y="425.58843"/>
     <use style="fill:#ff0000;stroke:#ff0000;" x="794.052235" xlink:href="#m9a007800cd" y="575.340496"/>
     <use style="fill:#ff0000;stroke:#ff0000;" x="805.262682" xlink:href="#m9a007800cd" y="470.51405"/>
     <use style="fill:#ff0000;stroke:#ff0000;" x="816.473129" xlink:href="#m9a007800cd" y="500.464463"/>
     <use style="fill:#ff0000;stroke:#ff0000;" x="827.683576" xlink:href="#m9a007800cd" y="545.390083"/>
     <use style="fill:#ff0000;stroke:#ff0000;" x="838.894023" xlink:href="#m9a007800cd" y="185.985124"/>
     <use style="fill:#ff0000;stroke:#ff0000;" x="850.10447" xlink:href="#m9a007800cd" y="545.390083"/>
     <use style="fill:#ff0000;stroke:#ff0000;" x="861.314917" xlink:href="#m9a007800cd" y="335.73719"/>
     <use style="fill:#ff0000;stroke:#ff0000;" x="872.525364" xlink:href="#m9a007800cd" y="545.390083"/>
     <use style="fill:#ff0000;stroke:#ff0000;" x="883.735811" xlink:href="#m9a007800cd" y="560.365289"/>
     <use style="fill:#ff0000;stroke:#ff0000;" x="894.946258" xlink:href="#m9a007800cd" y="440.563636"/>
     <use style="fill:#ff0000;stroke:#ff0000;" x="906.156705" xlink:href="#m9a007800cd" y="275.836364"/>
     <use style="fill:#ff0000;stroke:#ff0000;" x="917.367152" xlink:href="#m9a007800cd" y="560.365289"/>
     <use style="fill:#ff0000;stroke:#ff0000;" x="928.577599" xlink:href="#m9a007800cd" y="410.613223"/>
     <use style="fill:#ff0000;stroke:#ff0000;" x="939.788046" xlink:href="#m9a007800cd" y="380.66281"/>
     <use style="fill:#ff0000;stroke:#ff0000;" x="950.998493" xlink:href="#m9a007800cd" y="560.365289"/>
     <use style="fill:#ff0000;stroke:#ff0000;" x="962.20894" xlink:href="#m9a007800cd" y="470.51405"/>
     <use style="fill:#ff0000;stroke:#ff0000;" x="973.419387" xlink:href="#m9a007800cd" y="515.439669"/>
     <use style="fill:#ff0000;stroke:#ff0000;" x="984.629834" xlink:href="#m9a007800cd" y="560.365289"/>
     <use style="fill:#ff0000;stroke:#ff0000;" x="995.840281" xlink:href="#m9a007800cd" y="380.66281"/>
     <use style="fill:#ff0000;stroke:#ff0000;" x="1007.050728" xlink:href="#m9a007800cd" y="380.66281"/>
     <use style="fill:#ff0000;stroke:#ff0000;" x="1018.261175" xlink:href="#m9a007800cd" y="575.340496"/>
     <use style="fill:#ff0000;stroke:#ff0000;" x="1029.471622" xlink:href="#m9a007800cd" y="515.439669"/>
     <use style="fill:#ff0000;stroke:#ff0000;" x="1040.682069" xlink:href="#m9a007800cd" y="305.786777"/>
     <use style="fill:#ff0000;stroke:#ff0000;" x="1051.892516" xlink:href="#m9a007800cd" y="335.73719"/>
     <use style="fill:#ff0000;stroke:#ff0000;" x="1063.102963" xlink:href="#m9a007800cd" y="575.340496"/>
     <use style="fill:#ff0000;stroke:#ff0000;" x="1074.31341" xlink:href="#m9a007800cd" y="350.712397"/>
     <use style="fill:#ff0000;stroke:#ff0000;" x="1085.523857" xlink:href="#m9a007800cd" y="455.538843"/>
     <use style="fill:#ff0000;stroke:#ff0000;" x="1096.734304" xlink:href="#m9a007800cd" y="515.439669"/>
     <use style="fill:#ff0000;stroke:#ff0000;" x="1107.944751" xlink:href="#m9a007800cd" y="335.73719"/>
     <use style="fill:#ff0000;stroke:#ff0000;" x="1119.155198" xlink:href="#m9a007800cd" y="111.109091"/>
     <use style="fill:#ff0000;stroke:#ff0000;" x="1130.365645" xlink:href="#m9a007800cd" y="590.315702"/>
     <use style="fill:#ff0000;stroke:#ff0000;" x="1141.576092" xlink:href="#m9a007800cd" y="560.365289"/>
     <use style="fill:#ff0000;stroke:#ff0000;" x="1152.786539" xlink:href="#m9a007800cd" y="455.538843"/>
     <use style="fill:#ff0000;stroke:#ff0000;" x="1163.996986" xlink:href="#m9a007800cd" y="500.464463"/>
     <use style="fill:#ff0000;stroke:#ff0000;" x="1175.207433" xlink:href="#m9a007800cd" y="560.365289"/>
     <use style="fill:#ff0000;stroke:#ff0000;" x="1186.41788" xlink:href="#m9a007800cd" y="290.81157"/>
     <use style="fill:#ff0000;stroke:#ff0000;" x="1197.628327" xlink:href="#m9a007800cd" y="455.538843"/>
     <use style="fill:#ff0000;stroke:#ff0000;" x="1208.838774" xlink:href="#m9a007800cd" y="365.687603"/>
     <use style="fill:#ff0000;stroke:#ff0000;" x="1220.049221" xlink:href="#m9a007800cd" y="485.489256"/>
     <use style="fill:#ff0000;stroke:#ff0000;" x="1231.259669" xlink:href="#m9a007800cd" y="425.58843"/>
     <use style="fill:#ff0000;stroke:#ff0000;" x="1242.470116" xlink:href="#m9a007800cd" y="275.836364"/>
    </g>
   </g>
   <g id="patch_98">
    <path d="M 180 630 
L 180 86.4 
" style="fill:none;stroke:#000000;stroke-linecap:square;stroke-linejoin:miter;stroke-width:0.8;"/>
   </g>
   <g id="patch_99">
    <path d="M 1296 630 
L 1296 86.4 
" style="fill:none;stroke:#000000;stroke-linecap:square;stroke-linejoin:miter;stroke-width:0.8;"/>
   </g>
   <g id="patch_100">
    <path d="M 180 630 
L 1296 630 
" style="fill:none;stroke:#000000;stroke-linecap:square;stroke-linejoin:miter;stroke-width:0.8;"/>
   </g>
   <g id="patch_101">
    <path d="M 180 86.4 
L 1296 86.4 
" style="fill:none;stroke:#000000;stroke-linecap:square;stroke-linejoin:miter;stroke-width:0.8;"/>
   </g>
  </g>
 </g>
 <defs>
  <clipPath id="pe994fd99f6">
   <rect height="543.6" width="1116" x="180" y="86.4"/>
  </clipPath>
 </defs>
</svg>
