<?xml version="1.0" encoding="utf-8" standalone="no"?>
<!DOCTYPE svg PUBLIC "-//W3C//DTD SVG 1.1//EN"
  "http://www.w3.org/Graphics/SVG/1.1/DTD/svg11.dtd">
<!-- Created with matplotlib (http://matplotlib.org/) -->
<svg height="720pt" version="1.1" viewBox="0 0 1440 720" width="1440pt" xmlns="http://www.w3.org/2000/svg" xmlns:xlink="http://www.w3.org/1999/xlink">
 <defs>
  <style type="text/css">
*{stroke-linecap:butt;stroke-linejoin:round;}
  </style>
 </defs>
 <g id="figure_1">
  <g id="patch_1">
   <path d="M 0 720 
L 1440 720 
L 1440 0 
L 0 0 
z
" style="fill:#ffffff;"/>
  </g>
  <g id="axes_1">
   <g id="patch_2">
    <path d="M 180 630 
L 1296 630 
L 1296 86.4 
L 180 86.4 
z
" style="fill:#ffffff;"/>
   </g>
   <g id="patch_3">
    <path clip-path="url(#p241f09a6cb)" d="M 230.727273 630 
L 235.825491 630 
L 235.825491 161.035376 
L 230.727273 161.035376 
z
" style="fill:#1f77b4;"/>
   </g>
   <g id="patch_4">
    <path clip-path="url(#p241f09a6cb)" d="M 240.923709 630 
L 246.021928 630 
L 246.021928 395.282672 
L 240.923709 395.282672 
z
" style="fill:#1f77b4;"/>
   </g>
   <g id="patch_5">
    <path clip-path="url(#p241f09a6cb)" d="M 251.120146 630 
L 256.218365 630 
L 256.218365 371.990319 
L 251.120146 371.990319 
z
" style="fill:#1f77b4;"/>
   </g>
   <g id="patch_6">
    <path clip-path="url(#p241f09a6cb)" d="M 261.316583 630 
L 266.414801 630 
L 266.414801 370.44034 
L 261.316583 370.44034 
z
" style="fill:#1f77b4;"/>
   </g>
   <g id="patch_7">
    <path clip-path="url(#p241f09a6cb)" d="M 271.51302 630 
L 276.611238 630 
L 276.611238 400.194321 
L 271.51302 400.194321 
z
" style="fill:#1f77b4;"/>
   </g>
   <g id="patch_8">
    <path clip-path="url(#p241f09a6cb)" d="M 281.709456 630 
L 286.807675 630 
L 286.807675 361.680759 
L 281.709456 361.680759 
z
" style="fill:#1f77b4;"/>
   </g>
   <g id="patch_9">
    <path clip-path="url(#p241f09a6cb)" d="M 291.905893 630 
L 297.004111 630 
L 297.004111 380.04627 
L 291.905893 380.04627 
z
" style="fill:#1f77b4;"/>
   </g>
   <g id="patch_10">
    <path clip-path="url(#p241f09a6cb)" d="M 302.10233 630 
L 307.200548 630 
L 307.200548 373.960346 
L 302.10233 373.960346 
z
" style="fill:#1f77b4;"/>
   </g>
   <g id="patch_11">
    <path clip-path="url(#p241f09a6cb)" d="M 312.298767 630 
L 317.396985 630 
L 317.396985 360.633919 
L 312.298767 360.633919 
z
" style="fill:#1f77b4;"/>
   </g>
   <g id="patch_12">
    <path clip-path="url(#p241f09a6cb)" d="M 322.495203 630 
L 327.593422 630 
L 327.593422 354.89563 
L 322.495203 354.89563 
z
" style="fill:#1f77b4;"/>
   </g>
   <g id="patch_13">
    <path clip-path="url(#p241f09a6cb)" d="M 332.69164 630 
L 337.789858 630 
L 337.789858 352.471978 
L 332.69164 352.471978 
z
" style="fill:#1f77b4;"/>
   </g>
   <g id="patch_14">
    <path clip-path="url(#p241f09a6cb)" d="M 342.888077 630 
L 347.986295 630 
L 347.986295 389.863545 
L 342.888077 389.863545 
z
" style="fill:#1f77b4;"/>
   </g>
   <g id="patch_15">
    <path clip-path="url(#p241f09a6cb)" d="M 353.084513 630 
L 358.182732 630 
L 358.182732 342.060647 
L 353.084513 342.060647 
z
" style="fill:#1f77b4;"/>
   </g>
   <g id="patch_16">
    <path clip-path="url(#p241f09a6cb)" d="M 363.28095 630 
L 368.379169 630 
L 368.379169 398.865111 
L 363.28095 398.865111 
z
" style="fill:#1f77b4;"/>
   </g>
   <g id="patch_17">
    <path clip-path="url(#p241f09a6cb)" d="M 373.477387 630 
L 378.575605 630 
L 378.575605 404.261197 
L 373.477387 404.261197 
z
" style="fill:#1f77b4;"/>
   </g>
   <g id="patch_18">
    <path clip-path="url(#p241f09a6cb)" d="M 383.673824 630 
L 388.772042 630 
L 388.772042 391.028081 
L 383.673824 391.028081 
z
" style="fill:#1f77b4;"/>
   </g>
   <g id="patch_19">
    <path clip-path="url(#p241f09a6cb)" d="M 393.87026 630 
L 398.968479 630 
L 398.968479 402.039809 
L 393.87026 402.039809 
z
" style="fill:#1f77b4;"/>
   </g>
   <g id="patch_20">
    <path clip-path="url(#p241f09a6cb)" d="M 404.066697 630 
L 409.164915 630 
L 409.164915 393.716517 
L 404.066697 393.716517 
z
" style="fill:#1f77b4;"/>
   </g>
   <g id="patch_21">
    <path clip-path="url(#p241f09a6cb)" d="M 414.263134 630 
L 419.361352 630 
L 419.361352 393.480075 
L 414.263134 393.480075 
z
" style="fill:#1f77b4;"/>
   </g>
   <g id="patch_22">
    <path clip-path="url(#p241f09a6cb)" d="M 424.459571 630 
L 429.557789 630 
L 429.557789 400.818774 
L 424.459571 400.818774 
z
" style="fill:#1f77b4;"/>
   </g>
   <g id="patch_23">
    <path clip-path="url(#p241f09a6cb)" d="M 434.656007 630 
L 439.754226 630 
L 439.754226 328.472332 
L 434.656007 328.472332 
z
" style="fill:#1f77b4;"/>
   </g>
   <g id="patch_24">
    <path clip-path="url(#p241f09a6cb)" d="M 444.852444 630 
L 449.950662 630 
L 449.950662 382.071592 
L 444.852444 382.071592 
z
" style="fill:#1f77b4;"/>
   </g>
   <g id="patch_25">
    <path clip-path="url(#p241f09a6cb)" d="M 455.048881 630 
L 460.147099 630 
L 460.147099 392.155695 
L 455.048881 392.155695 
z
" style="fill:#1f77b4;"/>
   </g>
   <g id="patch_26">
    <path clip-path="url(#p241f09a6cb)" d="M 465.245317 630 
L 470.343536 630 
L 470.343536 384.88779 
L 465.245317 384.88779 
z
" style="fill:#1f77b4;"/>
   </g>
   <g id="patch_27">
    <path clip-path="url(#p241f09a6cb)" d="M 475.441754 630 
L 480.539973 630 
L 480.539973 402.970854 
L 475.441754 402.970854 
z
" style="fill:#1f77b4;"/>
   </g>
   <g id="patch_28">
    <path clip-path="url(#p241f09a6cb)" d="M 485.638191 630 
L 490.736409 630 
L 490.736409 398.564246 
L 485.638191 398.564246 
z
" style="fill:#1f77b4;"/>
   </g>
   <g id="patch_29">
    <path clip-path="url(#p241f09a6cb)" d="M 495.834628 630 
L 500.932846 630 
L 500.932846 395.79555 
L 495.834628 395.79555 
z
" style="fill:#1f77b4;"/>
   </g>
   <g id="patch_30">
    <path clip-path="url(#p241f09a6cb)" d="M 506.031064 630 
L 511.129283 630 
L 511.129283 385.832881 
L 506.031064 385.832881 
z
" style="fill:#1f77b4;"/>
   </g>
   <g id="patch_31">
    <path clip-path="url(#p241f09a6cb)" d="M 516.227501 630 
L 521.32572 630 
L 521.32572 387.732233 
L 516.227501 387.732233 
z
" style="fill:#1f77b4;"/>
   </g>
   <g id="patch_32">
    <path clip-path="url(#p241f09a6cb)" d="M 526.423938 630 
L 531.522156 630 
L 531.522156 375.963086 
L 526.423938 375.963086 
z
" style="fill:#1f77b4;"/>
   </g>
   <g id="patch_33">
    <path clip-path="url(#p241f09a6cb)" d="M 536.620375 630 
L 541.718593 630 
L 541.718593 395.994326 
L 536.620375 395.994326 
z
" style="fill:#1f77b4;"/>
   </g>
   <g id="patch_34">
    <path clip-path="url(#p241f09a6cb)" d="M 546.816811 630 
L 551.91503 630 
L 551.91503 399.011991 
L 546.816811 399.011991 
z
" style="fill:#1f77b4;"/>
   </g>
   <g id="patch_35">
    <path clip-path="url(#p241f09a6cb)" d="M 557.013248 630 
L 562.111466 630 
L 562.111466 321.759299 
L 557.013248 321.759299 
z
" style="fill:#1f77b4;"/>
   </g>
   <g id="patch_36">
    <path clip-path="url(#p241f09a6cb)" d="M 567.209685 630 
L 572.307903 630 
L 572.307903 406.761884 
L 567.209685 406.761884 
z
" style="fill:#1f77b4;"/>
   </g>
   <g id="patch_37">
    <path clip-path="url(#p241f09a6cb)" d="M 577.406122 630 
L 582.50434 630 
L 582.50434 383.633714 
L 577.406122 383.633714 
z
" style="fill:#1f77b4;"/>
   </g>
   <g id="patch_38">
    <path clip-path="url(#p241f09a6cb)" d="M 587.602558 630 
L 592.700777 630 
L 592.700777 402.393816 
L 587.602558 402.393816 
z
" style="fill:#1f77b4;"/>
   </g>
   <g id="patch_39">
    <path clip-path="url(#p241f09a6cb)" d="M 597.798995 630 
L 602.897213 630 
L 602.897213 394.438008 
L 597.798995 394.438008 
z
" style="fill:#1f77b4;"/>
   </g>
   <g id="patch_40">
    <path clip-path="url(#p241f09a6cb)" d="M 607.995432 630 
L 613.09365 630 
L 613.09365 354.231172 
L 607.995432 354.231172 
z
" style="fill:#1f77b4;"/>
   </g>
   <g id="patch_41">
    <path clip-path="url(#p241f09a6cb)" d="M 618.191868 630 
L 623.290087 630 
L 623.290087 402.004307 
L 618.191868 402.004307 
z
" style="fill:#1f77b4;"/>
   </g>
   <g id="patch_42">
    <path clip-path="url(#p241f09a6cb)" d="M 628.388305 630 
L 633.486524 630 
L 633.486524 387.438669 
L 628.388305 387.438669 
z
" style="fill:#1f77b4;"/>
   </g>
   <g id="patch_43">
    <path clip-path="url(#p241f09a6cb)" d="M 638.584742 630 
L 643.68296 630 
L 643.68296 381.77252 
L 638.584742 381.77252 
z
" style="fill:#1f77b4;"/>
   </g>
   <g id="patch_44">
    <path clip-path="url(#p241f09a6cb)" d="M 648.781179 630 
L 653.879397 630 
L 653.879397 391.920259 
L 648.781179 391.920259 
z
" style="fill:#1f77b4;"/>
   </g>
   <g id="patch_45">
    <path clip-path="url(#p241f09a6cb)" d="M 658.977615 630 
L 664.075834 630 
L 664.075834 336.353596 
L 658.977615 336.353596 
z
" style="fill:#1f77b4;"/>
   </g>
   <g id="patch_46">
    <path clip-path="url(#p241f09a6cb)" d="M 669.174052 630 
L 674.27227 630 
L 674.27227 403.537585 
L 669.174052 403.537585 
z
" style="fill:#1f77b4;"/>
   </g>
   <g id="patch_47">
    <path clip-path="url(#p241f09a6cb)" d="M 679.370489 630 
L 684.468707 630 
L 684.468707 394.100101 
L 679.370489 394.100101 
z
" style="fill:#1f77b4;"/>
   </g>
   <g id="patch_48">
    <path clip-path="url(#p241f09a6cb)" d="M 689.566926 630 
L 694.665144 630 
L 694.665144 404.16582 
L 689.566926 404.16582 
z
" style="fill:#1f77b4;"/>
   </g>
   <g id="patch_49">
    <path clip-path="url(#p241f09a6cb)" d="M 699.763362 630 
L 704.861581 630 
L 704.861581 389.790258 
L 699.763362 389.790258 
z
" style="fill:#1f77b4;"/>
   </g>
   <g id="patch_50">
    <path clip-path="url(#p241f09a6cb)" d="M 709.959799 630 
L 715.058017 630 
L 715.058017 384.153423 
L 709.959799 384.153423 
z
" style="fill:#1f77b4;"/>
   </g>
   <g id="patch_51">
    <path clip-path="url(#p241f09a6cb)" d="M 720.156236 630 
L 725.254454 630 
L 725.254454 399.019259 
L 720.156236 399.019259 
z
" style="fill:#1f77b4;"/>
   </g>
   <g id="patch_52">
    <path clip-path="url(#p241f09a6cb)" d="M 730.352672 630 
L 735.450891 630 
L 735.450891 374.565857 
L 730.352672 374.565857 
z
" style="fill:#1f77b4;"/>
   </g>
   <g id="patch_53">
    <path clip-path="url(#p241f09a6cb)" d="M 740.549109 630 
L 745.647328 630 
L 745.647328 392.570267 
L 740.549109 392.570267 
z
" style="fill:#1f77b4;"/>
   </g>
   <g id="patch_54">
    <path clip-path="url(#p241f09a6cb)" d="M 750.745546 630 
L 755.843764 630 
L 755.843764 396.362182 
L 750.745546 396.362182 
z
" style="fill:#1f77b4;"/>
   </g>
   <g id="patch_55">
    <path clip-path="url(#p241f09a6cb)" d="M 760.941983 630 
L 766.040201 630 
L 766.040201 395.204794 
L 760.941983 395.204794 
z
" style="fill:#1f77b4;"/>
   </g>
   <g id="patch_56">
    <path clip-path="url(#p241f09a6cb)" d="M 771.138419 630 
L 776.236638 630 
L 776.236638 403.25058 
L 771.138419 403.25058 
z
" style="fill:#1f77b4;"/>
   </g>
   <g id="patch_57">
    <path clip-path="url(#p241f09a6cb)" d="M 781.334856 630 
L 786.433074 630 
L 786.433074 394.749934 
L 781.334856 394.749934 
z
" style="fill:#1f77b4;"/>
   </g>
   <g id="patch_58">
    <path clip-path="url(#p241f09a6cb)" d="M 791.531293 630 
L 796.629511 630 
L 796.629511 403.608314 
L 791.531293 403.608314 
z
" style="fill:#1f77b4;"/>
   </g>
   <g id="patch_59">
    <path clip-path="url(#p241f09a6cb)" d="M 801.72773 630 
L 806.825948 630 
L 806.825948 322.763642 
L 801.72773 322.763642 
z
" style="fill:#1f77b4;"/>
   </g>
   <g id="patch_60">
    <path clip-path="url(#p241f09a6cb)" d="M 811.924166 630 
L 817.022385 630 
L 817.022385 399.484317 
L 811.924166 399.484317 
z
" style="fill:#1f77b4;"/>
   </g>
   <g id="patch_61">
    <path clip-path="url(#p241f09a6cb)" d="M 822.120603 630 
L 827.218821 630 
L 827.218821 391.061855 
L 822.120603 391.061855 
z
" style="fill:#1f77b4;"/>
   </g>
   <g id="patch_62">
    <path clip-path="url(#p241f09a6cb)" d="M 832.31704 630 
L 837.415258 630 
L 837.415258 395.628362 
L 832.31704 395.628362 
z
" style="fill:#1f77b4;"/>
   </g>
   <g id="patch_63">
    <path clip-path="url(#p241f09a6cb)" d="M 842.513476 630 
L 847.611695 630 
L 847.611695 347.235877 
L 842.513476 347.235877 
z
" style="fill:#1f77b4;"/>
   </g>
   <g id="patch_64">
    <path clip-path="url(#p241f09a6cb)" d="M 852.709913 630 
L 857.808132 630 
L 857.808132 354.480523 
L 852.709913 354.480523 
z
" style="fill:#1f77b4;"/>
   </g>
   <g id="patch_65">
    <path clip-path="url(#p241f09a6cb)" d="M 862.90635 630 
L 868.004568 630 
L 868.004568 403.822754 
L 862.90635 403.822754 
z
" style="fill:#1f77b4;"/>
   </g>
   <g id="patch_66">
    <path clip-path="url(#p241f09a6cb)" d="M 873.102787 630 
L 878.201005 630 
L 878.201005 371.555658 
L 873.102787 371.555658 
z
" style="fill:#1f77b4;"/>
   </g>
   <g id="patch_67">
    <path clip-path="url(#p241f09a6cb)" d="M 883.299223 630 
L 888.397442 630 
L 888.397442 358.268012 
L 883.299223 358.268012 
z
" style="fill:#1f77b4;"/>
   </g>
   <g id="patch_68">
    <path clip-path="url(#p241f09a6cb)" d="M 893.49566 630 
L 898.593878 630 
L 898.593878 387.589222 
L 893.49566 387.589222 
z
" style="fill:#1f77b4;"/>
   </g>
   <g id="patch_69">
    <path clip-path="url(#p241f09a6cb)" d="M 903.692097 630 
L 908.790315 630 
L 908.790315 353.10464 
L 903.692097 353.10464 
z
" style="fill:#1f77b4;"/>
   </g>
   <g id="patch_70">
    <path clip-path="url(#p241f09a6cb)" d="M 913.888534 630 
L 918.986752 630 
L 918.986752 358.186439 
L 913.888534 358.186439 
z
" style="fill:#1f77b4;"/>
   </g>
   <g id="patch_71">
    <path clip-path="url(#p241f09a6cb)" d="M 924.08497 630 
L 929.183189 630 
L 929.183189 397.033974 
L 924.08497 397.033974 
z
" style="fill:#1f77b4;"/>
   </g>
   <g id="patch_72">
    <path clip-path="url(#p241f09a6cb)" d="M 934.281407 630 
L 939.379625 630 
L 939.379625 392.485754 
L 934.281407 392.485754 
z
" style="fill:#1f77b4;"/>
   </g>
   <g id="patch_73">
    <path clip-path="url(#p241f09a6cb)" d="M 944.477844 630 
L 949.576062 630 
L 949.576062 397.405514 
L 944.477844 397.405514 
z
" style="fill:#1f77b4;"/>
   </g>
   <g id="patch_74">
    <path clip-path="url(#p241f09a6cb)" d="M 954.67428 630 
L 959.772499 630 
L 959.772499 378.390016 
L 954.67428 378.390016 
z
" style="fill:#1f77b4;"/>
   </g>
   <g id="patch_75">
    <path clip-path="url(#p241f09a6cb)" d="M 964.870717 630 
L 969.968936 630 
L 969.968936 403.652428 
L 964.870717 403.652428 
z
" style="fill:#1f77b4;"/>
   </g>
   <g id="patch_76">
    <path clip-path="url(#p241f09a6cb)" d="M 975.067154 630 
L 980.165372 630 
L 980.165372 401.573384 
L 975.067154 401.573384 
z
" style="fill:#1f77b4;"/>
   </g>
   <g id="patch_77">
    <path clip-path="url(#p241f09a6cb)" d="M 985.263591 630 
L 990.361809 630 
L 990.361809 359.758749 
L 985.263591 359.758749 
z
" style="fill:#1f77b4;"/>
   </g>
   <g id="patch_78">
    <path clip-path="url(#p241f09a6cb)" d="M 995.460027 630 
L 1000.558246 630 
L 1000.558246 390.787507 
L 995.460027 390.787507 
z
" style="fill:#1f77b4;"/>
   </g>
   <g id="patch_79">
    <path clip-path="url(#p241f09a6cb)" d="M 1005.656464 630 
L 1010.754683 630 
L 1010.754683 358.182701 
L 1005.656464 358.182701 
z
" style="fill:#1f77b4;"/>
   </g>
   <g id="patch_80">
    <path clip-path="url(#p241f09a6cb)" d="M 1015.852901 630 
L 1020.951119 630 
L 1020.951119 343.540858 
L 1015.852901 343.540858 
z
" style="fill:#1f77b4;"/>
   </g>
   <g id="patch_81">
    <path clip-path="url(#p241f09a6cb)" d="M 1026.049338 630 
L 1031.147556 630 
L 1031.147556 400.589437 
L 1026.049338 400.589437 
z
" style="fill:#1f77b4;"/>
   </g>
   <g id="patch_82">
    <path clip-path="url(#p241f09a6cb)" d="M 1036.245774 630 
L 1041.343993 630 
L 1041.343993 392.365468 
L 1036.245774 392.365468 
z
" style="fill:#1f77b4;"/>
   </g>
   <g id="patch_83">
    <path clip-path="url(#p241f09a6cb)" d="M 1046.442211 630 
L 1051.540429 630 
L 1051.540429 356.223485 
L 1046.442211 356.223485 
z
" style="fill:#1f77b4;"/>
   </g>
   <g id="patch_84">
    <path clip-path="url(#p241f09a6cb)" d="M 1056.638648 630 
L 1061.736866 630 
L 1061.736866 371.577977 
L 1056.638648 371.577977 
z
" style="fill:#1f77b4;"/>
   </g>
   <g id="patch_85">
    <path clip-path="url(#p241f09a6cb)" d="M 1066.835085 630 
L 1071.933303 630 
L 1071.933303 394.448304 
L 1066.835085 394.448304 
z
" style="fill:#1f77b4;"/>
   </g>
   <g id="patch_86">
    <path clip-path="url(#p241f09a6cb)" d="M 1077.031521 630 
L 1082.12974 630 
L 1082.12974 401.678751 
L 1077.031521 401.678751 
z
" style="fill:#1f77b4;"/>
   </g>
   <g id="patch_87">
    <path clip-path="url(#p241f09a6cb)" d="M 1087.227958 630 
L 1092.326176 630 
L 1092.326176 383.000079 
L 1087.227958 383.000079 
z
" style="fill:#1f77b4;"/>
   </g>
   <g id="patch_88">
    <path clip-path="url(#p241f09a6cb)" d="M 1097.424395 630 
L 1102.522613 630 
L 1102.522613 379.915807 
L 1097.424395 379.915807 
z
" style="fill:#1f77b4;"/>
   </g>
   <g id="patch_89">
    <path clip-path="url(#p241f09a6cb)" d="M 1107.620831 630 
L 1112.71905 630 
L 1112.71905 401.76204 
L 1107.620831 401.76204 
z
" style="fill:#1f77b4;"/>
   </g>
   <g id="patch_90">
    <path clip-path="url(#p241f09a6cb)" d="M 1117.817268 630 
L 1122.915487 630 
L 1122.915487 375.594509 
L 1117.817268 375.594509 
z
" style="fill:#1f77b4;"/>
   </g>
   <g id="patch_91">
    <path clip-path="url(#p241f09a6cb)" d="M 1128.013705 630 
L 1133.111923 630 
L 1133.111923 393.564838 
L 1128.013705 393.564838 
z
" style="fill:#1f77b4;"/>
   </g>
   <g id="patch_92">
    <path clip-path="url(#p241f09a6cb)" d="M 1138.210142 630 
L 1143.30836 630 
L 1143.30836 390.403103 
L 1138.210142 390.403103 
z
" style="fill:#1f77b4;"/>
   </g>
   <g id="patch_93">
    <path clip-path="url(#p241f09a6cb)" d="M 1148.406578 630 
L 1153.504797 630 
L 1153.504797 334.953951 
L 1148.406578 334.953951 
z
" style="fill:#1f77b4;"/>
   </g>
   <g id="patch_94">
    <path clip-path="url(#p241f09a6cb)" d="M 1158.603015 630 
L 1163.701233 630 
L 1163.701233 403.937871 
L 1158.603015 403.937871 
z
" style="fill:#1f77b4;"/>
   </g>
   <g id="patch_95">
    <path clip-path="url(#p241f09a6cb)" d="M 1168.799452 630 
L 1173.89767 630 
L 1173.89767 391.561857 
L 1168.799452 391.561857 
z
" style="fill:#1f77b4;"/>
   </g>
   <g id="patch_96">
    <path clip-path="url(#p241f09a6cb)" d="M 1178.995889 630 
L 1184.094107 630 
L 1184.094107 380.980288 
L 1178.995889 380.980288 
z
" style="fill:#1f77b4;"/>
   </g>
   <g id="patch_97">
    <path clip-path="url(#p241f09a6cb)" d="M 1189.192325 630 
L 1194.290544 630 
L 1194.290544 388.001553 
L 1189.192325 388.001553 
z
" style="fill:#1f77b4;"/>
   </g>
   <g id="patch_98">
    <path clip-path="url(#p241f09a6cb)" d="M 1199.388762 630 
L 1204.48698 630 
L 1204.48698 395.995889 
L 1199.388762 395.995889 
z
" style="fill:#1f77b4;"/>
   </g>
   <g id="patch_99">
    <path clip-path="url(#p241f09a6cb)" d="M 1209.585199 630 
L 1214.683417 630 
L 1214.683417 391.884222 
L 1209.585199 391.884222 
z
" style="fill:#1f77b4;"/>
   </g>
   <g id="patch_100">
    <path clip-path="url(#p241f09a6cb)" d="M 1219.781635 630 
L 1224.879854 630 
L 1224.879854 385.342006 
L 1219.781635 385.342006 
z
" style="fill:#1f77b4;"/>
   </g>
   <g id="patch_101">
    <path clip-path="url(#p241f09a6cb)" d="M 1229.978072 630 
L 1235.076291 630 
L 1235.076291 384.688467 
L 1229.978072 384.688467 
z
" style="fill:#1f77b4;"/>
   </g>
   <g id="patch_102">
    <path clip-path="url(#p241f09a6cb)" d="M 1240.174509 630 
L 1245.272727 630 
L 1245.272727 401.349151 
L 1240.174509 401.349151 
z
" style="fill:#1f77b4;"/>
   </g>
   <g id="patch_103">
    <path clip-path="url(#p241f09a6cb)" d="M 230.727273 161.035376 
L 235.825491 161.035376 
L 235.825491 112.285714 
L 230.727273 112.285714 
z
" style="fill:#ff7f0e;"/>
   </g>
   <g id="patch_104">
    <path clip-path="url(#p241f09a6cb)" d="M 240.923709 395.282672 
L 246.021928 395.282672 
L 246.021928 349.082819 
L 240.923709 349.082819 
z
" style="fill:#ff7f0e;"/>
   </g>
   <g id="patch_105">
    <path clip-path="url(#p241f09a6cb)" d="M 251.120146 371.990319 
L 256.218365 371.990319 
L 256.218365 287.139106 
L 251.120146 287.139106 
z
" style="fill:#ff7f0e;"/>
   </g>
   <g id="patch_106">
    <path clip-path="url(#p241f09a6cb)" d="M 261.316583 370.44034 
L 266.414801 370.44034 
L 266.414801 154.265473 
L 261.316583 154.265473 
z
" style="fill:#ff7f0e;"/>
   </g>
   <g id="patch_107">
    <path clip-path="url(#p241f09a6cb)" d="M 271.51302 400.194321 
L 276.611238 400.194321 
L 276.611238 343.562849 
L 271.51302 343.562849 
z
" style="fill:#ff7f0e;"/>
   </g>
   <g id="patch_108">
    <path clip-path="url(#p241f09a6cb)" d="M 281.709456 361.680759 
L 286.807675 361.680759 
L 286.807675 151.163132 
L 281.709456 151.163132 
z
" style="fill:#ff7f0e;"/>
   </g>
   <g id="patch_109">
    <path clip-path="url(#p241f09a6cb)" d="M 291.905893 380.04627 
L 297.004111 380.04627 
L 297.004111 315.528823 
L 291.905893 315.528823 
z
" style="fill:#ff7f0e;"/>
   </g>
   <g id="patch_110">
    <path clip-path="url(#p241f09a6cb)" d="M 302.10233 373.960346 
L 307.200548 373.960346 
L 307.200548 171.654163 
L 302.10233 171.654163 
z
" style="fill:#ff7f0e;"/>
   </g>
   <g id="patch_111">
    <path clip-path="url(#p241f09a6cb)" d="M 312.298767 360.633919 
L 317.396985 360.633919 
L 317.396985 293.441098 
L 312.298767 293.441098 
z
" style="fill:#ff7f0e;"/>
   </g>
   <g id="patch_112">
    <path clip-path="url(#p241f09a6cb)" d="M 322.495203 354.89563 
L 327.593422 354.89563 
L 327.593422 128.806219 
L 322.495203 128.806219 
z
" style="fill:#ff7f0e;"/>
   </g>
   <g id="patch_113">
    <path clip-path="url(#p241f09a6cb)" d="M 332.69164 352.471978 
L 337.789858 352.471978 
L 337.789858 267.904612 
L 332.69164 267.904612 
z
" style="fill:#ff7f0e;"/>
   </g>
   <g id="patch_114">
    <path clip-path="url(#p241f09a6cb)" d="M 342.888077 389.863545 
L 347.986295 389.863545 
L 347.986295 343.16569 
L 342.888077 343.16569 
z
" style="fill:#ff7f0e;"/>
   </g>
   <g id="patch_115">
    <path clip-path="url(#p241f09a6cb)" d="M 353.084513 342.060647 
L 358.182732 342.060647 
L 358.182732 145.453732 
L 353.084513 145.453732 
z
" style="fill:#ff7f0e;"/>
   </g>
   <g id="patch_116">
    <path clip-path="url(#p241f09a6cb)" d="M 363.28095 398.865111 
L 368.379169 398.865111 
L 368.379169 339.985865 
L 363.28095 339.985865 
z
" style="fill:#ff7f0e;"/>
   </g>
   <g id="patch_117">
    <path clip-path="url(#p241f09a6cb)" d="M 373.477387 404.261197 
L 378.575605 404.261197 
L 378.575605 310.166566 
L 373.477387 310.166566 
z
" style="fill:#ff7f0e;"/>
   </g>
   <g id="patch_118">
    <path clip-path="url(#p241f09a6cb)" d="M 383.673824 391.028081 
L 388.772042 391.028081 
L 388.772042 310.626334 
L 383.673824 310.626334 
z
" style="fill:#ff7f0e;"/>
   </g>
   <g id="patch_119">
    <path clip-path="url(#p241f09a6cb)" d="M 393.87026 402.039809 
L 398.968479 402.039809 
L 398.968479 349.910267 
L 393.87026 349.910267 
z
" style="fill:#ff7f0e;"/>
   </g>
   <g id="patch_120">
    <path clip-path="url(#p241f09a6cb)" d="M 404.066697 393.716517 
L 409.164915 393.716517 
L 409.164915 296.229589 
L 404.066697 296.229589 
z
" style="fill:#ff7f0e;"/>
   </g>
   <g id="patch_121">
    <path clip-path="url(#p241f09a6cb)" d="M 414.263134 393.480075 
L 419.361352 393.480075 
L 419.361352 334.246647 
L 414.263134 334.246647 
z
" style="fill:#ff7f0e;"/>
   </g>
   <g id="patch_122">
    <path clip-path="url(#p241f09a6cb)" d="M 424.459571 400.818774 
L 429.557789 400.818774 
L 429.557789 349.719776 
L 424.459571 349.719776 
z
" style="fill:#ff7f0e;"/>
   </g>
   <g id="patch_123">
    <path clip-path="url(#p241f09a6cb)" d="M 434.656007 328.472332 
L 439.754226 328.472332 
L 439.754226 124.103347 
L 434.656007 124.103347 
z
" style="fill:#ff7f0e;"/>
   </g>
   <g id="patch_124">
    <path clip-path="url(#p241f09a6cb)" d="M 444.852444 382.071592 
L 449.950662 382.071592 
L 449.950662 310.428224 
L 444.852444 310.428224 
z
" style="fill:#ff7f0e;"/>
   </g>
   <g id="patch_125">
    <path clip-path="url(#p241f09a6cb)" d="M 455.048881 392.155695 
L 460.147099 392.155695 
L 460.147099 296.142748 
L 455.048881 296.142748 
z
" style="fill:#ff7f0e;"/>
   </g>
   <g id="patch_126">
    <path clip-path="url(#p241f09a6cb)" d="M 465.245317 384.88779 
L 470.343536 384.88779 
L 470.343536 336.152415 
L 465.245317 336.152415 
z
" style="fill:#ff7f0e;"/>
   </g>
   <g id="patch_127">
    <path clip-path="url(#p241f09a6cb)" d="M 475.441754 402.970854 
L 480.539973 402.970854 
L 480.539973 313.212889 
L 475.441754 313.212889 
z
" style="fill:#ff7f0e;"/>
   </g>
   <g id="patch_128">
    <path clip-path="url(#p241f09a6cb)" d="M 485.638191 398.564246 
L 490.736409 398.564246 
L 490.736409 312.176006 
L 485.638191 312.176006 
z
" style="fill:#ff7f0e;"/>
   </g>
   <g id="patch_129">
    <path clip-path="url(#p241f09a6cb)" d="M 495.834628 395.79555 
L 500.932846 395.79555 
L 500.932846 339.503723 
L 495.834628 339.503723 
z
" style="fill:#ff7f0e;"/>
   </g>
   <g id="patch_130">
    <path clip-path="url(#p241f09a6cb)" d="M 506.031064 385.832881 
L 511.129283 385.832881 
L 511.129283 331.489679 
L 506.031064 331.489679 
z
" style="fill:#ff7f0e;"/>
   </g>
   <g id="patch_131">
    <path clip-path="url(#p241f09a6cb)" d="M 516.227501 387.732233 
L 521.32572 387.732233 
L 521.32572 324.37518 
L 516.227501 324.37518 
z
" style="fill:#ff7f0e;"/>
   </g>
   <g id="patch_132">
    <path clip-path="url(#p241f09a6cb)" d="M 526.423938 375.963086 
L 531.522156 375.963086 
L 531.522156 200.434743 
L 526.423938 200.434743 
z
" style="fill:#ff7f0e;"/>
   </g>
   <g id="patch_133">
    <path clip-path="url(#p241f09a6cb)" d="M 536.620375 395.994326 
L 541.718593 395.994326 
L 541.718593 347.779698 
L 536.620375 347.779698 
z
" style="fill:#ff7f0e;"/>
   </g>
   <g id="patch_134">
    <path clip-path="url(#p241f09a6cb)" d="M 546.816811 399.011991 
L 551.91503 399.011991 
L 551.91503 344.782692 
L 546.816811 344.782692 
z
" style="fill:#ff7f0e;"/>
   </g>
   <g id="patch_135">
    <path clip-path="url(#p241f09a6cb)" d="M 557.013248 321.759299 
L 562.111466 321.759299 
L 562.111466 124.692212 
L 557.013248 124.692212 
z
" style="fill:#ff7f0e;"/>
   </g>
   <g id="patch_136">
    <path clip-path="url(#p241f09a6cb)" d="M 567.209685 406.761884 
L 572.307903 406.761884 
L 572.307903 344.115109 
L 567.209685 344.115109 
z
" style="fill:#ff7f0e;"/>
   </g>
   <g id="patch_137">
    <path clip-path="url(#p241f09a6cb)" d="M 577.406122 383.633714 
L 582.50434 383.633714 
L 582.50434 305.209436 
L 577.406122 305.209436 
z
" style="fill:#ff7f0e;"/>
   </g>
   <g id="patch_138">
    <path clip-path="url(#p241f09a6cb)" d="M 587.602558 402.393816 
L 592.700777 402.393816 
L 592.700777 353.341869 
L 587.602558 353.341869 
z
" style="fill:#ff7f0e;"/>
   </g>
   <g id="patch_139">
    <path clip-path="url(#p241f09a6cb)" d="M 597.798995 394.438008 
L 602.897213 394.438008 
L 602.897213 299.656851 
L 597.798995 299.656851 
z
" style="fill:#ff7f0e;"/>
   </g>
   <g id="patch_140">
    <path clip-path="url(#p241f09a6cb)" d="M 607.995432 354.231172 
L 613.09365 354.231172 
L 613.09365 277.557136 
L 607.995432 277.557136 
z
" style="fill:#ff7f0e;"/>
   </g>
   <g id="patch_141">
    <path clip-path="url(#p241f09a6cb)" d="M 618.191868 402.004307 
L 623.290087 402.004307 
L 623.290087 337.856444 
L 618.191868 337.856444 
z
" style="fill:#ff7f0e;"/>
   </g>
   <g id="patch_142">
    <path clip-path="url(#p241f09a6cb)" d="M 628.388305 387.438669 
L 633.486524 387.438669 
L 633.486524 294.086253 
L 628.388305 294.086253 
z
" style="fill:#ff7f0e;"/>
   </g>
   <g id="patch_143">
    <path clip-path="url(#p241f09a6cb)" d="M 638.584742 381.77252 
L 643.68296 381.77252 
L 643.68296 314.926503 
L 638.584742 314.926503 
z
" style="fill:#ff7f0e;"/>
   </g>
   <g id="patch_144">
    <path clip-path="url(#p241f09a6cb)" d="M 648.781179 391.920259 
L 653.879397 391.920259 
L 653.879397 303.876772 
L 648.781179 303.876772 
z
" style="fill:#ff7f0e;"/>
   </g>
   <g id="patch_145">
    <path clip-path="url(#p241f09a6cb)" d="M 658.977615 336.353596 
L 664.075834 336.353596 
L 664.075834 128.870084 
L 658.977615 128.870084 
z
" style="fill:#ff7f0e;"/>
   </g>
   <g id="patch_146">
    <path clip-path="url(#p241f09a6cb)" d="M 669.174052 403.537585 
L 674.27227 403.537585 
L 674.27227 354.564521 
L 669.174052 354.564521 
z
" style="fill:#ff7f0e;"/>
   </g>
   <g id="patch_147">
    <path clip-path="url(#p241f09a6cb)" d="M 679.370489 394.100101 
L 684.468707 394.100101 
L 684.468707 302.299905 
L 679.370489 302.299905 
z
" style="fill:#ff7f0e;"/>
   </g>
   <g id="patch_148">
    <path clip-path="url(#p241f09a6cb)" d="M 689.566926 404.16582 
L 694.665144 404.16582 
L 694.665144 315.845952 
L 689.566926 315.845952 
z
" style="fill:#ff7f0e;"/>
   </g>
   <g id="patch_149">
    <path clip-path="url(#p241f09a6cb)" d="M 699.763362 389.790258 
L 704.861581 389.790258 
L 704.861581 319.22628 
L 699.763362 319.22628 
z
" style="fill:#ff7f0e;"/>
   </g>
   <g id="patch_150">
    <path clip-path="url(#p241f09a6cb)" d="M 709.959799 384.153423 
L 715.058017 384.153423 
L 715.058017 339.435661 
L 709.959799 339.435661 
z
" style="fill:#ff7f0e;"/>
   </g>
   <g id="patch_151">
    <path clip-path="url(#p241f09a6cb)" d="M 720.156236 399.019259 
L 725.254454 399.019259 
L 725.254454 345.00122 
L 720.156236 345.00122 
z
" style="fill:#ff7f0e;"/>
   </g>
   <g id="patch_152">
    <path clip-path="url(#p241f09a6cb)" d="M 730.352672 374.565857 
L 735.450891 374.565857 
L 735.450891 177.649344 
L 730.352672 177.649344 
z
" style="fill:#ff7f0e;"/>
   </g>
   <g id="patch_153">
    <path clip-path="url(#p241f09a6cb)" d="M 740.549109 392.570267 
L 745.647328 392.570267 
L 745.647328 301.12822 
L 740.549109 301.12822 
z
" style="fill:#ff7f0e;"/>
   </g>
   <g id="patch_154">
    <path clip-path="url(#p241f09a6cb)" d="M 750.745546 396.362182 
L 755.843764 396.362182 
L 755.843764 341.451856 
L 750.745546 341.451856 
z
" style="fill:#ff7f0e;"/>
   </g>
   <g id="patch_155">
    <path clip-path="url(#p241f09a6cb)" d="M 760.941983 395.204794 
L 766.040201 395.204794 
L 766.040201 343.070269 
L 760.941983 343.070269 
z
" style="fill:#ff7f0e;"/>
   </g>
   <g id="patch_156">
    <path clip-path="url(#p241f09a6cb)" d="M 771.138419 403.25058 
L 776.236638 403.25058 
L 776.236638 356.485274 
L 771.138419 356.485274 
z
" style="fill:#ff7f0e;"/>
   </g>
   <g id="patch_157">
    <path clip-path="url(#p241f09a6cb)" d="M 781.334856 394.749934 
L 786.433074 394.749934 
L 786.433074 340.004917 
L 781.334856 340.004917 
z
" style="fill:#ff7f0e;"/>
   </g>
   <g id="patch_158">
    <path clip-path="url(#p241f09a6cb)" d="M 791.531293 403.608314 
L 796.629511 403.608314 
L 796.629511 346.656642 
L 791.531293 346.656642 
z
" style="fill:#ff7f0e;"/>
   </g>
   <g id="patch_159">
    <path clip-path="url(#p241f09a6cb)" d="M 801.72773 322.763642 
L 806.825948 322.763642 
L 806.825948 115.481005 
L 801.72773 115.481005 
z
" style="fill:#ff7f0e;"/>
   </g>
   <g id="patch_160">
    <path clip-path="url(#p241f09a6cb)" d="M 811.924166 399.484317 
L 817.022385 399.484317 
L 817.022385 352.723712 
L 811.924166 352.723712 
z
" style="fill:#ff7f0e;"/>
   </g>
   <g id="patch_161">
    <path clip-path="url(#p241f09a6cb)" d="M 822.120603 391.061855 
L 827.218821 391.061855 
L 827.218821 323.06595 
L 822.120603 323.06595 
z
" style="fill:#ff7f0e;"/>
   </g>
   <g id="patch_162">
    <path clip-path="url(#p241f09a6cb)" d="M 832.31704 395.628362 
L 837.415258 395.628362 
L 837.415258 346.859212 
L 832.31704 346.859212 
z
" style="fill:#ff7f0e;"/>
   </g>
   <g id="patch_163">
    <path clip-path="url(#p241f09a6cb)" d="M 842.513476 347.235877 
L 847.611695 347.235877 
L 847.611695 150.17431 
L 842.513476 150.17431 
z
" style="fill:#ff7f0e;"/>
   </g>
   <g id="patch_164">
    <path clip-path="url(#p241f09a6cb)" d="M 852.709913 354.480523 
L 857.808132 354.480523 
L 857.808132 163.573477 
L 852.709913 163.573477 
z
" style="fill:#ff7f0e;"/>
   </g>
   <g id="patch_165">
    <path clip-path="url(#p241f09a6cb)" d="M 862.90635 403.822754 
L 868.004568 403.822754 
L 868.004568 343.9196 
L 862.90635 343.9196 
z
" style="fill:#ff7f0e;"/>
   </g>
   <g id="patch_166">
    <path clip-path="url(#p241f09a6cb)" d="M 873.102787 371.555658 
L 878.201005 371.555658 
L 878.201005 299.572251 
L 873.102787 299.572251 
z
" style="fill:#ff7f0e;"/>
   </g>
   <g id="patch_167">
    <path clip-path="url(#p241f09a6cb)" d="M 883.299223 358.268012 
L 888.397442 358.268012 
L 888.397442 145.875441 
L 883.299223 145.875441 
z
" style="fill:#ff7f0e;"/>
   </g>
   <g id="patch_168">
    <path clip-path="url(#p241f09a6cb)" d="M 893.49566 387.589222 
L 898.593878 387.589222 
L 898.593878 337.658432 
L 893.49566 337.658432 
z
" style="fill:#ff7f0e;"/>
   </g>
   <g id="patch_169">
    <path clip-path="url(#p241f09a6cb)" d="M 903.692097 353.10464 
L 908.790315 353.10464 
L 908.790315 154.377562 
L 903.692097 154.377562 
z
" style="fill:#ff7f0e;"/>
   </g>
   <g id="patch_170">
    <path clip-path="url(#p241f09a6cb)" d="M 913.888534 358.186439 
L 918.986752 358.186439 
L 918.986752 148.556138 
L 913.888534 148.556138 
z
" style="fill:#ff7f0e;"/>
   </g>
   <g id="patch_171">
    <path clip-path="url(#p241f09a6cb)" d="M 924.08497 397.033974 
L 929.183189 397.033974 
L 929.183189 334.430821 
L 924.08497 334.430821 
z
" style="fill:#ff7f0e;"/>
   </g>
   <g id="patch_172">
    <path clip-path="url(#p241f09a6cb)" d="M 934.281407 392.485754 
L 939.379625 392.485754 
L 939.379625 311.193228 
L 934.281407 311.193228 
z
" style="fill:#ff7f0e;"/>
   </g>
   <g id="patch_173">
    <path clip-path="url(#p241f09a6cb)" d="M 944.477844 397.405514 
L 949.576062 397.405514 
L 949.576062 304.776087 
L 944.477844 304.776087 
z
" style="fill:#ff7f0e;"/>
   </g>
   <g id="patch_174">
    <path clip-path="url(#p241f09a6cb)" d="M 954.67428 378.390016 
L 959.772499 378.390016 
L 959.772499 312.054998 
L 954.67428 312.054998 
z
" style="fill:#ff7f0e;"/>
   </g>
   <g id="patch_175">
    <path clip-path="url(#p241f09a6cb)" d="M 964.870717 403.652428 
L 969.968936 403.652428 
L 969.968936 356.144536 
L 964.870717 356.144536 
z
" style="fill:#ff7f0e;"/>
   </g>
   <g id="patch_176">
    <path clip-path="url(#p241f09a6cb)" d="M 975.067154 401.573384 
L 980.165372 401.573384 
L 980.165372 338.903262 
L 975.067154 338.903262 
z
" style="fill:#ff7f0e;"/>
   </g>
   <g id="patch_177">
    <path clip-path="url(#p241f09a6cb)" d="M 985.263591 359.758749 
L 990.361809 359.758749 
L 990.361809 168.152422 
L 985.263591 168.152422 
z
" style="fill:#ff7f0e;"/>
   </g>
   <g id="patch_178">
    <path clip-path="url(#p241f09a6cb)" d="M 995.460027 390.787507 
L 1000.558246 390.787507 
L 1000.558246 331.097952 
L 995.460027 331.097952 
z
" style="fill:#ff7f0e;"/>
   </g>
   <g id="patch_179">
    <path clip-path="url(#p241f09a6cb)" d="M 1005.656464 358.182701 
L 1010.754683 358.182701 
L 1010.754683 295.815487 
L 1005.656464 295.815487 
z
" style="fill:#ff7f0e;"/>
   </g>
   <g id="patch_180">
    <path clip-path="url(#p241f09a6cb)" d="M 1015.852901 343.540858 
L 1020.951119 343.540858 
L 1020.951119 139.481689 
L 1015.852901 139.481689 
z
" style="fill:#ff7f0e;"/>
   </g>
   <g id="patch_181">
    <path clip-path="url(#p241f09a6cb)" d="M 1026.049338 400.589437 
L 1031.147556 400.589437 
L 1031.147556 341.188154 
L 1026.049338 341.188154 
z
" style="fill:#ff7f0e;"/>
   </g>
   <g id="patch_182">
    <path clip-path="url(#p241f09a6cb)" d="M 1036.245774 392.365468 
L 1041.343993 392.365468 
L 1041.343993 340.081964 
L 1036.245774 340.081964 
z
" style="fill:#ff7f0e;"/>
   </g>
   <g id="patch_183">
    <path clip-path="url(#p241f09a6cb)" d="M 1046.442211 356.223485 
L 1051.540429 356.223485 
L 1051.540429 154.690701 
L 1046.442211 154.690701 
z
" style="fill:#ff7f0e;"/>
   </g>
   <g id="patch_184">
    <path clip-path="url(#p241f09a6cb)" d="M 1056.638648 371.577977 
L 1061.736866 371.577977 
L 1061.736866 164.495483 
L 1056.638648 164.495483 
z
" style="fill:#ff7f0e;"/>
   </g>
   <g id="patch_185">
    <path clip-path="url(#p241f09a6cb)" d="M 1066.835085 394.448304 
L 1071.933303 394.448304 
L 1071.933303 347.185183 
L 1066.835085 347.185183 
z
" style="fill:#ff7f0e;"/>
   </g>
   <g id="patch_186">
    <path clip-path="url(#p241f09a6cb)" d="M 1077.031521 401.678751 
L 1082.12974 401.678751 
L 1082.12974 342.205964 
L 1077.031521 342.205964 
z
" style="fill:#ff7f0e;"/>
   </g>
   <g id="patch_187">
    <path clip-path="url(#p241f09a6cb)" d="M 1087.227958 383.000079 
L 1092.326176 383.000079 
L 1092.326176 333.900848 
L 1087.227958 333.900848 
z
" style="fill:#ff7f0e;"/>
   </g>
   <g id="patch_188">
    <path clip-path="url(#p241f09a6cb)" d="M 1097.424395 379.915807 
L 1102.522613 379.915807 
L 1102.522613 313.026933 
L 1097.424395 313.026933 
z
" style="fill:#ff7f0e;"/>
   </g>
   <g id="patch_189">
    <path clip-path="url(#p241f09a6cb)" d="M 1107.620831 401.76204 
L 1112.71905 401.76204 
L 1112.71905 309.528515 
L 1107.620831 309.528515 
z
" style="fill:#ff7f0e;"/>
   </g>
   <g id="patch_190">
    <path clip-path="url(#p241f09a6cb)" d="M 1117.817268 375.594509 
L 1122.915487 375.594509 
L 1122.915487 173.520374 
L 1117.817268 173.520374 
z
" style="fill:#ff7f0e;"/>
   </g>
   <g id="patch_191">
    <path clip-path="url(#p241f09a6cb)" d="M 1128.013705 393.564838 
L 1133.111923 393.564838 
L 1133.111923 332.879695 
L 1128.013705 332.879695 
z
" style="fill:#ff7f0e;"/>
   </g>
   <g id="patch_192">
    <path clip-path="url(#p241f09a6cb)" d="M 1138.210142 390.403103 
L 1143.30836 390.403103 
L 1143.30836 338.81229 
L 1138.210142 338.81229 
z
" style="fill:#ff7f0e;"/>
   </g>
   <g id="patch_193">
    <path clip-path="url(#p241f09a6cb)" d="M 1148.406578 334.953951 
L 1153.504797 334.953951 
L 1153.504797 145.929961 
L 1148.406578 145.929961 
z
" style="fill:#ff7f0e;"/>
   </g>
   <g id="patch_194">
    <path clip-path="url(#p241f09a6cb)" d="M 1158.603015 403.937871 
L 1163.701233 403.937871 
L 1163.701233 316.044171 
L 1158.603015 316.044171 
z
" style="fill:#ff7f0e;"/>
   </g>
   <g id="patch_195">
    <path clip-path="url(#p241f09a6cb)" d="M 1168.799452 391.561857 
L 1173.89767 391.561857 
L 1173.89767 297.456252 
L 1168.799452 297.456252 
z
" style="fill:#ff7f0e;"/>
   </g>
   <g id="patch_196">
    <path clip-path="url(#p241f09a6cb)" d="M 1178.995889 380.980288 
L 1184.094107 380.980288 
L 1184.094107 318.203137 
L 1178.995889 318.203137 
z
" style="fill:#ff7f0e;"/>
   </g>
   <g id="patch_197">
    <path clip-path="url(#p241f09a6cb)" d="M 1189.192325 388.001553 
L 1194.290544 388.001553 
L 1194.290544 341.14498 
L 1189.192325 341.14498 
z
" style="fill:#ff7f0e;"/>
   </g>
   <g id="patch_198">
    <path clip-path="url(#p241f09a6cb)" d="M 1199.388762 395.995889 
L 1204.48698 395.995889 
L 1204.48698 309.807148 
L 1199.388762 309.807148 
z
" style="fill:#ff7f0e;"/>
   </g>
   <g id="patch_199">
    <path clip-path="url(#p241f09a6cb)" d="M 1209.585199 391.884222 
L 1214.683417 391.884222 
L 1214.683417 341.645845 
L 1209.585199 341.645845 
z
" style="fill:#ff7f0e;"/>
   </g>
   <g id="patch_200">
    <path clip-path="url(#p241f09a6cb)" d="M 1219.781635 385.342006 
L 1224.879854 385.342006 
L 1224.879854 289.254351 
L 1219.781635 289.254351 
z
" style="fill:#ff7f0e;"/>
   </g>
   <g id="patch_201">
    <path clip-path="url(#p241f09a6cb)" d="M 1229.978072 384.688467 
L 1235.076291 384.688467 
L 1235.076291 317.90754 
L 1229.978072 317.90754 
z
" style="fill:#ff7f0e;"/>
   </g>
   <g id="patch_202">
    <path clip-path="url(#p241f09a6cb)" d="M 1240.174509 401.349151 
L 1245.272727 401.349151 
L 1245.272727 305.353059 
L 1240.174509 305.353059 
z
" style="fill:#ff7f0e;"/>
   </g>
   <g id="matplotlib.axis_1"/>
   <g id="matplotlib.axis_2">
    <g id="ytick_1">
     <g id="line2d_1">
      <defs>
       <path d="M 0 0 
L -3.5 0 
" id="m0a70afdb4c" style="stroke:#000000;stroke-width:0.8;"/>
      </defs>
      <g>
       <use style="stroke:#000000;stroke-width:0.8;" x="180" xlink:href="#m0a70afdb4c" y="630"/>
      </g>
     </g>
     <g id="text_1">
      <!-- 0 -->
      <defs>
       <path d="M 31.78125 66.40625 
Q 24.171875 66.40625 20.328125 58.90625 
Q 16.5 51.421875 16.5 36.375 
Q 16.5 21.390625 20.328125 13.890625 
Q 24.171875 6.390625 31.78125 6.390625 
Q 39.453125 6.390625 43.28125 13.890625 
Q 47.125 21.390625 47.125 36.375 
Q 47.125 51.421875 43.28125 58.90625 
Q 39.453125 66.40625 31.78125 66.40625 
z
M 31.78125 74.21875 
Q 44.046875 74.21875 50.515625 64.515625 
Q 56.984375 54.828125 56.984375 36.375 
Q 56.984375 17.96875 50.515625 8.265625 
Q 44.046875 -1.421875 31.78125 -1.421875 
Q 19.53125 -1.421875 13.0625 8.265625 
Q 6.59375 17.96875 6.59375 36.375 
Q 6.59375 54.828125 13.0625 64.515625 
Q 19.53125 74.21875 31.78125 74.21875 
z
" id="DejaVuSans-30"/>
      </defs>
      <g transform="translate(166.6375 633.799219)scale(0.1 -0.1)">
       <use xlink:href="#DejaVuSans-30"/>
      </g>
     </g>
    </g>
    <g id="ytick_2">
     <g id="line2d_2">
      <g>
       <use style="stroke:#000000;stroke-width:0.8;" x="180" xlink:href="#m0a70afdb4c" y="520.698008"/>
      </g>
     </g>
     <g id="text_2">
      <!-- 10 -->
      <defs>
       <path d="M 12.40625 8.296875 
L 28.515625 8.296875 
L 28.515625 63.921875 
L 10.984375 60.40625 
L 10.984375 69.390625 
L 28.421875 72.90625 
L 38.28125 72.90625 
L 38.28125 8.296875 
L 54.390625 8.296875 
L 54.390625 0 
L 12.40625 0 
z
" id="DejaVuSans-31"/>
      </defs>
      <g transform="translate(160.275 524.497227)scale(0.1 -0.1)">
       <use xlink:href="#DejaVuSans-31"/>
       <use x="63.623047" xlink:href="#DejaVuSans-30"/>
      </g>
     </g>
    </g>
    <g id="ytick_3">
     <g id="line2d_3">
      <g>
       <use style="stroke:#000000;stroke-width:0.8;" x="180" xlink:href="#m0a70afdb4c" y="411.396016"/>
      </g>
     </g>
     <g id="text_3">
      <!-- 20 -->
      <defs>
       <path d="M 19.1875 8.296875 
L 53.609375 8.296875 
L 53.609375 0 
L 7.328125 0 
L 7.328125 8.296875 
Q 12.9375 14.109375 22.625 23.890625 
Q 32.328125 33.6875 34.8125 36.53125 
Q 39.546875 41.84375 41.421875 45.53125 
Q 43.3125 49.21875 43.3125 52.78125 
Q 43.3125 58.59375 39.234375 62.25 
Q 35.15625 65.921875 28.609375 65.921875 
Q 23.96875 65.921875 18.8125 64.3125 
Q 13.671875 62.703125 7.8125 59.421875 
L 7.8125 69.390625 
Q 13.765625 71.78125 18.9375 73 
Q 24.125 74.21875 28.421875 74.21875 
Q 39.75 74.21875 46.484375 68.546875 
Q 53.21875 62.890625 53.21875 53.421875 
Q 53.21875 48.921875 51.53125 44.890625 
Q 49.859375 40.875 45.40625 35.40625 
Q 44.1875 33.984375 37.640625 27.21875 
Q 31.109375 20.453125 19.1875 8.296875 
z
" id="DejaVuSans-32"/>
      </defs>
      <g transform="translate(160.275 415.195234)scale(0.1 -0.1)">
       <use xlink:href="#DejaVuSans-32"/>
       <use x="63.623047" xlink:href="#DejaVuSans-30"/>
      </g>
     </g>
    </g>
    <g id="ytick_4">
     <g id="line2d_4">
      <g>
       <use style="stroke:#000000;stroke-width:0.8;" x="180" xlink:href="#m0a70afdb4c" y="302.094023"/>
      </g>
     </g>
     <g id="text_4">
      <!-- 30 -->
      <defs>
       <path d="M 40.578125 39.3125 
Q 47.65625 37.796875 51.625 33 
Q 55.609375 28.21875 55.609375 21.1875 
Q 55.609375 10.40625 48.1875 4.484375 
Q 40.765625 -1.421875 27.09375 -1.421875 
Q 22.515625 -1.421875 17.65625 -0.515625 
Q 12.796875 0.390625 7.625 2.203125 
L 7.625 11.71875 
Q 11.71875 9.328125 16.59375 8.109375 
Q 21.484375 6.890625 26.8125 6.890625 
Q 36.078125 6.890625 40.9375 10.546875 
Q 45.796875 14.203125 45.796875 21.1875 
Q 45.796875 27.640625 41.28125 31.265625 
Q 36.765625 34.90625 28.71875 34.90625 
L 20.21875 34.90625 
L 20.21875 43.015625 
L 29.109375 43.015625 
Q 36.375 43.015625 40.234375 45.921875 
Q 44.09375 48.828125 44.09375 54.296875 
Q 44.09375 59.90625 40.109375 62.90625 
Q 36.140625 65.921875 28.71875 65.921875 
Q 24.65625 65.921875 20.015625 65.03125 
Q 15.375 64.15625 9.8125 62.3125 
L 9.8125 71.09375 
Q 15.4375 72.65625 20.34375 73.4375 
Q 25.25 74.21875 29.59375 74.21875 
Q 40.828125 74.21875 47.359375 69.109375 
Q 53.90625 64.015625 53.90625 55.328125 
Q 53.90625 49.265625 50.4375 45.09375 
Q 46.96875 40.921875 40.578125 39.3125 
z
" id="DejaVuSans-33"/>
      </defs>
      <g transform="translate(160.275 305.893242)scale(0.1 -0.1)">
       <use xlink:href="#DejaVuSans-33"/>
       <use x="63.623047" xlink:href="#DejaVuSans-30"/>
      </g>
     </g>
    </g>
    <g id="ytick_5">
     <g id="line2d_5">
      <g>
       <use style="stroke:#000000;stroke-width:0.8;" x="180" xlink:href="#m0a70afdb4c" y="192.792031"/>
      </g>
     </g>
     <g id="text_5">
      <!-- 40 -->
      <defs>
       <path d="M 37.796875 64.3125 
L 12.890625 25.390625 
L 37.796875 25.390625 
z
M 35.203125 72.90625 
L 47.609375 72.90625 
L 47.609375 25.390625 
L 58.015625 25.390625 
L 58.015625 17.1875 
L 47.609375 17.1875 
L 47.609375 0 
L 37.796875 0 
L 37.796875 17.1875 
L 4.890625 17.1875 
L 4.890625 26.703125 
z
" id="DejaVuSans-34"/>
      </defs>
      <g transform="translate(160.275 196.59125)scale(0.1 -0.1)">
       <use xlink:href="#DejaVuSans-34"/>
       <use x="63.623047" xlink:href="#DejaVuSans-30"/>
      </g>
     </g>
    </g>
    <g id="text_6">
     <!-- Step Times [ms] -->
     <defs>
      <path d="M 53.515625 70.515625 
L 53.515625 60.890625 
Q 47.90625 63.578125 42.921875 64.890625 
Q 37.9375 66.21875 33.296875 66.21875 
Q 25.25 66.21875 20.875 63.09375 
Q 16.5 59.96875 16.5 54.203125 
Q 16.5 49.359375 19.40625 46.890625 
Q 22.3125 44.4375 30.421875 42.921875 
L 36.375 41.703125 
Q 47.40625 39.59375 52.65625 34.296875 
Q 57.90625 29 57.90625 20.125 
Q 57.90625 9.515625 50.796875 4.046875 
Q 43.703125 -1.421875 29.984375 -1.421875 
Q 24.8125 -1.421875 18.96875 -0.25 
Q 13.140625 0.921875 6.890625 3.21875 
L 6.890625 13.375 
Q 12.890625 10.015625 18.65625 8.296875 
Q 24.421875 6.59375 29.984375 6.59375 
Q 38.421875 6.59375 43.015625 9.90625 
Q 47.609375 13.234375 47.609375 19.390625 
Q 47.609375 24.75 44.3125 27.78125 
Q 41.015625 30.8125 33.5 32.328125 
L 27.484375 33.5 
Q 16.453125 35.6875 11.515625 40.375 
Q 6.59375 45.0625 6.59375 53.421875 
Q 6.59375 63.09375 13.40625 68.65625 
Q 20.21875 74.21875 32.171875 74.21875 
Q 37.3125 74.21875 42.625 73.28125 
Q 47.953125 72.359375 53.515625 70.515625 
z
" id="DejaVuSans-53"/>
      <path d="M 18.3125 70.21875 
L 18.3125 54.6875 
L 36.8125 54.6875 
L 36.8125 47.703125 
L 18.3125 47.703125 
L 18.3125 18.015625 
Q 18.3125 11.328125 20.140625 9.421875 
Q 21.96875 7.515625 27.59375 7.515625 
L 36.8125 7.515625 
L 36.8125 0 
L 27.59375 0 
Q 17.1875 0 13.234375 3.875 
Q 9.28125 7.765625 9.28125 18.015625 
L 9.28125 47.703125 
L 2.6875 47.703125 
L 2.6875 54.6875 
L 9.28125 54.6875 
L 9.28125 70.21875 
z
" id="DejaVuSans-74"/>
      <path d="M 56.203125 29.59375 
L 56.203125 25.203125 
L 14.890625 25.203125 
Q 15.484375 15.921875 20.484375 11.0625 
Q 25.484375 6.203125 34.421875 6.203125 
Q 39.59375 6.203125 44.453125 7.46875 
Q 49.3125 8.734375 54.109375 11.28125 
L 54.109375 2.78125 
Q 49.265625 0.734375 44.1875 -0.34375 
Q 39.109375 -1.421875 33.890625 -1.421875 
Q 20.796875 -1.421875 13.15625 6.1875 
Q 5.515625 13.8125 5.515625 26.8125 
Q 5.515625 40.234375 12.765625 48.109375 
Q 20.015625 56 32.328125 56 
Q 43.359375 56 49.78125 48.890625 
Q 56.203125 41.796875 56.203125 29.59375 
z
M 47.21875 32.234375 
Q 47.125 39.59375 43.09375 43.984375 
Q 39.0625 48.390625 32.421875 48.390625 
Q 24.90625 48.390625 20.390625 44.140625 
Q 15.875 39.890625 15.1875 32.171875 
z
" id="DejaVuSans-65"/>
      <path d="M 18.109375 8.203125 
L 18.109375 -20.796875 
L 9.078125 -20.796875 
L 9.078125 54.6875 
L 18.109375 54.6875 
L 18.109375 46.390625 
Q 20.953125 51.265625 25.265625 53.625 
Q 29.59375 56 35.59375 56 
Q 45.5625 56 51.78125 48.09375 
Q 58.015625 40.1875 58.015625 27.296875 
Q 58.015625 14.40625 51.78125 6.484375 
Q 45.5625 -1.421875 35.59375 -1.421875 
Q 29.59375 -1.421875 25.265625 0.953125 
Q 20.953125 3.328125 18.109375 8.203125 
z
M 48.6875 27.296875 
Q 48.6875 37.203125 44.609375 42.84375 
Q 40.53125 48.484375 33.40625 48.484375 
Q 26.265625 48.484375 22.1875 42.84375 
Q 18.109375 37.203125 18.109375 27.296875 
Q 18.109375 17.390625 22.1875 11.75 
Q 26.265625 6.109375 33.40625 6.109375 
Q 40.53125 6.109375 44.609375 11.75 
Q 48.6875 17.390625 48.6875 27.296875 
z
" id="DejaVuSans-70"/>
      <path id="DejaVuSans-20"/>
      <path d="M -0.296875 72.90625 
L 61.375 72.90625 
L 61.375 64.59375 
L 35.5 64.59375 
L 35.5 0 
L 25.59375 0 
L 25.59375 64.59375 
L -0.296875 64.59375 
z
" id="DejaVuSans-54"/>
      <path d="M 9.421875 54.6875 
L 18.40625 54.6875 
L 18.40625 0 
L 9.421875 0 
z
M 9.421875 75.984375 
L 18.40625 75.984375 
L 18.40625 64.59375 
L 9.421875 64.59375 
z
" id="DejaVuSans-69"/>
      <path d="M 52 44.1875 
Q 55.375 50.25 60.0625 53.125 
Q 64.75 56 71.09375 56 
Q 79.640625 56 84.28125 50.015625 
Q 88.921875 44.046875 88.921875 33.015625 
L 88.921875 0 
L 79.890625 0 
L 79.890625 32.71875 
Q 79.890625 40.578125 77.09375 44.375 
Q 74.3125 48.1875 68.609375 48.1875 
Q 61.625 48.1875 57.5625 43.546875 
Q 53.515625 38.921875 53.515625 30.90625 
L 53.515625 0 
L 44.484375 0 
L 44.484375 32.71875 
Q 44.484375 40.625 41.703125 44.40625 
Q 38.921875 48.1875 33.109375 48.1875 
Q 26.21875 48.1875 22.15625 43.53125 
Q 18.109375 38.875 18.109375 30.90625 
L 18.109375 0 
L 9.078125 0 
L 9.078125 54.6875 
L 18.109375 54.6875 
L 18.109375 46.1875 
Q 21.1875 51.21875 25.484375 53.609375 
Q 29.78125 56 35.6875 56 
Q 41.65625 56 45.828125 52.96875 
Q 50 49.953125 52 44.1875 
z
" id="DejaVuSans-6d"/>
      <path d="M 44.28125 53.078125 
L 44.28125 44.578125 
Q 40.484375 46.53125 36.375 47.5 
Q 32.28125 48.484375 27.875 48.484375 
Q 21.1875 48.484375 17.84375 46.4375 
Q 14.5 44.390625 14.5 40.28125 
Q 14.5 37.15625 16.890625 35.375 
Q 19.28125 33.59375 26.515625 31.984375 
L 29.59375 31.296875 
Q 39.15625 29.25 43.1875 25.515625 
Q 47.21875 21.78125 47.21875 15.09375 
Q 47.21875 7.46875 41.1875 3.015625 
Q 35.15625 -1.421875 24.609375 -1.421875 
Q 20.21875 -1.421875 15.453125 -0.5625 
Q 10.6875 0.296875 5.421875 2 
L 5.421875 11.28125 
Q 10.40625 8.6875 15.234375 7.390625 
Q 20.0625 6.109375 24.8125 6.109375 
Q 31.15625 6.109375 34.5625 8.28125 
Q 37.984375 10.453125 37.984375 14.40625 
Q 37.984375 18.0625 35.515625 20.015625 
Q 33.0625 21.96875 24.703125 23.78125 
L 21.578125 24.515625 
Q 13.234375 26.265625 9.515625 29.90625 
Q 5.8125 33.546875 5.8125 39.890625 
Q 5.8125 47.609375 11.28125 51.796875 
Q 16.75 56 26.8125 56 
Q 31.78125 56 36.171875 55.265625 
Q 40.578125 54.546875 44.28125 53.078125 
z
" id="DejaVuSans-73"/>
      <path d="M 8.59375 75.984375 
L 29.296875 75.984375 
L 29.296875 69 
L 17.578125 69 
L 17.578125 -6.203125 
L 29.296875 -6.203125 
L 29.296875 -13.1875 
L 8.59375 -13.1875 
z
" id="DejaVuSans-5b"/>
      <path d="M 30.421875 75.984375 
L 30.421875 -13.1875 
L 9.71875 -13.1875 
L 9.71875 -6.203125 
L 21.390625 -6.203125 
L 21.390625 69 
L 9.71875 69 
L 9.71875 75.984375 
z
" id="DejaVuSans-5d"/>
     </defs>
     <g transform="translate(154.195312 399.132031)rotate(-90)scale(0.1 -0.1)">
      <use xlink:href="#DejaVuSans-53"/>
      <use x="63.476562" xlink:href="#DejaVuSans-74"/>
      <use x="102.685547" xlink:href="#DejaVuSans-65"/>
      <use x="164.208984" xlink:href="#DejaVuSans-70"/>
      <use x="227.685547" xlink:href="#DejaVuSans-20"/>
      <use x="259.472656" xlink:href="#DejaVuSans-54"/>
      <use x="320.509766" xlink:href="#DejaVuSans-69"/>
      <use x="348.292969" xlink:href="#DejaVuSans-6d"/>
      <use x="445.705078" xlink:href="#DejaVuSans-65"/>
      <use x="507.228516" xlink:href="#DejaVuSans-73"/>
      <use x="559.328125" xlink:href="#DejaVuSans-20"/>
      <use x="591.115234" xlink:href="#DejaVuSans-5b"/>
      <use x="630.128906" xlink:href="#DejaVuSans-6d"/>
      <use x="727.541016" xlink:href="#DejaVuSans-73"/>
      <use x="779.640625" xlink:href="#DejaVuSans-5d"/>
     </g>
    </g>
   </g>
   <g id="line2d_6">
    <path clip-path="url(#p241f09a6cb)" d="M 233.276382 380.92262 
L 1242.723618 380.92262 
" style="fill:none;stroke:#000000;stroke-linecap:square;stroke-width:1.5;"/>
   </g>
   <g id="line2d_7">
    <path clip-path="url(#p241f09a6cb)" d="M 233.276382 284.507333 
L 1242.723618 284.507333 
" style="fill:none;stroke:#000000;stroke-linecap:square;stroke-width:1.5;"/>
   </g>
   <g id="patch_203">
    <path d="M 180 630 
L 180 86.4 
" style="fill:none;stroke:#000000;stroke-linecap:square;stroke-linejoin:miter;stroke-width:0.8;"/>
   </g>
   <g id="patch_204">
    <path d="M 1296 630 
L 1296 86.4 
" style="fill:none;stroke:#000000;stroke-linecap:square;stroke-linejoin:miter;stroke-width:0.8;"/>
   </g>
   <g id="patch_205">
    <path d="M 180 630 
L 1296 630 
" style="fill:none;stroke:#000000;stroke-linecap:square;stroke-linejoin:miter;stroke-width:0.8;"/>
   </g>
   <g id="patch_206">
    <path d="M 180 86.4 
L 1296 86.4 
" style="fill:none;stroke:#000000;stroke-linecap:square;stroke-linejoin:miter;stroke-width:0.8;"/>
   </g>
   <g id="text_7">
    <!-- Lidar Segmentation 32.274 ms -->
    <defs>
     <path d="M 9.8125 72.90625 
L 19.671875 72.90625 
L 19.671875 8.296875 
L 55.171875 8.296875 
L 55.171875 0 
L 9.8125 0 
z
" id="DejaVuSans-4c"/>
     <path d="M 45.40625 46.390625 
L 45.40625 75.984375 
L 54.390625 75.984375 
L 54.390625 0 
L 45.40625 0 
L 45.40625 8.203125 
Q 42.578125 3.328125 38.25 0.953125 
Q 33.9375 -1.421875 27.875 -1.421875 
Q 17.96875 -1.421875 11.734375 6.484375 
Q 5.515625 14.40625 5.515625 27.296875 
Q 5.515625 40.1875 11.734375 48.09375 
Q 17.96875 56 27.875 56 
Q 33.9375 56 38.25 53.625 
Q 42.578125 51.265625 45.40625 46.390625 
z
M 14.796875 27.296875 
Q 14.796875 17.390625 18.875 11.75 
Q 22.953125 6.109375 30.078125 6.109375 
Q 37.203125 6.109375 41.296875 11.75 
Q 45.40625 17.390625 45.40625 27.296875 
Q 45.40625 37.203125 41.296875 42.84375 
Q 37.203125 48.484375 30.078125 48.484375 
Q 22.953125 48.484375 18.875 42.84375 
Q 14.796875 37.203125 14.796875 27.296875 
z
" id="DejaVuSans-64"/>
     <path d="M 34.28125 27.484375 
Q 23.390625 27.484375 19.1875 25 
Q 14.984375 22.515625 14.984375 16.5 
Q 14.984375 11.71875 18.140625 8.90625 
Q 21.296875 6.109375 26.703125 6.109375 
Q 34.1875 6.109375 38.703125 11.40625 
Q 43.21875 16.703125 43.21875 25.484375 
L 43.21875 27.484375 
z
M 52.203125 31.203125 
L 52.203125 0 
L 43.21875 0 
L 43.21875 8.296875 
Q 40.140625 3.328125 35.546875 0.953125 
Q 30.953125 -1.421875 24.3125 -1.421875 
Q 15.921875 -1.421875 10.953125 3.296875 
Q 6 8.015625 6 15.921875 
Q 6 25.140625 12.171875 29.828125 
Q 18.359375 34.515625 30.609375 34.515625 
L 43.21875 34.515625 
L 43.21875 35.40625 
Q 43.21875 41.609375 39.140625 45 
Q 35.0625 48.390625 27.6875 48.390625 
Q 23 48.390625 18.546875 47.265625 
Q 14.109375 46.140625 10.015625 43.890625 
L 10.015625 52.203125 
Q 14.9375 54.109375 19.578125 55.046875 
Q 24.21875 56 28.609375 56 
Q 40.484375 56 46.34375 49.84375 
Q 52.203125 43.703125 52.203125 31.203125 
z
" id="DejaVuSans-61"/>
     <path d="M 41.109375 46.296875 
Q 39.59375 47.171875 37.8125 47.578125 
Q 36.03125 48 33.890625 48 
Q 26.265625 48 22.1875 43.046875 
Q 18.109375 38.09375 18.109375 28.8125 
L 18.109375 0 
L 9.078125 0 
L 9.078125 54.6875 
L 18.109375 54.6875 
L 18.109375 46.1875 
Q 20.953125 51.171875 25.484375 53.578125 
Q 30.03125 56 36.53125 56 
Q 37.453125 56 38.578125 55.875 
Q 39.703125 55.765625 41.0625 55.515625 
z
" id="DejaVuSans-72"/>
     <path d="M 45.40625 27.984375 
Q 45.40625 37.75 41.375 43.109375 
Q 37.359375 48.484375 30.078125 48.484375 
Q 22.859375 48.484375 18.828125 43.109375 
Q 14.796875 37.75 14.796875 27.984375 
Q 14.796875 18.265625 18.828125 12.890625 
Q 22.859375 7.515625 30.078125 7.515625 
Q 37.359375 7.515625 41.375 12.890625 
Q 45.40625 18.265625 45.40625 27.984375 
z
M 54.390625 6.78125 
Q 54.390625 -7.171875 48.1875 -13.984375 
Q 42 -20.796875 29.203125 -20.796875 
Q 24.46875 -20.796875 20.265625 -20.09375 
Q 16.0625 -19.390625 12.109375 -17.921875 
L 12.109375 -9.1875 
Q 16.0625 -11.328125 19.921875 -12.34375 
Q 23.78125 -13.375 27.78125 -13.375 
Q 36.625 -13.375 41.015625 -8.765625 
Q 45.40625 -4.15625 45.40625 5.171875 
L 45.40625 9.625 
Q 42.625 4.78125 38.28125 2.390625 
Q 33.9375 0 27.875 0 
Q 17.828125 0 11.671875 7.65625 
Q 5.515625 15.328125 5.515625 27.984375 
Q 5.515625 40.671875 11.671875 48.328125 
Q 17.828125 56 27.875 56 
Q 33.9375 56 38.28125 53.609375 
Q 42.625 51.21875 45.40625 46.390625 
L 45.40625 54.6875 
L 54.390625 54.6875 
z
" id="DejaVuSans-67"/>
     <path d="M 54.890625 33.015625 
L 54.890625 0 
L 45.90625 0 
L 45.90625 32.71875 
Q 45.90625 40.484375 42.875 44.328125 
Q 39.84375 48.1875 33.796875 48.1875 
Q 26.515625 48.1875 22.3125 43.546875 
Q 18.109375 38.921875 18.109375 30.90625 
L 18.109375 0 
L 9.078125 0 
L 9.078125 54.6875 
L 18.109375 54.6875 
L 18.109375 46.1875 
Q 21.34375 51.125 25.703125 53.5625 
Q 30.078125 56 35.796875 56 
Q 45.21875 56 50.046875 50.171875 
Q 54.890625 44.34375 54.890625 33.015625 
z
" id="DejaVuSans-6e"/>
     <path d="M 30.609375 48.390625 
Q 23.390625 48.390625 19.1875 42.75 
Q 14.984375 37.109375 14.984375 27.296875 
Q 14.984375 17.484375 19.15625 11.84375 
Q 23.34375 6.203125 30.609375 6.203125 
Q 37.796875 6.203125 41.984375 11.859375 
Q 46.1875 17.53125 46.1875 27.296875 
Q 46.1875 37.015625 41.984375 42.703125 
Q 37.796875 48.390625 30.609375 48.390625 
z
M 30.609375 56 
Q 42.328125 56 49.015625 48.375 
Q 55.71875 40.765625 55.71875 27.296875 
Q 55.71875 13.875 49.015625 6.21875 
Q 42.328125 -1.421875 30.609375 -1.421875 
Q 18.84375 -1.421875 12.171875 6.21875 
Q 5.515625 13.875 5.515625 27.296875 
Q 5.515625 40.765625 12.171875 48.375 
Q 18.84375 56 30.609375 56 
z
" id="DejaVuSans-6f"/>
     <path d="M 10.6875 12.40625 
L 21 12.40625 
L 21 0 
L 10.6875 0 
z
" id="DejaVuSans-2e"/>
     <path d="M 8.203125 72.90625 
L 55.078125 72.90625 
L 55.078125 68.703125 
L 28.609375 0 
L 18.3125 0 
L 43.21875 64.59375 
L 8.203125 64.59375 
z
" id="DejaVuSans-37"/>
    </defs>
    <g transform="translate(645.181875 80.4)scale(0.12 -0.12)">
     <use xlink:href="#DejaVuSans-4c"/>
     <use x="55.712891" xlink:href="#DejaVuSans-69"/>
     <use x="83.496094" xlink:href="#DejaVuSans-64"/>
     <use x="146.972656" xlink:href="#DejaVuSans-61"/>
     <use x="208.251953" xlink:href="#DejaVuSans-72"/>
     <use x="249.365234" xlink:href="#DejaVuSans-20"/>
     <use x="281.152344" xlink:href="#DejaVuSans-53"/>
     <use x="344.628906" xlink:href="#DejaVuSans-65"/>
     <use x="406.152344" xlink:href="#DejaVuSans-67"/>
     <use x="469.628906" xlink:href="#DejaVuSans-6d"/>
     <use x="567.041016" xlink:href="#DejaVuSans-65"/>
     <use x="628.564453" xlink:href="#DejaVuSans-6e"/>
     <use x="691.943359" xlink:href="#DejaVuSans-74"/>
     <use x="731.152344" xlink:href="#DejaVuSans-61"/>
     <use x="792.431641" xlink:href="#DejaVuSans-74"/>
     <use x="831.640625" xlink:href="#DejaVuSans-69"/>
     <use x="859.423828" xlink:href="#DejaVuSans-6f"/>
     <use x="920.605469" xlink:href="#DejaVuSans-6e"/>
     <use x="983.984375" xlink:href="#DejaVuSans-20"/>
     <use x="1015.771484" xlink:href="#DejaVuSans-33"/>
     <use x="1079.394531" xlink:href="#DejaVuSans-32"/>
     <use x="1143.017578" xlink:href="#DejaVuSans-2e"/>
     <use x="1174.804688" xlink:href="#DejaVuSans-32"/>
     <use x="1238.427734" xlink:href="#DejaVuSans-37"/>
     <use x="1302.050781" xlink:href="#DejaVuSans-34"/>
     <use x="1365.673828" xlink:href="#DejaVuSans-20"/>
     <use x="1397.460938" xlink:href="#DejaVuSans-6d"/>
     <use x="1494.873047" xlink:href="#DejaVuSans-73"/>
    </g>
   </g>
   <g id="legend_1">
    <g id="patch_207">
     <path d="M 1098.23125 123.75625 
L 1289 123.75625 
Q 1291 123.75625 1291 121.75625 
L 1291 93.4 
Q 1291 91.4 1289 91.4 
L 1098.23125 91.4 
Q 1096.23125 91.4 1096.23125 93.4 
L 1096.23125 121.75625 
Q 1096.23125 123.75625 1098.23125 123.75625 
z
" style="fill:#ffffff;opacity:0.8;stroke:#cccccc;stroke-linejoin:miter;"/>
    </g>
    <g id="patch_208">
     <path d="M 1100.23125 102.998437 
L 1120.23125 102.998437 
L 1120.23125 95.998437 
L 1100.23125 95.998437 
z
" style="fill:#1f77b4;"/>
    </g>
    <g id="text_8">
     <!-- Segmentor::Segment: -->
     <defs>
      <path d="M 11.71875 12.40625 
L 22.015625 12.40625 
L 22.015625 0 
L 11.71875 0 
z
M 11.71875 51.703125 
L 22.015625 51.703125 
L 22.015625 39.3125 
L 11.71875 39.3125 
z
" id="DejaVuSans-3a"/>
     </defs>
     <g transform="translate(1128.23125 102.998437)scale(0.1 -0.1)">
      <use xlink:href="#DejaVuSans-53"/>
      <use x="63.476562" xlink:href="#DejaVuSans-65"/>
      <use x="125" xlink:href="#DejaVuSans-67"/>
      <use x="188.476562" xlink:href="#DejaVuSans-6d"/>
      <use x="285.888672" xlink:href="#DejaVuSans-65"/>
      <use x="347.412109" xlink:href="#DejaVuSans-6e"/>
      <use x="410.791016" xlink:href="#DejaVuSans-74"/>
      <use x="450" xlink:href="#DejaVuSans-6f"/>
      <use x="511.181641" xlink:href="#DejaVuSans-72"/>
      <use x="552.279297" xlink:href="#DejaVuSans-3a"/>
      <use x="585.970703" xlink:href="#DejaVuSans-3a"/>
      <use x="619.662109" xlink:href="#DejaVuSans-53"/>
      <use x="683.138672" xlink:href="#DejaVuSans-65"/>
      <use x="744.662109" xlink:href="#DejaVuSans-67"/>
      <use x="808.138672" xlink:href="#DejaVuSans-6d"/>
      <use x="905.550781" xlink:href="#DejaVuSans-65"/>
      <use x="967.074219" xlink:href="#DejaVuSans-6e"/>
      <use x="1030.453125" xlink:href="#DejaVuSans-74"/>
      <use x="1069.662109" xlink:href="#DejaVuSans-3a"/>
     </g>
    </g>
    <g id="patch_209">
     <path d="M 1100.23125 117.676562 
L 1120.23125 117.676562 
L 1120.23125 110.676562 
L 1100.23125 110.676562 
z
" style="fill:#ff7f0e;"/>
    </g>
    <g id="text_9">
     <!-- CloudPreprocessor::Preprocess: -->
     <defs>
      <path d="M 64.40625 67.28125 
L 64.40625 56.890625 
Q 59.421875 61.53125 53.78125 63.8125 
Q 48.140625 66.109375 41.796875 66.109375 
Q 29.296875 66.109375 22.65625 58.46875 
Q 16.015625 50.828125 16.015625 36.375 
Q 16.015625 21.96875 22.65625 14.328125 
Q 29.296875 6.6875 41.796875 6.6875 
Q 48.140625 6.6875 53.78125 8.984375 
Q 59.421875 11.28125 64.40625 15.921875 
L 64.40625 5.609375 
Q 59.234375 2.09375 53.4375 0.328125 
Q 47.65625 -1.421875 41.21875 -1.421875 
Q 24.65625 -1.421875 15.125 8.703125 
Q 5.609375 18.84375 5.609375 36.375 
Q 5.609375 53.953125 15.125 64.078125 
Q 24.65625 74.21875 41.21875 74.21875 
Q 47.75 74.21875 53.53125 72.484375 
Q 59.328125 70.75 64.40625 67.28125 
z
" id="DejaVuSans-43"/>
      <path d="M 9.421875 75.984375 
L 18.40625 75.984375 
L 18.40625 0 
L 9.421875 0 
z
" id="DejaVuSans-6c"/>
      <path d="M 8.5 21.578125 
L 8.5 54.6875 
L 17.484375 54.6875 
L 17.484375 21.921875 
Q 17.484375 14.15625 20.5 10.265625 
Q 23.53125 6.390625 29.59375 6.390625 
Q 36.859375 6.390625 41.078125 11.03125 
Q 45.3125 15.671875 45.3125 23.6875 
L 45.3125 54.6875 
L 54.296875 54.6875 
L 54.296875 0 
L 45.3125 0 
L 45.3125 8.40625 
Q 42.046875 3.421875 37.71875 1 
Q 33.40625 -1.421875 27.6875 -1.421875 
Q 18.265625 -1.421875 13.375 4.4375 
Q 8.5 10.296875 8.5 21.578125 
z
M 31.109375 56 
z
" id="DejaVuSans-75"/>
      <path d="M 19.671875 64.796875 
L 19.671875 37.40625 
L 32.078125 37.40625 
Q 38.96875 37.40625 42.71875 40.96875 
Q 46.484375 44.53125 46.484375 51.125 
Q 46.484375 57.671875 42.71875 61.234375 
Q 38.96875 64.796875 32.078125 64.796875 
z
M 9.8125 72.90625 
L 32.078125 72.90625 
Q 44.34375 72.90625 50.609375 67.359375 
Q 56.890625 61.8125 56.890625 51.125 
Q 56.890625 40.328125 50.609375 34.8125 
Q 44.34375 29.296875 32.078125 29.296875 
L 19.671875 29.296875 
L 19.671875 0 
L 9.8125 0 
z
" id="DejaVuSans-50"/>
      <path d="M 48.78125 52.59375 
L 48.78125 44.1875 
Q 44.96875 46.296875 41.140625 47.34375 
Q 37.3125 48.390625 33.40625 48.390625 
Q 24.65625 48.390625 19.8125 42.84375 
Q 14.984375 37.3125 14.984375 27.296875 
Q 14.984375 17.28125 19.8125 11.734375 
Q 24.65625 6.203125 33.40625 6.203125 
Q 37.3125 6.203125 41.140625 7.25 
Q 44.96875 8.296875 48.78125 10.40625 
L 48.78125 2.09375 
Q 45.015625 0.34375 40.984375 -0.53125 
Q 36.96875 -1.421875 32.421875 -1.421875 
Q 20.0625 -1.421875 12.78125 6.34375 
Q 5.515625 14.109375 5.515625 27.296875 
Q 5.515625 40.671875 12.859375 48.328125 
Q 20.21875 56 33.015625 56 
Q 37.15625 56 41.109375 55.140625 
Q 45.0625 54.296875 48.78125 52.59375 
z
" id="DejaVuSans-63"/>
     </defs>
     <g transform="translate(1128.23125 117.676562)scale(0.1 -0.1)">
      <use xlink:href="#DejaVuSans-43"/>
      <use x="69.824219" xlink:href="#DejaVuSans-6c"/>
      <use x="97.607422" xlink:href="#DejaVuSans-6f"/>
      <use x="158.789062" xlink:href="#DejaVuSans-75"/>
      <use x="222.167969" xlink:href="#DejaVuSans-64"/>
      <use x="285.644531" xlink:href="#DejaVuSans-50"/>
      <use x="345.931641" xlink:href="#DejaVuSans-72"/>
      <use x="387.013672" xlink:href="#DejaVuSans-65"/>
      <use x="448.537109" xlink:href="#DejaVuSans-70"/>
      <use x="512.013672" xlink:href="#DejaVuSans-72"/>
      <use x="553.095703" xlink:href="#DejaVuSans-6f"/>
      <use x="614.277344" xlink:href="#DejaVuSans-63"/>
      <use x="669.257812" xlink:href="#DejaVuSans-65"/>
      <use x="730.78125" xlink:href="#DejaVuSans-73"/>
      <use x="782.880859" xlink:href="#DejaVuSans-73"/>
      <use x="834.980469" xlink:href="#DejaVuSans-6f"/>
      <use x="896.162109" xlink:href="#DejaVuSans-72"/>
      <use x="937.259766" xlink:href="#DejaVuSans-3a"/>
      <use x="970.951172" xlink:href="#DejaVuSans-3a"/>
      <use x="1004.642578" xlink:href="#DejaVuSans-50"/>
      <use x="1064.929688" xlink:href="#DejaVuSans-72"/>
      <use x="1106.011719" xlink:href="#DejaVuSans-65"/>
      <use x="1167.535156" xlink:href="#DejaVuSans-70"/>
      <use x="1231.011719" xlink:href="#DejaVuSans-72"/>
      <use x="1272.09375" xlink:href="#DejaVuSans-6f"/>
      <use x="1333.275391" xlink:href="#DejaVuSans-63"/>
      <use x="1388.255859" xlink:href="#DejaVuSans-65"/>
      <use x="1449.779297" xlink:href="#DejaVuSans-73"/>
      <use x="1501.878906" xlink:href="#DejaVuSans-73"/>
      <use x="1553.978516" xlink:href="#DejaVuSans-3a"/>
     </g>
    </g>
   </g>
  </g>
 </g>
 <defs>
  <clipPath id="p241f09a6cb">
   <rect height="543.6" width="1116" x="180" y="86.4"/>
  </clipPath>
 </defs>
</svg>
